%TF.GenerationSoftware,KiCad,Pcbnew,7.0.5*%
%TF.CreationDate,2023-11-02T21:43:45+08:00*%
%TF.ProjectId,___,65a7682e-6b69-4636-9164-5f7063625858,rev?*%
%TF.SameCoordinates,Original*%
%TF.FileFunction,Paste,Top*%
%TF.FilePolarity,Positive*%
%FSLAX46Y46*%
G04 Gerber Fmt 4.6, Leading zero omitted, Abs format (unit mm)*
G04 Created by KiCad (PCBNEW 7.0.5) date 2023-11-02 21:43:45*
%MOMM*%
%LPD*%
G01*
G04 APERTURE LIST*
G04 Aperture macros list*
%AMRoundRect*
0 Rectangle with rounded corners*
0 $1 Rounding radius*
0 $2 $3 $4 $5 $6 $7 $8 $9 X,Y pos of 4 corners*
0 Add a 4 corners polygon primitive as box body*
4,1,4,$2,$3,$4,$5,$6,$7,$8,$9,$2,$3,0*
0 Add four circle primitives for the rounded corners*
1,1,$1+$1,$2,$3*
1,1,$1+$1,$4,$5*
1,1,$1+$1,$6,$7*
1,1,$1+$1,$8,$9*
0 Add four rect primitives between the rounded corners*
20,1,$1+$1,$2,$3,$4,$5,0*
20,1,$1+$1,$4,$5,$6,$7,0*
20,1,$1+$1,$6,$7,$8,$9,0*
20,1,$1+$1,$8,$9,$2,$3,0*%
G04 Aperture macros list end*
%ADD10RoundRect,0.225000X-0.250000X0.225000X-0.250000X-0.225000X0.250000X-0.225000X0.250000X0.225000X0*%
%ADD11RoundRect,0.150000X-0.650000X-0.150000X0.650000X-0.150000X0.650000X0.150000X-0.650000X0.150000X0*%
%ADD12RoundRect,0.075000X0.700000X0.075000X-0.700000X0.075000X-0.700000X-0.075000X0.700000X-0.075000X0*%
%ADD13RoundRect,0.075000X0.075000X0.700000X-0.075000X0.700000X-0.075000X-0.700000X0.075000X-0.700000X0*%
%ADD14RoundRect,0.150000X-0.512500X-0.150000X0.512500X-0.150000X0.512500X0.150000X-0.512500X0.150000X0*%
%ADD15RoundRect,0.225000X0.225000X0.250000X-0.225000X0.250000X-0.225000X-0.250000X0.225000X-0.250000X0*%
%ADD16RoundRect,0.250000X0.250000X0.750000X-0.250000X0.750000X-0.250000X-0.750000X0.250000X-0.750000X0*%
%ADD17R,1.400000X1.200000*%
%ADD18R,1.550000X1.300000*%
%ADD19RoundRect,0.200000X0.275000X-0.200000X0.275000X0.200000X-0.275000X0.200000X-0.275000X-0.200000X0*%
%ADD20R,2.500000X1.500000*%
%ADD21R,0.600000X1.240000*%
%ADD22R,0.300000X1.240000*%
%ADD23RoundRect,0.200000X-0.275000X0.200000X-0.275000X-0.200000X0.275000X-0.200000X0.275000X0.200000X0*%
%ADD24RoundRect,0.225000X-0.225000X-0.375000X0.225000X-0.375000X0.225000X0.375000X-0.225000X0.375000X0*%
%ADD25RoundRect,0.150000X0.150000X-0.675000X0.150000X0.675000X-0.150000X0.675000X-0.150000X-0.675000X0*%
%ADD26RoundRect,0.225000X0.250000X-0.225000X0.250000X0.225000X-0.250000X0.225000X-0.250000X-0.225000X0*%
%ADD27RoundRect,0.225000X-0.225000X-0.250000X0.225000X-0.250000X0.225000X0.250000X-0.225000X0.250000X0*%
%ADD28R,1.350000X1.800000*%
%ADD29RoundRect,0.200000X0.200000X0.275000X-0.200000X0.275000X-0.200000X-0.275000X0.200000X-0.275000X0*%
%ADD30RoundRect,0.218750X0.218750X0.256250X-0.218750X0.256250X-0.218750X-0.256250X0.218750X-0.256250X0*%
%ADD31RoundRect,0.150000X0.150000X-0.587500X0.150000X0.587500X-0.150000X0.587500X-0.150000X-0.587500X0*%
%ADD32R,5.055000X0.350000*%
%ADD33RoundRect,0.200000X-0.200000X-0.275000X0.200000X-0.275000X0.200000X0.275000X-0.200000X0.275000X0*%
G04 APERTURE END LIST*
D10*
%TO.C,C4*%
X156800000Y-106725000D03*
X156800000Y-108275000D03*
%TD*%
D11*
%TO.C,U6*%
X127350000Y-94345000D03*
X127350000Y-95615000D03*
X127350000Y-96885000D03*
X127350000Y-98155000D03*
X134550000Y-98155000D03*
X134550000Y-96885000D03*
X134550000Y-95615000D03*
X134550000Y-94345000D03*
%TD*%
D12*
%TO.C,U3*%
X157075000Y-103250000D03*
X157075000Y-102750000D03*
X157075000Y-102250000D03*
X157075000Y-101750000D03*
X157075000Y-101250000D03*
X157075000Y-100750000D03*
X157075000Y-100250000D03*
X157075000Y-99750000D03*
X157075000Y-99250000D03*
X157075000Y-98750000D03*
X157075000Y-98250000D03*
X157075000Y-97750000D03*
X157075000Y-97250000D03*
X157075000Y-96750000D03*
X157075000Y-96250000D03*
X157075000Y-95750000D03*
D13*
X155150000Y-93825000D03*
X154650000Y-93825000D03*
X154150000Y-93825000D03*
X153650000Y-93825000D03*
X153150000Y-93825000D03*
X152650000Y-93825000D03*
X152150000Y-93825000D03*
X151650000Y-93825000D03*
X151150000Y-93825000D03*
X150650000Y-93825000D03*
X150150000Y-93825000D03*
X149650000Y-93825000D03*
X149150000Y-93825000D03*
X148650000Y-93825000D03*
X148150000Y-93825000D03*
X147650000Y-93825000D03*
D12*
X145725000Y-95750000D03*
X145725000Y-96250000D03*
X145725000Y-96750000D03*
X145725000Y-97250000D03*
X145725000Y-97750000D03*
X145725000Y-98250000D03*
X145725000Y-98750000D03*
X145725000Y-99250000D03*
X145725000Y-99750000D03*
X145725000Y-100250000D03*
X145725000Y-100750000D03*
X145725000Y-101250000D03*
X145725000Y-101750000D03*
X145725000Y-102250000D03*
X145725000Y-102750000D03*
X145725000Y-103250000D03*
D13*
X147650000Y-105175000D03*
X148150000Y-105175000D03*
X148650000Y-105175000D03*
X149150000Y-105175000D03*
X149650000Y-105175000D03*
X150150000Y-105175000D03*
X150650000Y-105175000D03*
X151150000Y-105175000D03*
X151650000Y-105175000D03*
X152150000Y-105175000D03*
X152650000Y-105175000D03*
X153150000Y-105175000D03*
X153650000Y-105175000D03*
X154150000Y-105175000D03*
X154650000Y-105175000D03*
X155150000Y-105175000D03*
%TD*%
D14*
%TO.C,U1*%
X162500000Y-115750000D03*
X162500000Y-116700000D03*
X162500000Y-117650000D03*
X164775000Y-117650000D03*
X164775000Y-116700000D03*
X164775000Y-115750000D03*
%TD*%
D15*
%TO.C,C1*%
X145325000Y-92600000D03*
X143775000Y-92600000D03*
%TD*%
D16*
%TO.C,J3*%
X127518334Y-125725000D03*
%TD*%
D17*
%TO.C,Y1*%
X166500000Y-99900000D03*
X164300000Y-99900000D03*
X164300000Y-101600000D03*
X166500000Y-101600000D03*
%TD*%
D18*
%TO.C,SW11*%
X169550000Y-76750000D03*
X177500000Y-76750000D03*
X169550000Y-81250000D03*
X177500000Y-81250000D03*
%TD*%
D19*
%TO.C,R4*%
X161775000Y-108325000D03*
X161775000Y-106675000D03*
%TD*%
D15*
%TO.C,C17*%
X165575000Y-103300000D03*
X164025000Y-103300000D03*
%TD*%
D20*
%TO.C,L1*%
X168737500Y-113150000D03*
X168737500Y-116850000D03*
%TD*%
D10*
%TO.C,C9*%
X155050000Y-112925000D03*
X155050000Y-114475000D03*
%TD*%
D21*
%TO.C,J7*%
X137800000Y-120675000D03*
X138600000Y-120675000D03*
D22*
X139250000Y-120675000D03*
X140250000Y-120675000D03*
X141750000Y-120675000D03*
X142750000Y-120675000D03*
D21*
X143400000Y-120675000D03*
X144200000Y-120675000D03*
X144200000Y-120675000D03*
X143400000Y-120675000D03*
D22*
X142250000Y-120675000D03*
X141250000Y-120675000D03*
X140750000Y-120675000D03*
X139750000Y-120675000D03*
D21*
X138600000Y-120675000D03*
X137800000Y-120675000D03*
%TD*%
D10*
%TO.C,C13*%
X160237500Y-112925000D03*
X160237500Y-114475000D03*
%TD*%
D23*
%TO.C,R6*%
X158500000Y-106675000D03*
X158500000Y-108325000D03*
%TD*%
D24*
%TO.C,D1*%
X162087500Y-113300000D03*
X165387500Y-113300000D03*
%TD*%
D18*
%TO.C,SW10*%
X198275000Y-108000000D03*
X206225000Y-108000000D03*
X198275000Y-112500000D03*
X206225000Y-112500000D03*
%TD*%
D25*
%TO.C,U7*%
X138962500Y-115875000D03*
X140232500Y-115875000D03*
X141502500Y-115875000D03*
X142772500Y-115875000D03*
X142772500Y-110625000D03*
X141502500Y-110625000D03*
X140232500Y-110625000D03*
X138962500Y-110625000D03*
%TD*%
D26*
%TO.C,C21*%
X137225000Y-112175000D03*
X137225000Y-110625000D03*
%TD*%
D27*
%TO.C,C10*%
X161025000Y-97300000D03*
X162575000Y-97300000D03*
%TD*%
D18*
%TO.C,SW3*%
X104525000Y-99000000D03*
X112475000Y-99000000D03*
X104525000Y-103500000D03*
X112475000Y-103500000D03*
%TD*%
D28*
%TO.C,RESET*%
X135650000Y-105050000D03*
X131250000Y-105050000D03*
%TD*%
D19*
%TO.C,R10*%
X130900000Y-121800000D03*
X130900000Y-120150000D03*
%TD*%
D15*
%TO.C,C6*%
X164712500Y-119700000D03*
X163162500Y-119700000D03*
%TD*%
D29*
%TO.C,R8*%
X145375000Y-94300000D03*
X143725000Y-94300000D03*
%TD*%
D30*
%TO.C,L2*%
X162587500Y-94100000D03*
X161012500Y-94100000D03*
%TD*%
D16*
%TO.C,J5*%
X123261667Y-125725000D03*
%TD*%
D19*
%TO.C,R9*%
X132700000Y-121775000D03*
X132700000Y-120125000D03*
%TD*%
D10*
%TO.C,C19*%
X136550000Y-94175000D03*
X136550000Y-95725000D03*
%TD*%
D18*
%TO.C,SW9*%
X184225000Y-112500000D03*
X176275000Y-112500000D03*
X184225000Y-108000000D03*
X176275000Y-108000000D03*
%TD*%
D10*
%TO.C,C8*%
X156750000Y-112925000D03*
X156750000Y-114475000D03*
%TD*%
D23*
%TO.C,R1*%
X160250000Y-116075000D03*
X160250000Y-117725000D03*
%TD*%
D18*
%TO.C,SW6*%
X104525000Y-117000000D03*
X112475000Y-117000000D03*
X104525000Y-121500000D03*
X112475000Y-121500000D03*
%TD*%
D27*
%TO.C,C12*%
X134225000Y-108050000D03*
X135775000Y-108050000D03*
%TD*%
D10*
%TO.C,C16*%
X156750000Y-116150000D03*
X156750000Y-117700000D03*
%TD*%
%TO.C,C22*%
X144550000Y-110625000D03*
X144550000Y-112175000D03*
%TD*%
D26*
%TO.C,C18*%
X168350000Y-101325000D03*
X168350000Y-99775000D03*
%TD*%
D31*
%TO.C,U4*%
X151200000Y-115137500D03*
X153100000Y-115137500D03*
X152150000Y-113262500D03*
%TD*%
D27*
%TO.C,C7*%
X166387500Y-119700000D03*
X167937500Y-119700000D03*
%TD*%
D18*
%TO.C,SW7*%
X187275000Y-99000000D03*
X195225000Y-99000000D03*
X187275000Y-103500000D03*
X195225000Y-103500000D03*
%TD*%
D27*
%TO.C,C5*%
X156450000Y-93000000D03*
X158000000Y-93000000D03*
%TD*%
D32*
%TO.C,U2*%
X142655000Y-86990000D03*
X142655000Y-86290000D03*
X142655000Y-85590000D03*
X142655000Y-84890000D03*
X142655000Y-84190000D03*
X142655000Y-83490000D03*
X142655000Y-82790000D03*
X142655000Y-82090000D03*
X142655000Y-81390000D03*
X142655000Y-80690000D03*
X142655000Y-79990000D03*
X142655000Y-79290000D03*
X142655000Y-78590000D03*
%TD*%
D27*
%TO.C,C3*%
X159725000Y-103300000D03*
X161275000Y-103300000D03*
%TD*%
D18*
%TO.C,SW4*%
X93725000Y-108000000D03*
X101675000Y-108000000D03*
X93725000Y-112500000D03*
X101675000Y-112500000D03*
%TD*%
%TO.C,SW5*%
X115725000Y-108000000D03*
X123675000Y-108000000D03*
X115725000Y-112500000D03*
X123675000Y-112500000D03*
%TD*%
D16*
%TO.C,J4*%
X125300000Y-125725000D03*
%TD*%
D10*
%TO.C,C15*%
X155050000Y-116150000D03*
X155050000Y-117700000D03*
%TD*%
%TO.C,C2*%
X143900000Y-104525000D03*
X143900000Y-106075000D03*
%TD*%
%TO.C,C14*%
X158537500Y-112900000D03*
X158537500Y-114450000D03*
%TD*%
D18*
%TO.C,SW12*%
X130475000Y-81250000D03*
X122525000Y-81250000D03*
X130475000Y-76750000D03*
X122525000Y-76750000D03*
%TD*%
D16*
%TO.C,J6*%
X121223334Y-125725000D03*
%TD*%
D33*
%TO.C,R5*%
X131050000Y-108050000D03*
X132700000Y-108050000D03*
%TD*%
D19*
%TO.C,R3*%
X158537500Y-117725000D03*
X158537500Y-116075000D03*
%TD*%
D27*
%TO.C,C11*%
X161025000Y-95700000D03*
X162575000Y-95700000D03*
%TD*%
D18*
%TO.C,SW8*%
X187275000Y-117000000D03*
X195225000Y-117000000D03*
X187275000Y-121500000D03*
X195225000Y-121500000D03*
%TD*%
D23*
%TO.C,R7*%
X160175000Y-106675000D03*
X160175000Y-108325000D03*
%TD*%
M02*
