%TF.GenerationSoftware,KiCad,Pcbnew,7.0.5*%
%TF.CreationDate,2023-11-02T21:43:45+08:00*%
%TF.ProjectId,___,65a7682e-6b69-4636-9164-5f7063625858,rev?*%
%TF.SameCoordinates,Original*%
%TF.FileFunction,Legend,Bot*%
%TF.FilePolarity,Positive*%
%FSLAX46Y46*%
G04 Gerber Fmt 4.6, Leading zero omitted, Abs format (unit mm)*
G04 Created by KiCad (PCBNEW 7.0.5) date 2023-11-02 21:43:45*
%MOMM*%
%LPD*%
G01*
G04 APERTURE LIST*
%ADD10C,0.200000*%
%ADD11C,0.150000*%
%ADD12C,0.010000*%
%ADD13C,0.120000*%
G04 APERTURE END LIST*
D10*
X170592231Y-112144838D02*
X170592231Y-110144838D01*
X169735088Y-112144838D02*
X169735088Y-111097219D01*
X169735088Y-111097219D02*
X169830326Y-110906742D01*
X169830326Y-110906742D02*
X170020802Y-110811504D01*
X170020802Y-110811504D02*
X170306517Y-110811504D01*
X170306517Y-110811504D02*
X170496993Y-110906742D01*
X170496993Y-110906742D02*
X170592231Y-111001980D01*
X169068421Y-110811504D02*
X168306517Y-110811504D01*
X168782707Y-110144838D02*
X168782707Y-111859123D01*
X168782707Y-111859123D02*
X168687469Y-112049600D01*
X168687469Y-112049600D02*
X168496993Y-112144838D01*
X168496993Y-112144838D02*
X168306517Y-112144838D01*
X167925564Y-110811504D02*
X167163660Y-110811504D01*
X167639850Y-110144838D02*
X167639850Y-111859123D01*
X167639850Y-111859123D02*
X167544612Y-112049600D01*
X167544612Y-112049600D02*
X167354136Y-112144838D01*
X167354136Y-112144838D02*
X167163660Y-112144838D01*
X166496993Y-110811504D02*
X166496993Y-112811504D01*
X166496993Y-110906742D02*
X166306517Y-110811504D01*
X166306517Y-110811504D02*
X165925564Y-110811504D01*
X165925564Y-110811504D02*
X165735088Y-110906742D01*
X165735088Y-110906742D02*
X165639850Y-111001980D01*
X165639850Y-111001980D02*
X165544612Y-111192457D01*
X165544612Y-111192457D02*
X165544612Y-111763885D01*
X165544612Y-111763885D02*
X165639850Y-111954361D01*
X165639850Y-111954361D02*
X165735088Y-112049600D01*
X165735088Y-112049600D02*
X165925564Y-112144838D01*
X165925564Y-112144838D02*
X166306517Y-112144838D01*
X166306517Y-112144838D02*
X166496993Y-112049600D01*
X164782707Y-112049600D02*
X164592231Y-112144838D01*
X164592231Y-112144838D02*
X164211279Y-112144838D01*
X164211279Y-112144838D02*
X164020802Y-112049600D01*
X164020802Y-112049600D02*
X163925564Y-111859123D01*
X163925564Y-111859123D02*
X163925564Y-111763885D01*
X163925564Y-111763885D02*
X164020802Y-111573409D01*
X164020802Y-111573409D02*
X164211279Y-111478171D01*
X164211279Y-111478171D02*
X164496993Y-111478171D01*
X164496993Y-111478171D02*
X164687469Y-111382933D01*
X164687469Y-111382933D02*
X164782707Y-111192457D01*
X164782707Y-111192457D02*
X164782707Y-111097219D01*
X164782707Y-111097219D02*
X164687469Y-110906742D01*
X164687469Y-110906742D02*
X164496993Y-110811504D01*
X164496993Y-110811504D02*
X164211279Y-110811504D01*
X164211279Y-110811504D02*
X164020802Y-110906742D01*
X163068421Y-111954361D02*
X162973183Y-112049600D01*
X162973183Y-112049600D02*
X163068421Y-112144838D01*
X163068421Y-112144838D02*
X163163659Y-112049600D01*
X163163659Y-112049600D02*
X163068421Y-111954361D01*
X163068421Y-111954361D02*
X163068421Y-112144838D01*
X163068421Y-110906742D02*
X162973183Y-111001980D01*
X162973183Y-111001980D02*
X163068421Y-111097219D01*
X163068421Y-111097219D02*
X163163659Y-111001980D01*
X163163659Y-111001980D02*
X163068421Y-110906742D01*
X163068421Y-110906742D02*
X163068421Y-111097219D01*
X160687469Y-110049600D02*
X162401754Y-112621028D01*
X158592231Y-110049600D02*
X160306516Y-112621028D01*
X157068421Y-110811504D02*
X157068421Y-112430552D01*
X157068421Y-112430552D02*
X157163659Y-112621028D01*
X157163659Y-112621028D02*
X157258897Y-112716266D01*
X157258897Y-112716266D02*
X157449374Y-112811504D01*
X157449374Y-112811504D02*
X157735088Y-112811504D01*
X157735088Y-112811504D02*
X157925564Y-112716266D01*
X157068421Y-112049600D02*
X157258897Y-112144838D01*
X157258897Y-112144838D02*
X157639850Y-112144838D01*
X157639850Y-112144838D02*
X157830326Y-112049600D01*
X157830326Y-112049600D02*
X157925564Y-111954361D01*
X157925564Y-111954361D02*
X158020802Y-111763885D01*
X158020802Y-111763885D02*
X158020802Y-111192457D01*
X158020802Y-111192457D02*
X157925564Y-111001980D01*
X157925564Y-111001980D02*
X157830326Y-110906742D01*
X157830326Y-110906742D02*
X157639850Y-110811504D01*
X157639850Y-110811504D02*
X157258897Y-110811504D01*
X157258897Y-110811504D02*
X157068421Y-110906742D01*
X156116040Y-112144838D02*
X156116040Y-110811504D01*
X156116040Y-110144838D02*
X156211278Y-110240076D01*
X156211278Y-110240076D02*
X156116040Y-110335314D01*
X156116040Y-110335314D02*
X156020802Y-110240076D01*
X156020802Y-110240076D02*
X156116040Y-110144838D01*
X156116040Y-110144838D02*
X156116040Y-110335314D01*
X155449373Y-110811504D02*
X154687469Y-110811504D01*
X155163659Y-110144838D02*
X155163659Y-111859123D01*
X155163659Y-111859123D02*
X155068421Y-112049600D01*
X155068421Y-112049600D02*
X154877945Y-112144838D01*
X154877945Y-112144838D02*
X154687469Y-112144838D01*
X154020802Y-112144838D02*
X154020802Y-110144838D01*
X153163659Y-112144838D02*
X153163659Y-111097219D01*
X153163659Y-111097219D02*
X153258897Y-110906742D01*
X153258897Y-110906742D02*
X153449373Y-110811504D01*
X153449373Y-110811504D02*
X153735088Y-110811504D01*
X153735088Y-110811504D02*
X153925564Y-110906742D01*
X153925564Y-110906742D02*
X154020802Y-111001980D01*
X151354135Y-110811504D02*
X151354135Y-112144838D01*
X152211278Y-110811504D02*
X152211278Y-111859123D01*
X152211278Y-111859123D02*
X152116040Y-112049600D01*
X152116040Y-112049600D02*
X151925564Y-112144838D01*
X151925564Y-112144838D02*
X151639849Y-112144838D01*
X151639849Y-112144838D02*
X151449373Y-112049600D01*
X151449373Y-112049600D02*
X151354135Y-111954361D01*
X150401754Y-112144838D02*
X150401754Y-110144838D01*
X150401754Y-110906742D02*
X150211278Y-110811504D01*
X150211278Y-110811504D02*
X149830325Y-110811504D01*
X149830325Y-110811504D02*
X149639849Y-110906742D01*
X149639849Y-110906742D02*
X149544611Y-111001980D01*
X149544611Y-111001980D02*
X149449373Y-111192457D01*
X149449373Y-111192457D02*
X149449373Y-111763885D01*
X149449373Y-111763885D02*
X149544611Y-111954361D01*
X149544611Y-111954361D02*
X149639849Y-112049600D01*
X149639849Y-112049600D02*
X149830325Y-112144838D01*
X149830325Y-112144838D02*
X150211278Y-112144838D01*
X150211278Y-112144838D02*
X150401754Y-112049600D01*
X148592230Y-111954361D02*
X148496992Y-112049600D01*
X148496992Y-112049600D02*
X148592230Y-112144838D01*
X148592230Y-112144838D02*
X148687468Y-112049600D01*
X148687468Y-112049600D02*
X148592230Y-111954361D01*
X148592230Y-111954361D02*
X148592230Y-112144838D01*
X146782706Y-112049600D02*
X146973182Y-112144838D01*
X146973182Y-112144838D02*
X147354135Y-112144838D01*
X147354135Y-112144838D02*
X147544611Y-112049600D01*
X147544611Y-112049600D02*
X147639849Y-111954361D01*
X147639849Y-111954361D02*
X147735087Y-111763885D01*
X147735087Y-111763885D02*
X147735087Y-111192457D01*
X147735087Y-111192457D02*
X147639849Y-111001980D01*
X147639849Y-111001980D02*
X147544611Y-110906742D01*
X147544611Y-110906742D02*
X147354135Y-110811504D01*
X147354135Y-110811504D02*
X146973182Y-110811504D01*
X146973182Y-110811504D02*
X146782706Y-110906742D01*
X145639849Y-112144838D02*
X145830325Y-112049600D01*
X145830325Y-112049600D02*
X145925563Y-111954361D01*
X145925563Y-111954361D02*
X146020801Y-111763885D01*
X146020801Y-111763885D02*
X146020801Y-111192457D01*
X146020801Y-111192457D02*
X145925563Y-111001980D01*
X145925563Y-111001980D02*
X145830325Y-110906742D01*
X145830325Y-110906742D02*
X145639849Y-110811504D01*
X145639849Y-110811504D02*
X145354134Y-110811504D01*
X145354134Y-110811504D02*
X145163658Y-110906742D01*
X145163658Y-110906742D02*
X145068420Y-111001980D01*
X145068420Y-111001980D02*
X144973182Y-111192457D01*
X144973182Y-111192457D02*
X144973182Y-111763885D01*
X144973182Y-111763885D02*
X145068420Y-111954361D01*
X145068420Y-111954361D02*
X145163658Y-112049600D01*
X145163658Y-112049600D02*
X145354134Y-112144838D01*
X145354134Y-112144838D02*
X145639849Y-112144838D01*
X144116039Y-112144838D02*
X144116039Y-110811504D01*
X144116039Y-111001980D02*
X144020801Y-110906742D01*
X144020801Y-110906742D02*
X143830325Y-110811504D01*
X143830325Y-110811504D02*
X143544610Y-110811504D01*
X143544610Y-110811504D02*
X143354134Y-110906742D01*
X143354134Y-110906742D02*
X143258896Y-111097219D01*
X143258896Y-111097219D02*
X143258896Y-112144838D01*
X143258896Y-111097219D02*
X143163658Y-110906742D01*
X143163658Y-110906742D02*
X142973182Y-110811504D01*
X142973182Y-110811504D02*
X142687468Y-110811504D01*
X142687468Y-110811504D02*
X142496991Y-110906742D01*
X142496991Y-110906742D02*
X142401753Y-111097219D01*
X142401753Y-111097219D02*
X142401753Y-112144838D01*
X140020801Y-110049600D02*
X141735086Y-112621028D01*
X138211277Y-111954361D02*
X138306515Y-112049600D01*
X138306515Y-112049600D02*
X138592229Y-112144838D01*
X138592229Y-112144838D02*
X138782705Y-112144838D01*
X138782705Y-112144838D02*
X139068420Y-112049600D01*
X139068420Y-112049600D02*
X139258896Y-111859123D01*
X139258896Y-111859123D02*
X139354134Y-111668647D01*
X139354134Y-111668647D02*
X139449372Y-111287695D01*
X139449372Y-111287695D02*
X139449372Y-111001980D01*
X139449372Y-111001980D02*
X139354134Y-110621028D01*
X139354134Y-110621028D02*
X139258896Y-110430552D01*
X139258896Y-110430552D02*
X139068420Y-110240076D01*
X139068420Y-110240076D02*
X138782705Y-110144838D01*
X138782705Y-110144838D02*
X138592229Y-110144838D01*
X138592229Y-110144838D02*
X138306515Y-110240076D01*
X138306515Y-110240076D02*
X138211277Y-110335314D01*
X137068420Y-112144838D02*
X137258896Y-112049600D01*
X137258896Y-112049600D02*
X137354134Y-111954361D01*
X137354134Y-111954361D02*
X137449372Y-111763885D01*
X137449372Y-111763885D02*
X137449372Y-111192457D01*
X137449372Y-111192457D02*
X137354134Y-111001980D01*
X137354134Y-111001980D02*
X137258896Y-110906742D01*
X137258896Y-110906742D02*
X137068420Y-110811504D01*
X137068420Y-110811504D02*
X136782705Y-110811504D01*
X136782705Y-110811504D02*
X136592229Y-110906742D01*
X136592229Y-110906742D02*
X136496991Y-111001980D01*
X136496991Y-111001980D02*
X136401753Y-111192457D01*
X136401753Y-111192457D02*
X136401753Y-111763885D01*
X136401753Y-111763885D02*
X136496991Y-111954361D01*
X136496991Y-111954361D02*
X136592229Y-112049600D01*
X136592229Y-112049600D02*
X136782705Y-112144838D01*
X136782705Y-112144838D02*
X137068420Y-112144838D01*
X134687467Y-112144838D02*
X134687467Y-110144838D01*
X134687467Y-112049600D02*
X134877943Y-112144838D01*
X134877943Y-112144838D02*
X135258896Y-112144838D01*
X135258896Y-112144838D02*
X135449372Y-112049600D01*
X135449372Y-112049600D02*
X135544610Y-111954361D01*
X135544610Y-111954361D02*
X135639848Y-111763885D01*
X135639848Y-111763885D02*
X135639848Y-111192457D01*
X135639848Y-111192457D02*
X135544610Y-111001980D01*
X135544610Y-111001980D02*
X135449372Y-110906742D01*
X135449372Y-110906742D02*
X135258896Y-110811504D01*
X135258896Y-110811504D02*
X134877943Y-110811504D01*
X134877943Y-110811504D02*
X134687467Y-110906742D01*
X133449372Y-112144838D02*
X133639848Y-112049600D01*
X133639848Y-112049600D02*
X133735086Y-111954361D01*
X133735086Y-111954361D02*
X133830324Y-111763885D01*
X133830324Y-111763885D02*
X133830324Y-111192457D01*
X133830324Y-111192457D02*
X133735086Y-111001980D01*
X133735086Y-111001980D02*
X133639848Y-110906742D01*
X133639848Y-110906742D02*
X133449372Y-110811504D01*
X133449372Y-110811504D02*
X133163657Y-110811504D01*
X133163657Y-110811504D02*
X132973181Y-110906742D01*
X132973181Y-110906742D02*
X132877943Y-111001980D01*
X132877943Y-111001980D02*
X132782705Y-111192457D01*
X132782705Y-111192457D02*
X132782705Y-111763885D01*
X132782705Y-111763885D02*
X132877943Y-111954361D01*
X132877943Y-111954361D02*
X132973181Y-112049600D01*
X132973181Y-112049600D02*
X133163657Y-112144838D01*
X133163657Y-112144838D02*
X133449372Y-112144838D01*
X131925562Y-110811504D02*
X131925562Y-112144838D01*
X131925562Y-111001980D02*
X131830324Y-110906742D01*
X131830324Y-110906742D02*
X131639848Y-110811504D01*
X131639848Y-110811504D02*
X131354133Y-110811504D01*
X131354133Y-110811504D02*
X131163657Y-110906742D01*
X131163657Y-110906742D02*
X131068419Y-111097219D01*
X131068419Y-111097219D02*
X131068419Y-112144838D01*
X130116038Y-112144838D02*
X130116038Y-110144838D01*
X130116038Y-110144838D02*
X128973181Y-112144838D01*
X128973181Y-112144838D02*
X128973181Y-110144838D01*
X128020800Y-112144838D02*
X128020800Y-110811504D01*
X128020800Y-110144838D02*
X128116038Y-110240076D01*
X128116038Y-110240076D02*
X128020800Y-110335314D01*
X128020800Y-110335314D02*
X127925562Y-110240076D01*
X127925562Y-110240076D02*
X128020800Y-110144838D01*
X128020800Y-110144838D02*
X128020800Y-110335314D01*
X127068419Y-110811504D02*
X127068419Y-112144838D01*
X127068419Y-111001980D02*
X126973181Y-110906742D01*
X126973181Y-110906742D02*
X126782705Y-110811504D01*
X126782705Y-110811504D02*
X126496990Y-110811504D01*
X126496990Y-110811504D02*
X126306514Y-110906742D01*
X126306514Y-110906742D02*
X126211276Y-111097219D01*
X126211276Y-111097219D02*
X126211276Y-112144838D01*
X124496990Y-112049600D02*
X124687466Y-112144838D01*
X124687466Y-112144838D02*
X125068419Y-112144838D01*
X125068419Y-112144838D02*
X125258895Y-112049600D01*
X125258895Y-112049600D02*
X125354133Y-111859123D01*
X125354133Y-111859123D02*
X125354133Y-111097219D01*
X125354133Y-111097219D02*
X125258895Y-110906742D01*
X125258895Y-110906742D02*
X125068419Y-110811504D01*
X125068419Y-110811504D02*
X124687466Y-110811504D01*
X124687466Y-110811504D02*
X124496990Y-110906742D01*
X124496990Y-110906742D02*
X124401752Y-111097219D01*
X124401752Y-111097219D02*
X124401752Y-111287695D01*
X124401752Y-111287695D02*
X125354133Y-111478171D01*
D11*
%TO.C,C20*%
X154659580Y-84357142D02*
X154707200Y-84309523D01*
X154707200Y-84309523D02*
X154754819Y-84166666D01*
X154754819Y-84166666D02*
X154754819Y-84071428D01*
X154754819Y-84071428D02*
X154707200Y-83928571D01*
X154707200Y-83928571D02*
X154611961Y-83833333D01*
X154611961Y-83833333D02*
X154516723Y-83785714D01*
X154516723Y-83785714D02*
X154326247Y-83738095D01*
X154326247Y-83738095D02*
X154183390Y-83738095D01*
X154183390Y-83738095D02*
X153992914Y-83785714D01*
X153992914Y-83785714D02*
X153897676Y-83833333D01*
X153897676Y-83833333D02*
X153802438Y-83928571D01*
X153802438Y-83928571D02*
X153754819Y-84071428D01*
X153754819Y-84071428D02*
X153754819Y-84166666D01*
X153754819Y-84166666D02*
X153802438Y-84309523D01*
X153802438Y-84309523D02*
X153850057Y-84357142D01*
X153850057Y-84738095D02*
X153802438Y-84785714D01*
X153802438Y-84785714D02*
X153754819Y-84880952D01*
X153754819Y-84880952D02*
X153754819Y-85119047D01*
X153754819Y-85119047D02*
X153802438Y-85214285D01*
X153802438Y-85214285D02*
X153850057Y-85261904D01*
X153850057Y-85261904D02*
X153945295Y-85309523D01*
X153945295Y-85309523D02*
X154040533Y-85309523D01*
X154040533Y-85309523D02*
X154183390Y-85261904D01*
X154183390Y-85261904D02*
X154754819Y-84690476D01*
X154754819Y-84690476D02*
X154754819Y-85309523D01*
X153754819Y-85928571D02*
X153754819Y-86023809D01*
X153754819Y-86023809D02*
X153802438Y-86119047D01*
X153802438Y-86119047D02*
X153850057Y-86166666D01*
X153850057Y-86166666D02*
X153945295Y-86214285D01*
X153945295Y-86214285D02*
X154135771Y-86261904D01*
X154135771Y-86261904D02*
X154373866Y-86261904D01*
X154373866Y-86261904D02*
X154564342Y-86214285D01*
X154564342Y-86214285D02*
X154659580Y-86166666D01*
X154659580Y-86166666D02*
X154707200Y-86119047D01*
X154707200Y-86119047D02*
X154754819Y-86023809D01*
X154754819Y-86023809D02*
X154754819Y-85928571D01*
X154754819Y-85928571D02*
X154707200Y-85833333D01*
X154707200Y-85833333D02*
X154659580Y-85785714D01*
X154659580Y-85785714D02*
X154564342Y-85738095D01*
X154564342Y-85738095D02*
X154373866Y-85690476D01*
X154373866Y-85690476D02*
X154135771Y-85690476D01*
X154135771Y-85690476D02*
X153945295Y-85738095D01*
X153945295Y-85738095D02*
X153850057Y-85785714D01*
X153850057Y-85785714D02*
X153802438Y-85833333D01*
X153802438Y-85833333D02*
X153754819Y-85928571D01*
%TO.C,BAT-*%
X150282142Y-121281009D02*
X150139285Y-121328628D01*
X150139285Y-121328628D02*
X150091666Y-121376247D01*
X150091666Y-121376247D02*
X150044047Y-121471485D01*
X150044047Y-121471485D02*
X150044047Y-121614342D01*
X150044047Y-121614342D02*
X150091666Y-121709580D01*
X150091666Y-121709580D02*
X150139285Y-121757200D01*
X150139285Y-121757200D02*
X150234523Y-121804819D01*
X150234523Y-121804819D02*
X150615475Y-121804819D01*
X150615475Y-121804819D02*
X150615475Y-120804819D01*
X150615475Y-120804819D02*
X150282142Y-120804819D01*
X150282142Y-120804819D02*
X150186904Y-120852438D01*
X150186904Y-120852438D02*
X150139285Y-120900057D01*
X150139285Y-120900057D02*
X150091666Y-120995295D01*
X150091666Y-120995295D02*
X150091666Y-121090533D01*
X150091666Y-121090533D02*
X150139285Y-121185771D01*
X150139285Y-121185771D02*
X150186904Y-121233390D01*
X150186904Y-121233390D02*
X150282142Y-121281009D01*
X150282142Y-121281009D02*
X150615475Y-121281009D01*
X149663094Y-121519104D02*
X149186904Y-121519104D01*
X149758332Y-121804819D02*
X149424999Y-120804819D01*
X149424999Y-120804819D02*
X149091666Y-121804819D01*
X148901189Y-120804819D02*
X148329761Y-120804819D01*
X148615475Y-121804819D02*
X148615475Y-120804819D01*
X147996427Y-121423866D02*
X147234523Y-121423866D01*
%TO.C,BAT+*%
X155032142Y-121266009D02*
X154889285Y-121313628D01*
X154889285Y-121313628D02*
X154841666Y-121361247D01*
X154841666Y-121361247D02*
X154794047Y-121456485D01*
X154794047Y-121456485D02*
X154794047Y-121599342D01*
X154794047Y-121599342D02*
X154841666Y-121694580D01*
X154841666Y-121694580D02*
X154889285Y-121742200D01*
X154889285Y-121742200D02*
X154984523Y-121789819D01*
X154984523Y-121789819D02*
X155365475Y-121789819D01*
X155365475Y-121789819D02*
X155365475Y-120789819D01*
X155365475Y-120789819D02*
X155032142Y-120789819D01*
X155032142Y-120789819D02*
X154936904Y-120837438D01*
X154936904Y-120837438D02*
X154889285Y-120885057D01*
X154889285Y-120885057D02*
X154841666Y-120980295D01*
X154841666Y-120980295D02*
X154841666Y-121075533D01*
X154841666Y-121075533D02*
X154889285Y-121170771D01*
X154889285Y-121170771D02*
X154936904Y-121218390D01*
X154936904Y-121218390D02*
X155032142Y-121266009D01*
X155032142Y-121266009D02*
X155365475Y-121266009D01*
X154413094Y-121504104D02*
X153936904Y-121504104D01*
X154508332Y-121789819D02*
X154174999Y-120789819D01*
X154174999Y-120789819D02*
X153841666Y-121789819D01*
X153651189Y-120789819D02*
X153079761Y-120789819D01*
X153365475Y-121789819D02*
X153365475Y-120789819D01*
X152746427Y-121408866D02*
X151984523Y-121408866D01*
X152365475Y-121789819D02*
X152365475Y-121027914D01*
%TO.C,R2*%
X136554819Y-86533333D02*
X136078628Y-86200000D01*
X136554819Y-85961905D02*
X135554819Y-85961905D01*
X135554819Y-85961905D02*
X135554819Y-86342857D01*
X135554819Y-86342857D02*
X135602438Y-86438095D01*
X135602438Y-86438095D02*
X135650057Y-86485714D01*
X135650057Y-86485714D02*
X135745295Y-86533333D01*
X135745295Y-86533333D02*
X135888152Y-86533333D01*
X135888152Y-86533333D02*
X135983390Y-86485714D01*
X135983390Y-86485714D02*
X136031009Y-86438095D01*
X136031009Y-86438095D02*
X136078628Y-86342857D01*
X136078628Y-86342857D02*
X136078628Y-85961905D01*
X135650057Y-86914286D02*
X135602438Y-86961905D01*
X135602438Y-86961905D02*
X135554819Y-87057143D01*
X135554819Y-87057143D02*
X135554819Y-87295238D01*
X135554819Y-87295238D02*
X135602438Y-87390476D01*
X135602438Y-87390476D02*
X135650057Y-87438095D01*
X135650057Y-87438095D02*
X135745295Y-87485714D01*
X135745295Y-87485714D02*
X135840533Y-87485714D01*
X135840533Y-87485714D02*
X135983390Y-87438095D01*
X135983390Y-87438095D02*
X136554819Y-86866667D01*
X136554819Y-86866667D02*
X136554819Y-87485714D01*
%TO.C,U5*%
X147361904Y-73154819D02*
X147361904Y-73964342D01*
X147361904Y-73964342D02*
X147314285Y-74059580D01*
X147314285Y-74059580D02*
X147266666Y-74107200D01*
X147266666Y-74107200D02*
X147171428Y-74154819D01*
X147171428Y-74154819D02*
X146980952Y-74154819D01*
X146980952Y-74154819D02*
X146885714Y-74107200D01*
X146885714Y-74107200D02*
X146838095Y-74059580D01*
X146838095Y-74059580D02*
X146790476Y-73964342D01*
X146790476Y-73964342D02*
X146790476Y-73154819D01*
X145838095Y-73154819D02*
X146314285Y-73154819D01*
X146314285Y-73154819D02*
X146361904Y-73631009D01*
X146361904Y-73631009D02*
X146314285Y-73583390D01*
X146314285Y-73583390D02*
X146219047Y-73535771D01*
X146219047Y-73535771D02*
X145980952Y-73535771D01*
X145980952Y-73535771D02*
X145885714Y-73583390D01*
X145885714Y-73583390D02*
X145838095Y-73631009D01*
X145838095Y-73631009D02*
X145790476Y-73726247D01*
X145790476Y-73726247D02*
X145790476Y-73964342D01*
X145790476Y-73964342D02*
X145838095Y-74059580D01*
X145838095Y-74059580D02*
X145885714Y-74107200D01*
X145885714Y-74107200D02*
X145980952Y-74154819D01*
X145980952Y-74154819D02*
X146219047Y-74154819D01*
X146219047Y-74154819D02*
X146314285Y-74107200D01*
X146314285Y-74107200D02*
X146361904Y-74059580D01*
%TO.C,REF\u002A\u002A*%
D12*
X99521634Y-98633172D02*
X99634216Y-99230363D01*
X100049629Y-99401610D01*
X100465043Y-99572857D01*
X100963400Y-99233978D01*
X101062036Y-99167170D01*
X101192797Y-99079479D01*
X101306008Y-99004580D01*
X101395789Y-98946320D01*
X101456261Y-98908545D01*
X101481544Y-98895098D01*
X101497072Y-98904661D01*
X101543487Y-98944730D01*
X101613730Y-99010487D01*
X101701848Y-99095895D01*
X101801889Y-99194915D01*
X101907902Y-99301509D01*
X102013935Y-99409640D01*
X102114035Y-99513268D01*
X102202251Y-99606358D01*
X102272632Y-99682869D01*
X102319225Y-99736765D01*
X102336079Y-99762007D01*
X102332158Y-99772852D01*
X102305012Y-99821228D01*
X102255439Y-99900842D01*
X102187459Y-100005454D01*
X102105091Y-100128822D01*
X102012353Y-100264706D01*
X101961460Y-100338815D01*
X101873912Y-100467835D01*
X101798853Y-100580434D01*
X101740285Y-100670505D01*
X101702209Y-100731942D01*
X101688628Y-100758640D01*
X101688851Y-100760119D01*
X101700831Y-100793962D01*
X101728316Y-100863071D01*
X101767474Y-100958416D01*
X101814474Y-101070972D01*
X101865485Y-101191710D01*
X101916676Y-101311602D01*
X101964215Y-101421622D01*
X102004271Y-101512740D01*
X102033013Y-101575931D01*
X102046610Y-101602165D01*
X102054655Y-101604492D01*
X102103535Y-101614988D01*
X102190652Y-101632376D01*
X102309033Y-101655295D01*
X102451704Y-101682389D01*
X102611692Y-101712296D01*
X102696015Y-101728153D01*
X102850783Y-101758407D01*
X102986104Y-101786347D01*
X103094582Y-101810369D01*
X103168820Y-101828868D01*
X103201422Y-101840238D01*
X103207278Y-101851511D01*
X103216992Y-101906586D01*
X103224624Y-101998317D01*
X103230180Y-102118073D01*
X103233666Y-102257221D01*
X103235087Y-102407131D01*
X103234450Y-102559172D01*
X103231760Y-102704712D01*
X103227024Y-102835121D01*
X103220247Y-102941766D01*
X103211436Y-103016018D01*
X103200595Y-103049245D01*
X103194017Y-103052993D01*
X103144955Y-103069069D01*
X103059847Y-103090338D01*
X102948529Y-103114472D01*
X102820840Y-103139143D01*
X102777757Y-103147000D01*
X102578773Y-103183542D01*
X102422388Y-103212910D01*
X102303183Y-103236321D01*
X102215737Y-103254994D01*
X102154628Y-103270146D01*
X102114435Y-103282995D01*
X102089738Y-103294758D01*
X102075116Y-103306653D01*
X102073416Y-103308649D01*
X102049504Y-103350271D01*
X102014119Y-103426430D01*
X101970692Y-103528193D01*
X101922651Y-103646624D01*
X101873425Y-103772789D01*
X101826445Y-103897754D01*
X101785140Y-104012584D01*
X101752939Y-104108344D01*
X101733271Y-104176100D01*
X101729565Y-104206917D01*
X101732043Y-104210915D01*
X101757689Y-104249584D01*
X101805920Y-104320907D01*
X101872262Y-104418314D01*
X101952245Y-104535234D01*
X102041397Y-104665098D01*
X102065865Y-104700828D01*
X102151903Y-104828990D01*
X102226258Y-104943608D01*
X102284688Y-105037887D01*
X102322947Y-105105029D01*
X102336792Y-105138235D01*
X102333809Y-105146965D01*
X102302711Y-105189982D01*
X102241355Y-105260230D01*
X102154137Y-105352979D01*
X102045449Y-105463502D01*
X101919685Y-105587071D01*
X101847800Y-105656235D01*
X101734139Y-105763957D01*
X101634657Y-105856225D01*
X101554695Y-105928181D01*
X101499595Y-105974968D01*
X101474698Y-105991727D01*
X101457593Y-105985515D01*
X101404929Y-105956126D01*
X101328449Y-105908063D01*
X101238129Y-105847412D01*
X101173911Y-105803153D01*
X101045705Y-105715261D01*
X100908894Y-105621915D01*
X100783932Y-105537091D01*
X100539137Y-105371515D01*
X100333649Y-105482620D01*
X100285263Y-105508265D01*
X100197270Y-105552130D01*
X100129223Y-105582414D01*
X100092856Y-105593706D01*
X100080954Y-105579205D01*
X100051400Y-105523992D01*
X100007748Y-105432962D01*
X99952426Y-105311892D01*
X99887863Y-105166559D01*
X99816489Y-105002741D01*
X99740732Y-104826213D01*
X99663022Y-104642753D01*
X99585786Y-104458138D01*
X99511456Y-104278146D01*
X99442458Y-104108552D01*
X99381223Y-103955135D01*
X99330179Y-103823670D01*
X99291755Y-103719936D01*
X99268380Y-103649709D01*
X99262483Y-103618766D01*
X99262883Y-103617862D01*
X99290349Y-103589257D01*
X99347799Y-103544457D01*
X99423373Y-103492751D01*
X99447227Y-103476962D01*
X99628734Y-103327174D01*
X99778953Y-103148767D01*
X99894327Y-102949165D01*
X99971299Y-102735797D01*
X100006314Y-102516087D01*
X99995813Y-102297462D01*
X99953277Y-102103011D01*
X99876903Y-101906657D01*
X99765565Y-101731484D01*
X99612774Y-101565082D01*
X99552739Y-101511924D01*
X99358658Y-101380951D01*
X99148999Y-101292744D01*
X98929837Y-101246512D01*
X98707247Y-101241467D01*
X98487307Y-101276820D01*
X98276090Y-101351779D01*
X98079673Y-101465557D01*
X97904132Y-101617363D01*
X97755542Y-101806409D01*
X97726974Y-101853224D01*
X97629873Y-102067204D01*
X97578303Y-102290026D01*
X97570914Y-102515922D01*
X97606355Y-102739119D01*
X97683276Y-102953847D01*
X97800326Y-103154336D01*
X97956155Y-103334814D01*
X98149413Y-103489510D01*
X98155689Y-103493679D01*
X98230461Y-103546370D01*
X98286504Y-103591169D01*
X98312100Y-103618766D01*
X98308870Y-103640402D01*
X98288790Y-103703399D01*
X98253184Y-103801038D01*
X98204480Y-103927542D01*
X98145108Y-104077132D01*
X98077494Y-104244030D01*
X98004066Y-104422457D01*
X97927254Y-104606636D01*
X97849484Y-104790787D01*
X97773185Y-104969133D01*
X97700784Y-105135895D01*
X97634710Y-105285294D01*
X97577391Y-105411554D01*
X97531255Y-105508894D01*
X97498730Y-105571538D01*
X97482243Y-105593706D01*
X97468533Y-105590703D01*
X97414670Y-105569126D01*
X97335064Y-105531293D01*
X97241449Y-105482620D01*
X97035962Y-105371515D01*
X96791167Y-105537091D01*
X96718845Y-105586120D01*
X96584326Y-105677729D01*
X96450215Y-105769485D01*
X96336970Y-105847412D01*
X96274470Y-105889881D01*
X96193239Y-105942644D01*
X96133009Y-105978765D01*
X96103591Y-105992157D01*
X96090953Y-105986471D01*
X96045267Y-105951645D01*
X95974838Y-105890329D01*
X95885796Y-105808554D01*
X95784272Y-105712351D01*
X95676394Y-105607751D01*
X95568295Y-105500786D01*
X95466103Y-105397485D01*
X95375950Y-105303882D01*
X95303964Y-105226006D01*
X95256278Y-105169889D01*
X95239020Y-105141562D01*
X95240015Y-105136172D01*
X95260555Y-105092304D01*
X95304434Y-105016407D01*
X95367412Y-104915336D01*
X95445247Y-104795948D01*
X95533701Y-104665098D01*
X95558509Y-104629005D01*
X95645618Y-104502000D01*
X95722347Y-104389718D01*
X95784224Y-104298730D01*
X95826777Y-104235606D01*
X95845534Y-104206917D01*
X95845995Y-104205687D01*
X95840459Y-104170588D01*
X95819320Y-104099484D01*
X95786005Y-104001310D01*
X95743945Y-103885002D01*
X95696570Y-103759493D01*
X95647308Y-103633718D01*
X95599589Y-103516612D01*
X95556842Y-103417110D01*
X95522497Y-103344145D01*
X95499983Y-103306653D01*
X95497728Y-103304325D01*
X95481608Y-103292549D01*
X95454383Y-103280673D01*
X95410633Y-103267481D01*
X95344935Y-103251754D01*
X95251870Y-103232274D01*
X95126016Y-103207824D01*
X94961953Y-103177186D01*
X94754259Y-103139143D01*
X94711181Y-103131136D01*
X94587777Y-103106384D01*
X94483972Y-103082933D01*
X94409601Y-103063110D01*
X94374504Y-103049245D01*
X94368632Y-103037677D01*
X94358842Y-102982110D01*
X94351085Y-102889990D01*
X94345365Y-102769951D01*
X94341689Y-102630622D01*
X94340062Y-102480635D01*
X94340491Y-102328621D01*
X94342982Y-102183212D01*
X94347540Y-102053037D01*
X94354171Y-101946730D01*
X94362881Y-101872919D01*
X94373677Y-101840238D01*
X94384699Y-101835410D01*
X94439531Y-101820191D01*
X94532213Y-101798666D01*
X94655351Y-101772439D01*
X94801548Y-101743114D01*
X94963406Y-101712296D01*
X95051784Y-101695831D01*
X95203259Y-101667279D01*
X95333640Y-101642277D01*
X95435954Y-101622185D01*
X95503228Y-101608362D01*
X95528489Y-101602165D01*
X95529438Y-101600888D01*
X95545526Y-101568437D01*
X95576194Y-101500452D01*
X95617611Y-101405954D01*
X95665941Y-101293964D01*
X95717354Y-101173500D01*
X95768014Y-101053584D01*
X95814089Y-100943235D01*
X95851746Y-100851473D01*
X95877151Y-100787319D01*
X95886471Y-100759792D01*
X95882360Y-100750106D01*
X95855000Y-100704018D01*
X95805370Y-100626440D01*
X95737460Y-100523461D01*
X95655255Y-100401167D01*
X95562746Y-100265646D01*
X95511991Y-100191429D01*
X95424403Y-100061309D01*
X95349306Y-99947112D01*
X95290707Y-99855066D01*
X95252609Y-99791398D01*
X95239020Y-99762337D01*
X95248462Y-99746573D01*
X95287960Y-99699471D01*
X95352758Y-99628186D01*
X95436909Y-99538760D01*
X95534464Y-99437232D01*
X95639474Y-99329643D01*
X95745993Y-99222034D01*
X95848071Y-99120445D01*
X95939760Y-99030917D01*
X96015112Y-98959489D01*
X96068180Y-98912203D01*
X96093014Y-98895098D01*
X96106799Y-98901749D01*
X96157418Y-98932592D01*
X96239105Y-98985083D01*
X96345972Y-99055375D01*
X96472132Y-99139622D01*
X96611698Y-99233978D01*
X97110056Y-99572857D01*
X97525469Y-99401610D01*
X97940883Y-99230363D01*
X98053465Y-98633172D01*
X98166048Y-98035980D01*
X99409051Y-98035980D01*
X99521634Y-98633172D01*
G36*
X99521634Y-98633172D02*
G01*
X99634216Y-99230363D01*
X100049629Y-99401610D01*
X100465043Y-99572857D01*
X100963400Y-99233978D01*
X101062036Y-99167170D01*
X101192797Y-99079479D01*
X101306008Y-99004580D01*
X101395789Y-98946320D01*
X101456261Y-98908545D01*
X101481544Y-98895098D01*
X101497072Y-98904661D01*
X101543487Y-98944730D01*
X101613730Y-99010487D01*
X101701848Y-99095895D01*
X101801889Y-99194915D01*
X101907902Y-99301509D01*
X102013935Y-99409640D01*
X102114035Y-99513268D01*
X102202251Y-99606358D01*
X102272632Y-99682869D01*
X102319225Y-99736765D01*
X102336079Y-99762007D01*
X102332158Y-99772852D01*
X102305012Y-99821228D01*
X102255439Y-99900842D01*
X102187459Y-100005454D01*
X102105091Y-100128822D01*
X102012353Y-100264706D01*
X101961460Y-100338815D01*
X101873912Y-100467835D01*
X101798853Y-100580434D01*
X101740285Y-100670505D01*
X101702209Y-100731942D01*
X101688628Y-100758640D01*
X101688851Y-100760119D01*
X101700831Y-100793962D01*
X101728316Y-100863071D01*
X101767474Y-100958416D01*
X101814474Y-101070972D01*
X101865485Y-101191710D01*
X101916676Y-101311602D01*
X101964215Y-101421622D01*
X102004271Y-101512740D01*
X102033013Y-101575931D01*
X102046610Y-101602165D01*
X102054655Y-101604492D01*
X102103535Y-101614988D01*
X102190652Y-101632376D01*
X102309033Y-101655295D01*
X102451704Y-101682389D01*
X102611692Y-101712296D01*
X102696015Y-101728153D01*
X102850783Y-101758407D01*
X102986104Y-101786347D01*
X103094582Y-101810369D01*
X103168820Y-101828868D01*
X103201422Y-101840238D01*
X103207278Y-101851511D01*
X103216992Y-101906586D01*
X103224624Y-101998317D01*
X103230180Y-102118073D01*
X103233666Y-102257221D01*
X103235087Y-102407131D01*
X103234450Y-102559172D01*
X103231760Y-102704712D01*
X103227024Y-102835121D01*
X103220247Y-102941766D01*
X103211436Y-103016018D01*
X103200595Y-103049245D01*
X103194017Y-103052993D01*
X103144955Y-103069069D01*
X103059847Y-103090338D01*
X102948529Y-103114472D01*
X102820840Y-103139143D01*
X102777757Y-103147000D01*
X102578773Y-103183542D01*
X102422388Y-103212910D01*
X102303183Y-103236321D01*
X102215737Y-103254994D01*
X102154628Y-103270146D01*
X102114435Y-103282995D01*
X102089738Y-103294758D01*
X102075116Y-103306653D01*
X102073416Y-103308649D01*
X102049504Y-103350271D01*
X102014119Y-103426430D01*
X101970692Y-103528193D01*
X101922651Y-103646624D01*
X101873425Y-103772789D01*
X101826445Y-103897754D01*
X101785140Y-104012584D01*
X101752939Y-104108344D01*
X101733271Y-104176100D01*
X101729565Y-104206917D01*
X101732043Y-104210915D01*
X101757689Y-104249584D01*
X101805920Y-104320907D01*
X101872262Y-104418314D01*
X101952245Y-104535234D01*
X102041397Y-104665098D01*
X102065865Y-104700828D01*
X102151903Y-104828990D01*
X102226258Y-104943608D01*
X102284688Y-105037887D01*
X102322947Y-105105029D01*
X102336792Y-105138235D01*
X102333809Y-105146965D01*
X102302711Y-105189982D01*
X102241355Y-105260230D01*
X102154137Y-105352979D01*
X102045449Y-105463502D01*
X101919685Y-105587071D01*
X101847800Y-105656235D01*
X101734139Y-105763957D01*
X101634657Y-105856225D01*
X101554695Y-105928181D01*
X101499595Y-105974968D01*
X101474698Y-105991727D01*
X101457593Y-105985515D01*
X101404929Y-105956126D01*
X101328449Y-105908063D01*
X101238129Y-105847412D01*
X101173911Y-105803153D01*
X101045705Y-105715261D01*
X100908894Y-105621915D01*
X100783932Y-105537091D01*
X100539137Y-105371515D01*
X100333649Y-105482620D01*
X100285263Y-105508265D01*
X100197270Y-105552130D01*
X100129223Y-105582414D01*
X100092856Y-105593706D01*
X100080954Y-105579205D01*
X100051400Y-105523992D01*
X100007748Y-105432962D01*
X99952426Y-105311892D01*
X99887863Y-105166559D01*
X99816489Y-105002741D01*
X99740732Y-104826213D01*
X99663022Y-104642753D01*
X99585786Y-104458138D01*
X99511456Y-104278146D01*
X99442458Y-104108552D01*
X99381223Y-103955135D01*
X99330179Y-103823670D01*
X99291755Y-103719936D01*
X99268380Y-103649709D01*
X99262483Y-103618766D01*
X99262883Y-103617862D01*
X99290349Y-103589257D01*
X99347799Y-103544457D01*
X99423373Y-103492751D01*
X99447227Y-103476962D01*
X99628734Y-103327174D01*
X99778953Y-103148767D01*
X99894327Y-102949165D01*
X99971299Y-102735797D01*
X100006314Y-102516087D01*
X99995813Y-102297462D01*
X99953277Y-102103011D01*
X99876903Y-101906657D01*
X99765565Y-101731484D01*
X99612774Y-101565082D01*
X99552739Y-101511924D01*
X99358658Y-101380951D01*
X99148999Y-101292744D01*
X98929837Y-101246512D01*
X98707247Y-101241467D01*
X98487307Y-101276820D01*
X98276090Y-101351779D01*
X98079673Y-101465557D01*
X97904132Y-101617363D01*
X97755542Y-101806409D01*
X97726974Y-101853224D01*
X97629873Y-102067204D01*
X97578303Y-102290026D01*
X97570914Y-102515922D01*
X97606355Y-102739119D01*
X97683276Y-102953847D01*
X97800326Y-103154336D01*
X97956155Y-103334814D01*
X98149413Y-103489510D01*
X98155689Y-103493679D01*
X98230461Y-103546370D01*
X98286504Y-103591169D01*
X98312100Y-103618766D01*
X98308870Y-103640402D01*
X98288790Y-103703399D01*
X98253184Y-103801038D01*
X98204480Y-103927542D01*
X98145108Y-104077132D01*
X98077494Y-104244030D01*
X98004066Y-104422457D01*
X97927254Y-104606636D01*
X97849484Y-104790787D01*
X97773185Y-104969133D01*
X97700784Y-105135895D01*
X97634710Y-105285294D01*
X97577391Y-105411554D01*
X97531255Y-105508894D01*
X97498730Y-105571538D01*
X97482243Y-105593706D01*
X97468533Y-105590703D01*
X97414670Y-105569126D01*
X97335064Y-105531293D01*
X97241449Y-105482620D01*
X97035962Y-105371515D01*
X96791167Y-105537091D01*
X96718845Y-105586120D01*
X96584326Y-105677729D01*
X96450215Y-105769485D01*
X96336970Y-105847412D01*
X96274470Y-105889881D01*
X96193239Y-105942644D01*
X96133009Y-105978765D01*
X96103591Y-105992157D01*
X96090953Y-105986471D01*
X96045267Y-105951645D01*
X95974838Y-105890329D01*
X95885796Y-105808554D01*
X95784272Y-105712351D01*
X95676394Y-105607751D01*
X95568295Y-105500786D01*
X95466103Y-105397485D01*
X95375950Y-105303882D01*
X95303964Y-105226006D01*
X95256278Y-105169889D01*
X95239020Y-105141562D01*
X95240015Y-105136172D01*
X95260555Y-105092304D01*
X95304434Y-105016407D01*
X95367412Y-104915336D01*
X95445247Y-104795948D01*
X95533701Y-104665098D01*
X95558509Y-104629005D01*
X95645618Y-104502000D01*
X95722347Y-104389718D01*
X95784224Y-104298730D01*
X95826777Y-104235606D01*
X95845534Y-104206917D01*
X95845995Y-104205687D01*
X95840459Y-104170588D01*
X95819320Y-104099484D01*
X95786005Y-104001310D01*
X95743945Y-103885002D01*
X95696570Y-103759493D01*
X95647308Y-103633718D01*
X95599589Y-103516612D01*
X95556842Y-103417110D01*
X95522497Y-103344145D01*
X95499983Y-103306653D01*
X95497728Y-103304325D01*
X95481608Y-103292549D01*
X95454383Y-103280673D01*
X95410633Y-103267481D01*
X95344935Y-103251754D01*
X95251870Y-103232274D01*
X95126016Y-103207824D01*
X94961953Y-103177186D01*
X94754259Y-103139143D01*
X94711181Y-103131136D01*
X94587777Y-103106384D01*
X94483972Y-103082933D01*
X94409601Y-103063110D01*
X94374504Y-103049245D01*
X94368632Y-103037677D01*
X94358842Y-102982110D01*
X94351085Y-102889990D01*
X94345365Y-102769951D01*
X94341689Y-102630622D01*
X94340062Y-102480635D01*
X94340491Y-102328621D01*
X94342982Y-102183212D01*
X94347540Y-102053037D01*
X94354171Y-101946730D01*
X94362881Y-101872919D01*
X94373677Y-101840238D01*
X94384699Y-101835410D01*
X94439531Y-101820191D01*
X94532213Y-101798666D01*
X94655351Y-101772439D01*
X94801548Y-101743114D01*
X94963406Y-101712296D01*
X95051784Y-101695831D01*
X95203259Y-101667279D01*
X95333640Y-101642277D01*
X95435954Y-101622185D01*
X95503228Y-101608362D01*
X95528489Y-101602165D01*
X95529438Y-101600888D01*
X95545526Y-101568437D01*
X95576194Y-101500452D01*
X95617611Y-101405954D01*
X95665941Y-101293964D01*
X95717354Y-101173500D01*
X95768014Y-101053584D01*
X95814089Y-100943235D01*
X95851746Y-100851473D01*
X95877151Y-100787319D01*
X95886471Y-100759792D01*
X95882360Y-100750106D01*
X95855000Y-100704018D01*
X95805370Y-100626440D01*
X95737460Y-100523461D01*
X95655255Y-100401167D01*
X95562746Y-100265646D01*
X95511991Y-100191429D01*
X95424403Y-100061309D01*
X95349306Y-99947112D01*
X95290707Y-99855066D01*
X95252609Y-99791398D01*
X95239020Y-99762337D01*
X95248462Y-99746573D01*
X95287960Y-99699471D01*
X95352758Y-99628186D01*
X95436909Y-99538760D01*
X95534464Y-99437232D01*
X95639474Y-99329643D01*
X95745993Y-99222034D01*
X95848071Y-99120445D01*
X95939760Y-99030917D01*
X96015112Y-98959489D01*
X96068180Y-98912203D01*
X96093014Y-98895098D01*
X96106799Y-98901749D01*
X96157418Y-98932592D01*
X96239105Y-98985083D01*
X96345972Y-99055375D01*
X96472132Y-99139622D01*
X96611698Y-99233978D01*
X97110056Y-99572857D01*
X97525469Y-99401610D01*
X97940883Y-99230363D01*
X98053465Y-98633172D01*
X98166048Y-98035980D01*
X99409051Y-98035980D01*
X99521634Y-98633172D01*
G37*
X98995810Y-106887820D02*
X99139629Y-106923866D01*
X99244691Y-106990677D01*
X99311594Y-107088702D01*
X99340940Y-107218387D01*
X99334999Y-107342544D01*
X99292114Y-107447266D01*
X99209876Y-107524693D01*
X99086635Y-107576337D01*
X98920744Y-107603710D01*
X98812952Y-107618057D01*
X98714566Y-107649099D01*
X98663771Y-107694053D01*
X98660704Y-107752838D01*
X98681146Y-107789493D01*
X98744454Y-107832935D01*
X98834449Y-107853483D01*
X98939913Y-107850673D01*
X99049626Y-107824042D01*
X99152368Y-107773128D01*
X99254804Y-107705339D01*
X99344902Y-107796508D01*
X99435000Y-107887676D01*
X99360295Y-107948655D01*
X99331246Y-107969842D01*
X99249517Y-108017978D01*
X99161079Y-108059457D01*
X99091087Y-108083262D01*
X98988602Y-108100504D01*
X98862255Y-108100732D01*
X98707318Y-108081748D01*
X98567745Y-108033630D01*
X98468950Y-107957195D01*
X98410701Y-107852254D01*
X98392762Y-107718617D01*
X98405747Y-107601054D01*
X98447431Y-107504803D01*
X98522477Y-107435873D01*
X98635635Y-107390030D01*
X98791654Y-107363042D01*
X98809574Y-107361088D01*
X98906714Y-107348630D01*
X98985514Y-107335592D01*
X99030344Y-107324499D01*
X99045304Y-107315567D01*
X99070596Y-107269509D01*
X99066488Y-107210553D01*
X99032688Y-107159373D01*
X99014939Y-107148210D01*
X98940981Y-107130326D01*
X98845451Y-107131529D01*
X98745836Y-107150561D01*
X98659621Y-107186168D01*
X98569031Y-107239618D01*
X98498763Y-107157505D01*
X98481712Y-107136644D01*
X98443298Y-107080761D01*
X98427483Y-107042887D01*
X98444090Y-107019664D01*
X98495469Y-106983412D01*
X98569657Y-106944402D01*
X98580110Y-106939633D01*
X98677941Y-106902229D01*
X98772241Y-106884345D01*
X98889262Y-106880754D01*
X98995810Y-106887820D01*
G36*
X98995810Y-106887820D02*
G01*
X99139629Y-106923866D01*
X99244691Y-106990677D01*
X99311594Y-107088702D01*
X99340940Y-107218387D01*
X99334999Y-107342544D01*
X99292114Y-107447266D01*
X99209876Y-107524693D01*
X99086635Y-107576337D01*
X98920744Y-107603710D01*
X98812952Y-107618057D01*
X98714566Y-107649099D01*
X98663771Y-107694053D01*
X98660704Y-107752838D01*
X98681146Y-107789493D01*
X98744454Y-107832935D01*
X98834449Y-107853483D01*
X98939913Y-107850673D01*
X99049626Y-107824042D01*
X99152368Y-107773128D01*
X99254804Y-107705339D01*
X99344902Y-107796508D01*
X99435000Y-107887676D01*
X99360295Y-107948655D01*
X99331246Y-107969842D01*
X99249517Y-108017978D01*
X99161079Y-108059457D01*
X99091087Y-108083262D01*
X98988602Y-108100504D01*
X98862255Y-108100732D01*
X98707318Y-108081748D01*
X98567745Y-108033630D01*
X98468950Y-107957195D01*
X98410701Y-107852254D01*
X98392762Y-107718617D01*
X98405747Y-107601054D01*
X98447431Y-107504803D01*
X98522477Y-107435873D01*
X98635635Y-107390030D01*
X98791654Y-107363042D01*
X98809574Y-107361088D01*
X98906714Y-107348630D01*
X98985514Y-107335592D01*
X99030344Y-107324499D01*
X99045304Y-107315567D01*
X99070596Y-107269509D01*
X99066488Y-107210553D01*
X99032688Y-107159373D01*
X99014939Y-107148210D01*
X98940981Y-107130326D01*
X98845451Y-107131529D01*
X98745836Y-107150561D01*
X98659621Y-107186168D01*
X98569031Y-107239618D01*
X98498763Y-107157505D01*
X98481712Y-107136644D01*
X98443298Y-107080761D01*
X98427483Y-107042887D01*
X98444090Y-107019664D01*
X98495469Y-106983412D01*
X98569657Y-106944402D01*
X98580110Y-106939633D01*
X98677941Y-106902229D01*
X98772241Y-106884345D01*
X98889262Y-106880754D01*
X98995810Y-106887820D01*
G37*
X102181123Y-109644559D02*
X102180841Y-109647844D01*
X102150497Y-109775772D01*
X102083002Y-109871986D01*
X101975000Y-109941318D01*
X101919189Y-109958186D01*
X101823593Y-109971333D01*
X101719055Y-109974472D01*
X101624738Y-109967237D01*
X101559808Y-109949262D01*
X101520370Y-109934864D01*
X101481758Y-109949262D01*
X101467634Y-109957604D01*
X101411261Y-109971131D01*
X101335020Y-109976471D01*
X101215491Y-109976471D01*
X101215491Y-109549278D01*
X101489412Y-109549278D01*
X101498619Y-109622143D01*
X101534951Y-109686239D01*
X101555744Y-109700110D01*
X101629958Y-109721731D01*
X101722610Y-109727129D01*
X101813468Y-109716162D01*
X101882303Y-109688686D01*
X101916595Y-109652358D01*
X101937647Y-109587808D01*
X101918977Y-109536639D01*
X101857259Y-109492148D01*
X101758047Y-109463605D01*
X101627173Y-109453530D01*
X101489412Y-109453530D01*
X101489412Y-109549278D01*
X101215491Y-109549278D01*
X101215491Y-109494565D01*
X101215500Y-109452890D01*
X101215954Y-109295810D01*
X101217658Y-109179029D01*
X101221385Y-109094788D01*
X101227911Y-109035329D01*
X101238008Y-108992891D01*
X101252452Y-108959716D01*
X101272016Y-108928045D01*
X101334949Y-108853837D01*
X101424130Y-108797180D01*
X101541280Y-108765922D01*
X101695653Y-108756313D01*
X101700671Y-108756323D01*
X101807980Y-108761170D01*
X101904028Y-108773252D01*
X101969575Y-108790191D01*
X101987545Y-108798679D01*
X102044740Y-108834627D01*
X102096499Y-108877352D01*
X102130553Y-108915800D01*
X102134635Y-108938916D01*
X102126669Y-108945164D01*
X102039875Y-109011855D01*
X101981839Y-109051188D01*
X101943465Y-109067057D01*
X101915659Y-109063359D01*
X101889327Y-109043990D01*
X101840730Y-109019809D01*
X101758833Y-109003687D01*
X101666273Y-108999505D01*
X101582519Y-109008015D01*
X101527035Y-109029972D01*
X101524116Y-109032644D01*
X101499183Y-109082836D01*
X101489412Y-109157755D01*
X101489412Y-109254314D01*
X101719755Y-109254407D01*
X101825565Y-109256082D01*
X101914632Y-109263368D01*
X101978345Y-109278357D01*
X102029821Y-109303110D01*
X102041800Y-109310712D01*
X102128466Y-109394282D01*
X102174564Y-109504790D01*
X102178460Y-109587808D01*
X102181123Y-109644559D01*
G36*
X102181123Y-109644559D02*
G01*
X102180841Y-109647844D01*
X102150497Y-109775772D01*
X102083002Y-109871986D01*
X101975000Y-109941318D01*
X101919189Y-109958186D01*
X101823593Y-109971333D01*
X101719055Y-109974472D01*
X101624738Y-109967237D01*
X101559808Y-109949262D01*
X101520370Y-109934864D01*
X101481758Y-109949262D01*
X101467634Y-109957604D01*
X101411261Y-109971131D01*
X101335020Y-109976471D01*
X101215491Y-109976471D01*
X101215491Y-109549278D01*
X101489412Y-109549278D01*
X101498619Y-109622143D01*
X101534951Y-109686239D01*
X101555744Y-109700110D01*
X101629958Y-109721731D01*
X101722610Y-109727129D01*
X101813468Y-109716162D01*
X101882303Y-109688686D01*
X101916595Y-109652358D01*
X101937647Y-109587808D01*
X101918977Y-109536639D01*
X101857259Y-109492148D01*
X101758047Y-109463605D01*
X101627173Y-109453530D01*
X101489412Y-109453530D01*
X101489412Y-109549278D01*
X101215491Y-109549278D01*
X101215491Y-109494565D01*
X101215500Y-109452890D01*
X101215954Y-109295810D01*
X101217658Y-109179029D01*
X101221385Y-109094788D01*
X101227911Y-109035329D01*
X101238008Y-108992891D01*
X101252452Y-108959716D01*
X101272016Y-108928045D01*
X101334949Y-108853837D01*
X101424130Y-108797180D01*
X101541280Y-108765922D01*
X101695653Y-108756313D01*
X101700671Y-108756323D01*
X101807980Y-108761170D01*
X101904028Y-108773252D01*
X101969575Y-108790191D01*
X101987545Y-108798679D01*
X102044740Y-108834627D01*
X102096499Y-108877352D01*
X102130553Y-108915800D01*
X102134635Y-108938916D01*
X102126669Y-108945164D01*
X102039875Y-109011855D01*
X101981839Y-109051188D01*
X101943465Y-109067057D01*
X101915659Y-109063359D01*
X101889327Y-109043990D01*
X101840730Y-109019809D01*
X101758833Y-109003687D01*
X101666273Y-108999505D01*
X101582519Y-109008015D01*
X101527035Y-109029972D01*
X101524116Y-109032644D01*
X101499183Y-109082836D01*
X101489412Y-109157755D01*
X101489412Y-109254314D01*
X101719755Y-109254407D01*
X101825565Y-109256082D01*
X101914632Y-109263368D01*
X101978345Y-109278357D01*
X102029821Y-109303110D01*
X102041800Y-109310712D01*
X102128466Y-109394282D01*
X102174564Y-109504790D01*
X102178460Y-109587808D01*
X102181123Y-109644559D01*
G37*
X100966471Y-109976471D02*
X100717451Y-109976471D01*
X100717451Y-109592111D01*
X100717176Y-109502706D01*
X100714344Y-109354629D01*
X100707176Y-109245003D01*
X100694116Y-109166252D01*
X100673608Y-109110798D01*
X100644098Y-109071061D01*
X100604031Y-109039465D01*
X100560290Y-109015921D01*
X100508496Y-109009246D01*
X100434831Y-109024090D01*
X100411159Y-109030271D01*
X100352069Y-109039572D01*
X100309818Y-109026245D01*
X100260848Y-108984996D01*
X100251555Y-108976026D01*
X100200179Y-108920534D01*
X100167047Y-108875415D01*
X100162502Y-108864545D01*
X100171508Y-108824409D01*
X100217174Y-108792320D01*
X100289246Y-108769799D01*
X100377471Y-108758367D01*
X100471594Y-108759544D01*
X100561362Y-108774850D01*
X100636520Y-108805806D01*
X100660343Y-108820260D01*
X100700449Y-108841417D01*
X100715296Y-108836572D01*
X100717451Y-108805712D01*
X100717957Y-108794633D01*
X100729970Y-108770091D01*
X100767236Y-108758921D01*
X100841961Y-108756275D01*
X100966471Y-108756275D01*
X100966471Y-109976471D01*
G36*
X100966471Y-109976471D02*
G01*
X100717451Y-109976471D01*
X100717451Y-109592111D01*
X100717176Y-109502706D01*
X100714344Y-109354629D01*
X100707176Y-109245003D01*
X100694116Y-109166252D01*
X100673608Y-109110798D01*
X100644098Y-109071061D01*
X100604031Y-109039465D01*
X100560290Y-109015921D01*
X100508496Y-109009246D01*
X100434831Y-109024090D01*
X100411159Y-109030271D01*
X100352069Y-109039572D01*
X100309818Y-109026245D01*
X100260848Y-108984996D01*
X100251555Y-108976026D01*
X100200179Y-108920534D01*
X100167047Y-108875415D01*
X100162502Y-108864545D01*
X100171508Y-108824409D01*
X100217174Y-108792320D01*
X100289246Y-108769799D01*
X100377471Y-108758367D01*
X100471594Y-108759544D01*
X100561362Y-108774850D01*
X100636520Y-108805806D01*
X100660343Y-108820260D01*
X100700449Y-108841417D01*
X100715296Y-108836572D01*
X100717451Y-108805712D01*
X100717957Y-108794633D01*
X100729970Y-108770091D01*
X100767236Y-108758921D01*
X100841961Y-108756275D01*
X100966471Y-108756275D01*
X100966471Y-109976471D01*
G37*
X95407842Y-106879381D02*
X95468889Y-106898439D01*
X95544069Y-106930115D01*
X95580469Y-106947138D01*
X95606740Y-106950215D01*
X95612549Y-106926620D01*
X95612555Y-106925952D01*
X95624856Y-106903426D01*
X95667281Y-106891879D01*
X95749510Y-106888628D01*
X95886471Y-106888628D01*
X95886471Y-108083922D01*
X95612549Y-108083922D01*
X95612549Y-107259779D01*
X95544454Y-107196670D01*
X95523180Y-107178735D01*
X95459811Y-107148091D01*
X95381776Y-107146863D01*
X95275520Y-107173903D01*
X95239701Y-107175615D01*
X95197683Y-107149383D01*
X95141757Y-107087035D01*
X95114628Y-107052547D01*
X95082543Y-107003852D01*
X95077599Y-106972855D01*
X95095563Y-106946707D01*
X95150710Y-106913641D01*
X95236363Y-106887472D01*
X95329292Y-106874496D01*
X95407842Y-106879381D01*
G36*
X95407842Y-106879381D02*
G01*
X95468889Y-106898439D01*
X95544069Y-106930115D01*
X95580469Y-106947138D01*
X95606740Y-106950215D01*
X95612549Y-106926620D01*
X95612555Y-106925952D01*
X95624856Y-106903426D01*
X95667281Y-106891879D01*
X95749510Y-106888628D01*
X95886471Y-106888628D01*
X95886471Y-108083922D01*
X95612549Y-108083922D01*
X95612549Y-107259779D01*
X95544454Y-107196670D01*
X95523180Y-107178735D01*
X95459811Y-107148091D01*
X95381776Y-107146863D01*
X95275520Y-107173903D01*
X95239701Y-107175615D01*
X95197683Y-107149383D01*
X95141757Y-107087035D01*
X95114628Y-107052547D01*
X95082543Y-107003852D01*
X95077599Y-106972855D01*
X95095563Y-106946707D01*
X95150710Y-106913641D01*
X95236363Y-106887472D01*
X95329292Y-106874496D01*
X95407842Y-106879381D01*
G37*
X96384510Y-107276245D02*
X96386611Y-107450624D01*
X96394833Y-107591460D01*
X96411491Y-107693825D01*
X96438891Y-107763458D01*
X96479343Y-107806093D01*
X96535152Y-107827468D01*
X96608628Y-107833318D01*
X96678783Y-107828097D01*
X96735443Y-107807659D01*
X96776626Y-107766254D01*
X96804640Y-107698147D01*
X96821793Y-107597600D01*
X96830392Y-107458879D01*
X96832746Y-107276245D01*
X96832746Y-106888628D01*
X97081765Y-106888628D01*
X97081765Y-107355928D01*
X97081338Y-107480659D01*
X97078018Y-107641955D01*
X97069687Y-107764965D01*
X97054326Y-107856729D01*
X97029919Y-107924291D01*
X96994447Y-107974691D01*
X96945892Y-108014971D01*
X96882235Y-108052174D01*
X96748562Y-108099270D01*
X96609055Y-108102342D01*
X96477524Y-108058971D01*
X96420135Y-108030857D01*
X96391664Y-108026654D01*
X96384510Y-108046520D01*
X96372632Y-108068826D01*
X96330116Y-108080576D01*
X96247549Y-108083922D01*
X96110589Y-108083922D01*
X96110589Y-106888628D01*
X96384510Y-106888628D01*
X96384510Y-107276245D01*
G36*
X96384510Y-107276245D02*
G01*
X96386611Y-107450624D01*
X96394833Y-107591460D01*
X96411491Y-107693825D01*
X96438891Y-107763458D01*
X96479343Y-107806093D01*
X96535152Y-107827468D01*
X96608628Y-107833318D01*
X96678783Y-107828097D01*
X96735443Y-107807659D01*
X96776626Y-107766254D01*
X96804640Y-107698147D01*
X96821793Y-107597600D01*
X96830392Y-107458879D01*
X96832746Y-107276245D01*
X96832746Y-106888628D01*
X97081765Y-106888628D01*
X97081765Y-107355928D01*
X97081338Y-107480659D01*
X97078018Y-107641955D01*
X97069687Y-107764965D01*
X97054326Y-107856729D01*
X97029919Y-107924291D01*
X96994447Y-107974691D01*
X96945892Y-108014971D01*
X96882235Y-108052174D01*
X96748562Y-108099270D01*
X96609055Y-108102342D01*
X96477524Y-108058971D01*
X96420135Y-108030857D01*
X96391664Y-108026654D01*
X96384510Y-108046520D01*
X96372632Y-108068826D01*
X96330116Y-108080576D01*
X96247549Y-108083922D01*
X96110589Y-108083922D01*
X96110589Y-106888628D01*
X96384510Y-106888628D01*
X96384510Y-107276245D01*
G37*
X100167979Y-109459570D02*
X100164822Y-109566032D01*
X100158474Y-109640192D01*
X100157386Y-109646989D01*
X100114660Y-109768555D01*
X100036634Y-109871619D01*
X99934274Y-109941444D01*
X99824354Y-109970346D01*
X99689151Y-109968103D01*
X99564776Y-109929351D01*
X99532379Y-109912998D01*
X99490720Y-109895475D01*
X99474867Y-109900927D01*
X99472353Y-109929351D01*
X99471199Y-109943525D01*
X99456292Y-109964488D01*
X99414889Y-109974140D01*
X99335393Y-109976471D01*
X99198432Y-109976471D01*
X99198432Y-109378607D01*
X99472353Y-109378607D01*
X99474316Y-109482181D01*
X99482283Y-109551138D01*
X99499292Y-109598379D01*
X99528383Y-109637968D01*
X99605196Y-109696831D01*
X99695086Y-109716564D01*
X99782254Y-109692162D01*
X99855669Y-109624090D01*
X99875075Y-109574278D01*
X99889410Y-109486070D01*
X99895711Y-109379052D01*
X99893726Y-109269284D01*
X99883199Y-109172827D01*
X99863876Y-109105743D01*
X99857703Y-109094742D01*
X99798193Y-109039453D01*
X99717546Y-109014959D01*
X99630933Y-109020656D01*
X99553522Y-109055940D01*
X99500486Y-109120208D01*
X99498294Y-109125613D01*
X99485143Y-109185921D01*
X99475866Y-109276039D01*
X99472353Y-109378607D01*
X99198432Y-109378607D01*
X99198432Y-108283137D01*
X99472353Y-108283137D01*
X99472353Y-108863601D01*
X99523090Y-108817685D01*
X99571942Y-108789146D01*
X99664402Y-108765290D01*
X99772485Y-108757603D01*
X99878036Y-108767040D01*
X99962900Y-108794557D01*
X100023641Y-108833699D01*
X100086207Y-108900379D01*
X100128315Y-108990053D01*
X100153627Y-109111355D01*
X100165806Y-109272918D01*
X100167596Y-109338225D01*
X100167725Y-109379052D01*
X100167979Y-109459570D01*
G36*
X100167979Y-109459570D02*
G01*
X100164822Y-109566032D01*
X100158474Y-109640192D01*
X100157386Y-109646989D01*
X100114660Y-109768555D01*
X100036634Y-109871619D01*
X99934274Y-109941444D01*
X99824354Y-109970346D01*
X99689151Y-109968103D01*
X99564776Y-109929351D01*
X99532379Y-109912998D01*
X99490720Y-109895475D01*
X99474867Y-109900927D01*
X99472353Y-109929351D01*
X99471199Y-109943525D01*
X99456292Y-109964488D01*
X99414889Y-109974140D01*
X99335393Y-109976471D01*
X99198432Y-109976471D01*
X99198432Y-109378607D01*
X99472353Y-109378607D01*
X99474316Y-109482181D01*
X99482283Y-109551138D01*
X99499292Y-109598379D01*
X99528383Y-109637968D01*
X99605196Y-109696831D01*
X99695086Y-109716564D01*
X99782254Y-109692162D01*
X99855669Y-109624090D01*
X99875075Y-109574278D01*
X99889410Y-109486070D01*
X99895711Y-109379052D01*
X99893726Y-109269284D01*
X99883199Y-109172827D01*
X99863876Y-109105743D01*
X99857703Y-109094742D01*
X99798193Y-109039453D01*
X99717546Y-109014959D01*
X99630933Y-109020656D01*
X99553522Y-109055940D01*
X99500486Y-109120208D01*
X99498294Y-109125613D01*
X99485143Y-109185921D01*
X99475866Y-109276039D01*
X99472353Y-109378607D01*
X99198432Y-109378607D01*
X99198432Y-108283137D01*
X99472353Y-108283137D01*
X99472353Y-108863601D01*
X99523090Y-108817685D01*
X99571942Y-108789146D01*
X99664402Y-108765290D01*
X99772485Y-108757603D01*
X99878036Y-108767040D01*
X99962900Y-108794557D01*
X100023641Y-108833699D01*
X100086207Y-108900379D01*
X100128315Y-108990053D01*
X100153627Y-109111355D01*
X100165806Y-109272918D01*
X100167596Y-109338225D01*
X100167725Y-109379052D01*
X100167979Y-109459570D01*
G37*
X95770525Y-108772675D02*
X95845760Y-108807886D01*
X95911373Y-108859497D01*
X95911373Y-108807886D01*
X95913008Y-108788290D01*
X95928221Y-108767513D01*
X95969362Y-108758337D01*
X96048334Y-108756275D01*
X96185295Y-108756275D01*
X96185295Y-109976471D01*
X95911373Y-109976471D01*
X95911373Y-109579211D01*
X95911340Y-109556405D01*
X95909003Y-109396089D01*
X95903268Y-109265500D01*
X95894544Y-109171314D01*
X95883241Y-109120208D01*
X95872862Y-109100915D01*
X95808968Y-109040406D01*
X95721937Y-109013622D01*
X95626904Y-109026117D01*
X95603594Y-109034586D01*
X95553937Y-109049555D01*
X95519999Y-109044907D01*
X95485850Y-109014479D01*
X95435559Y-108952111D01*
X95353992Y-108849123D01*
X95411323Y-108802699D01*
X95465823Y-108774755D01*
X95561554Y-108755883D01*
X95669456Y-108755265D01*
X95770525Y-108772675D01*
G36*
X95770525Y-108772675D02*
G01*
X95845760Y-108807886D01*
X95911373Y-108859497D01*
X95911373Y-108807886D01*
X95913008Y-108788290D01*
X95928221Y-108767513D01*
X95969362Y-108758337D01*
X96048334Y-108756275D01*
X96185295Y-108756275D01*
X96185295Y-109976471D01*
X95911373Y-109976471D01*
X95911373Y-109579211D01*
X95911340Y-109556405D01*
X95909003Y-109396089D01*
X95903268Y-109265500D01*
X95894544Y-109171314D01*
X95883241Y-109120208D01*
X95872862Y-109100915D01*
X95808968Y-109040406D01*
X95721937Y-109013622D01*
X95626904Y-109026117D01*
X95603594Y-109034586D01*
X95553937Y-109049555D01*
X95519999Y-109044907D01*
X95485850Y-109014479D01*
X95435559Y-108952111D01*
X95353992Y-108849123D01*
X95411323Y-108802699D01*
X95465823Y-108774755D01*
X95561554Y-108755883D01*
X95669456Y-108755265D01*
X95770525Y-108772675D01*
G37*
X102180573Y-107336685D02*
X102189286Y-107511108D01*
X102187109Y-107587224D01*
X102162559Y-107753570D01*
X102108460Y-107884728D01*
X102021982Y-107986101D01*
X101900295Y-108063096D01*
X101782249Y-108099039D01*
X101634161Y-108105915D01*
X101484748Y-108079468D01*
X101351472Y-108021037D01*
X101302083Y-107988532D01*
X101247668Y-107946868D01*
X101222840Y-107919452D01*
X101224247Y-107908140D01*
X101252039Y-107869597D01*
X101304272Y-107822901D01*
X101394791Y-107753858D01*
X101500858Y-107806831D01*
X101529540Y-107819943D01*
X101613971Y-107848441D01*
X101684737Y-107859804D01*
X101736919Y-107850441D01*
X101818806Y-107805351D01*
X101887637Y-107735355D01*
X101927007Y-107654363D01*
X101943047Y-107585882D01*
X101190589Y-107585882D01*
X101190728Y-107455147D01*
X101191867Y-107413713D01*
X101200182Y-107324805D01*
X101464510Y-107324805D01*
X101464995Y-107329899D01*
X101478687Y-107345760D01*
X101517378Y-107355505D01*
X101589317Y-107360413D01*
X101702757Y-107361765D01*
X101740042Y-107361749D01*
X101836873Y-107360854D01*
X101895083Y-107356988D01*
X101923306Y-107347968D01*
X101930173Y-107331611D01*
X101924317Y-107305735D01*
X101923423Y-107302802D01*
X101872973Y-107212759D01*
X101793442Y-107150766D01*
X101698603Y-107127686D01*
X101663547Y-107129532D01*
X101598481Y-107151611D01*
X101536061Y-107207766D01*
X101519247Y-107227621D01*
X101480137Y-107284326D01*
X101464510Y-107324805D01*
X101200182Y-107324805D01*
X101201251Y-107313376D01*
X101216988Y-107230349D01*
X101234236Y-107183868D01*
X101294879Y-107082769D01*
X101376094Y-106990951D01*
X101461981Y-106928037D01*
X101486796Y-106916354D01*
X101631290Y-106877600D01*
X101778842Y-106881686D01*
X101917567Y-106926882D01*
X102035579Y-107011461D01*
X102099410Y-107089461D01*
X102151601Y-107199343D01*
X102179503Y-107331611D01*
X102180573Y-107336685D01*
G36*
X102180573Y-107336685D02*
G01*
X102189286Y-107511108D01*
X102187109Y-107587224D01*
X102162559Y-107753570D01*
X102108460Y-107884728D01*
X102021982Y-107986101D01*
X101900295Y-108063096D01*
X101782249Y-108099039D01*
X101634161Y-108105915D01*
X101484748Y-108079468D01*
X101351472Y-108021037D01*
X101302083Y-107988532D01*
X101247668Y-107946868D01*
X101222840Y-107919452D01*
X101224247Y-107908140D01*
X101252039Y-107869597D01*
X101304272Y-107822901D01*
X101394791Y-107753858D01*
X101500858Y-107806831D01*
X101529540Y-107819943D01*
X101613971Y-107848441D01*
X101684737Y-107859804D01*
X101736919Y-107850441D01*
X101818806Y-107805351D01*
X101887637Y-107735355D01*
X101927007Y-107654363D01*
X101943047Y-107585882D01*
X101190589Y-107585882D01*
X101190728Y-107455147D01*
X101191867Y-107413713D01*
X101200182Y-107324805D01*
X101464510Y-107324805D01*
X101464995Y-107329899D01*
X101478687Y-107345760D01*
X101517378Y-107355505D01*
X101589317Y-107360413D01*
X101702757Y-107361765D01*
X101740042Y-107361749D01*
X101836873Y-107360854D01*
X101895083Y-107356988D01*
X101923306Y-107347968D01*
X101930173Y-107331611D01*
X101924317Y-107305735D01*
X101923423Y-107302802D01*
X101872973Y-107212759D01*
X101793442Y-107150766D01*
X101698603Y-107127686D01*
X101663547Y-107129532D01*
X101598481Y-107151611D01*
X101536061Y-107207766D01*
X101519247Y-107227621D01*
X101480137Y-107284326D01*
X101464510Y-107324805D01*
X101200182Y-107324805D01*
X101201251Y-107313376D01*
X101216988Y-107230349D01*
X101234236Y-107183868D01*
X101294879Y-107082769D01*
X101376094Y-106990951D01*
X101461981Y-106928037D01*
X101486796Y-106916354D01*
X101631290Y-106877600D01*
X101778842Y-106881686D01*
X101917567Y-106926882D01*
X102035579Y-107011461D01*
X102099410Y-107089461D01*
X102151601Y-107199343D01*
X102179503Y-107331611D01*
X102180573Y-107336685D01*
G37*
X98270953Y-107572173D02*
X98264005Y-107650982D01*
X98233299Y-107801438D01*
X98178376Y-107916246D01*
X98094780Y-108002966D01*
X97978058Y-108069155D01*
X97932739Y-108084908D01*
X97815373Y-108104562D01*
X97691866Y-108104027D01*
X97587651Y-108082439D01*
X97585603Y-108081655D01*
X97501618Y-108032251D01*
X97416770Y-107955770D01*
X97346366Y-107868311D01*
X97305714Y-107785969D01*
X97293663Y-107725779D01*
X97283346Y-107613084D01*
X97281617Y-107512632D01*
X97532502Y-107512632D01*
X97547500Y-107633119D01*
X97582735Y-107732123D01*
X97636117Y-107796815D01*
X97656350Y-107807922D01*
X97733506Y-107828111D01*
X97822749Y-107832265D01*
X97897828Y-107818235D01*
X97927132Y-107798116D01*
X97968264Y-107727760D01*
X97994146Y-107617645D01*
X98003138Y-107473145D01*
X98002994Y-107431549D01*
X97999870Y-107347264D01*
X97989482Y-107292281D01*
X97967688Y-107251655D01*
X97930347Y-107210437D01*
X97859293Y-107160481D01*
X97766791Y-107140057D01*
X97677418Y-107159509D01*
X97603210Y-107215771D01*
X97556201Y-107305775D01*
X97539828Y-107383494D01*
X97532502Y-107512632D01*
X97281617Y-107512632D01*
X97281137Y-107484738D01*
X97286672Y-107356993D01*
X97299588Y-107246101D01*
X97319522Y-107168315D01*
X97365953Y-107080245D01*
X97464498Y-106971959D01*
X97590453Y-106903364D01*
X97740074Y-106876213D01*
X97909615Y-106892259D01*
X97937825Y-106899094D01*
X98069201Y-106958040D01*
X98168198Y-107054814D01*
X98234820Y-107189423D01*
X98269070Y-107361874D01*
X98270067Y-107473145D01*
X98270953Y-107572173D01*
G36*
X98270953Y-107572173D02*
G01*
X98264005Y-107650982D01*
X98233299Y-107801438D01*
X98178376Y-107916246D01*
X98094780Y-108002966D01*
X97978058Y-108069155D01*
X97932739Y-108084908D01*
X97815373Y-108104562D01*
X97691866Y-108104027D01*
X97587651Y-108082439D01*
X97585603Y-108081655D01*
X97501618Y-108032251D01*
X97416770Y-107955770D01*
X97346366Y-107868311D01*
X97305714Y-107785969D01*
X97293663Y-107725779D01*
X97283346Y-107613084D01*
X97281617Y-107512632D01*
X97532502Y-107512632D01*
X97547500Y-107633119D01*
X97582735Y-107732123D01*
X97636117Y-107796815D01*
X97656350Y-107807922D01*
X97733506Y-107828111D01*
X97822749Y-107832265D01*
X97897828Y-107818235D01*
X97927132Y-107798116D01*
X97968264Y-107727760D01*
X97994146Y-107617645D01*
X98003138Y-107473145D01*
X98002994Y-107431549D01*
X97999870Y-107347264D01*
X97989482Y-107292281D01*
X97967688Y-107251655D01*
X97930347Y-107210437D01*
X97859293Y-107160481D01*
X97766791Y-107140057D01*
X97677418Y-107159509D01*
X97603210Y-107215771D01*
X97556201Y-107305775D01*
X97539828Y-107383494D01*
X97532502Y-107512632D01*
X97281617Y-107512632D01*
X97281137Y-107484738D01*
X97286672Y-107356993D01*
X97299588Y-107246101D01*
X97319522Y-107168315D01*
X97365953Y-107080245D01*
X97464498Y-106971959D01*
X97590453Y-106903364D01*
X97740074Y-106876213D01*
X97909615Y-106892259D01*
X97937825Y-106899094D01*
X98069201Y-106958040D01*
X98168198Y-107054814D01*
X98234820Y-107189423D01*
X98269070Y-107361874D01*
X98270067Y-107473145D01*
X98270953Y-107572173D01*
G37*
X100547906Y-106886271D02*
X100661422Y-106921937D01*
X100711473Y-106946177D01*
X100736646Y-106948681D01*
X100742353Y-106926620D01*
X100742359Y-106925952D01*
X100754660Y-106903426D01*
X100797084Y-106891879D01*
X100879314Y-106888628D01*
X101016275Y-106888628D01*
X101016275Y-108083922D01*
X100742353Y-108083922D01*
X100742353Y-107671907D01*
X100742166Y-107532779D01*
X100740885Y-107418493D01*
X100737458Y-107338519D01*
X100730832Y-107284708D01*
X100719954Y-107248912D01*
X100703771Y-107222982D01*
X100681230Y-107198770D01*
X100650527Y-107173017D01*
X100562239Y-107138416D01*
X100469565Y-107148571D01*
X100384671Y-107203298D01*
X100360406Y-107228768D01*
X100342987Y-107254545D01*
X100331304Y-107288848D01*
X100324212Y-107339933D01*
X100320564Y-107416056D01*
X100319215Y-107525471D01*
X100319020Y-107676435D01*
X100319020Y-108083922D01*
X100045098Y-108083922D01*
X100045645Y-107641912D01*
X100045682Y-107622223D01*
X100048058Y-107434209D01*
X100055353Y-107288159D01*
X100069445Y-107176971D01*
X100092207Y-107093544D01*
X100125514Y-107030775D01*
X100171241Y-106981561D01*
X100231264Y-106938802D01*
X100293240Y-106909199D01*
X100418055Y-106882305D01*
X100547906Y-106886271D01*
G36*
X100547906Y-106886271D02*
G01*
X100661422Y-106921937D01*
X100711473Y-106946177D01*
X100736646Y-106948681D01*
X100742353Y-106926620D01*
X100742359Y-106925952D01*
X100754660Y-106903426D01*
X100797084Y-106891879D01*
X100879314Y-106888628D01*
X101016275Y-106888628D01*
X101016275Y-108083922D01*
X100742353Y-108083922D01*
X100742353Y-107671907D01*
X100742166Y-107532779D01*
X100740885Y-107418493D01*
X100737458Y-107338519D01*
X100730832Y-107284708D01*
X100719954Y-107248912D01*
X100703771Y-107222982D01*
X100681230Y-107198770D01*
X100650527Y-107173017D01*
X100562239Y-107138416D01*
X100469565Y-107148571D01*
X100384671Y-107203298D01*
X100360406Y-107228768D01*
X100342987Y-107254545D01*
X100331304Y-107288848D01*
X100324212Y-107339933D01*
X100320564Y-107416056D01*
X100319215Y-107525471D01*
X100319020Y-107676435D01*
X100319020Y-108083922D01*
X100045098Y-108083922D01*
X100045645Y-107641912D01*
X100045682Y-107622223D01*
X100048058Y-107434209D01*
X100055353Y-107288159D01*
X100069445Y-107176971D01*
X100092207Y-107093544D01*
X100125514Y-107030775D01*
X100171241Y-106981561D01*
X100231264Y-106938802D01*
X100293240Y-106909199D01*
X100418055Y-106882305D01*
X100547906Y-106886271D01*
G37*
X97392760Y-109648738D02*
X97362719Y-109761789D01*
X97297432Y-109858505D01*
X97198398Y-109928077D01*
X97188679Y-109932305D01*
X97080320Y-109962767D01*
X96958223Y-109974642D01*
X96842138Y-109967382D01*
X96751814Y-109940441D01*
X96715734Y-109922865D01*
X96689256Y-109918674D01*
X96683334Y-109940594D01*
X96672116Y-109960866D01*
X96628713Y-109972938D01*
X96544469Y-109976471D01*
X96405604Y-109976471D01*
X96412995Y-109540686D01*
X96683334Y-109540686D01*
X96692713Y-109605829D01*
X96733138Y-109677647D01*
X96748059Y-109690848D01*
X96809218Y-109718620D01*
X96901226Y-109725766D01*
X96956435Y-109722974D01*
X97059741Y-109701952D01*
X97123771Y-109662782D01*
X97145367Y-109608122D01*
X97121369Y-109540628D01*
X97107367Y-109522964D01*
X97044827Y-109483345D01*
X96945847Y-109460722D01*
X96804731Y-109453530D01*
X96683334Y-109453530D01*
X96683334Y-109540686D01*
X96412995Y-109540686D01*
X96413734Y-109497108D01*
X96415943Y-109386258D01*
X96421761Y-109220305D01*
X96431567Y-109093409D01*
X96447299Y-108998654D01*
X96470894Y-108929120D01*
X96504291Y-108877890D01*
X96549427Y-108838046D01*
X96608239Y-108802669D01*
X96638580Y-108789163D01*
X96743541Y-108763669D01*
X96870134Y-108753129D01*
X97001017Y-108757350D01*
X97118845Y-108776140D01*
X97206275Y-108809305D01*
X97236687Y-108828562D01*
X97306705Y-108885636D01*
X97330403Y-108933427D01*
X97324648Y-108942662D01*
X97288782Y-108974919D01*
X97230881Y-109017950D01*
X97201279Y-109038091D01*
X97150868Y-109066629D01*
X97118110Y-109069354D01*
X97087695Y-109049657D01*
X97011892Y-109009766D01*
X96909895Y-108993361D01*
X96805661Y-109005920D01*
X96803689Y-109006489D01*
X96730171Y-109038431D01*
X96693781Y-109088428D01*
X96683715Y-109171116D01*
X96683334Y-109249780D01*
X96943230Y-109258273D01*
X96984636Y-109259670D01*
X97089027Y-109264528D01*
X97159010Y-109272161D01*
X97206313Y-109285425D01*
X97242668Y-109307181D01*
X97279804Y-109340285D01*
X97341120Y-109416855D01*
X97386059Y-109530157D01*
X97390465Y-109608122D01*
X97392760Y-109648738D01*
G36*
X97392760Y-109648738D02*
G01*
X97362719Y-109761789D01*
X97297432Y-109858505D01*
X97198398Y-109928077D01*
X97188679Y-109932305D01*
X97080320Y-109962767D01*
X96958223Y-109974642D01*
X96842138Y-109967382D01*
X96751814Y-109940441D01*
X96715734Y-109922865D01*
X96689256Y-109918674D01*
X96683334Y-109940594D01*
X96672116Y-109960866D01*
X96628713Y-109972938D01*
X96544469Y-109976471D01*
X96405604Y-109976471D01*
X96412995Y-109540686D01*
X96683334Y-109540686D01*
X96692713Y-109605829D01*
X96733138Y-109677647D01*
X96748059Y-109690848D01*
X96809218Y-109718620D01*
X96901226Y-109725766D01*
X96956435Y-109722974D01*
X97059741Y-109701952D01*
X97123771Y-109662782D01*
X97145367Y-109608122D01*
X97121369Y-109540628D01*
X97107367Y-109522964D01*
X97044827Y-109483345D01*
X96945847Y-109460722D01*
X96804731Y-109453530D01*
X96683334Y-109453530D01*
X96683334Y-109540686D01*
X96412995Y-109540686D01*
X96413734Y-109497108D01*
X96415943Y-109386258D01*
X96421761Y-109220305D01*
X96431567Y-109093409D01*
X96447299Y-108998654D01*
X96470894Y-108929120D01*
X96504291Y-108877890D01*
X96549427Y-108838046D01*
X96608239Y-108802669D01*
X96638580Y-108789163D01*
X96743541Y-108763669D01*
X96870134Y-108753129D01*
X97001017Y-108757350D01*
X97118845Y-108776140D01*
X97206275Y-108809305D01*
X97236687Y-108828562D01*
X97306705Y-108885636D01*
X97330403Y-108933427D01*
X97324648Y-108942662D01*
X97288782Y-108974919D01*
X97230881Y-109017950D01*
X97201279Y-109038091D01*
X97150868Y-109066629D01*
X97118110Y-109069354D01*
X97087695Y-109049657D01*
X97011892Y-109009766D01*
X96909895Y-108993361D01*
X96805661Y-109005920D01*
X96803689Y-109006489D01*
X96730171Y-109038431D01*
X96693781Y-109088428D01*
X96683715Y-109171116D01*
X96683334Y-109249780D01*
X96943230Y-109258273D01*
X96984636Y-109259670D01*
X97089027Y-109264528D01*
X97159010Y-109272161D01*
X97206313Y-109285425D01*
X97242668Y-109307181D01*
X97279804Y-109340285D01*
X97341120Y-109416855D01*
X97386059Y-109530157D01*
X97390465Y-109608122D01*
X97392760Y-109648738D01*
G37*
X98469270Y-109147297D02*
X98502936Y-109247741D01*
X98542761Y-109358935D01*
X98576017Y-109443172D01*
X98599954Y-109493587D01*
X98611824Y-109503318D01*
X98614688Y-109494856D01*
X98630191Y-109442953D01*
X98654883Y-109356265D01*
X98686023Y-109244497D01*
X98720870Y-109117353D01*
X98815674Y-108768726D01*
X98960426Y-108761163D01*
X98972645Y-108760557D01*
X99050703Y-108759755D01*
X99088212Y-108767768D01*
X99092989Y-108786065D01*
X99086955Y-108803934D01*
X99067103Y-108865095D01*
X99036023Y-108961960D01*
X98995930Y-109087602D01*
X98949037Y-109235091D01*
X98897561Y-109397500D01*
X98714321Y-109976471D01*
X98485105Y-109976471D01*
X98377101Y-109609167D01*
X98357158Y-109541720D01*
X98320300Y-109419101D01*
X98288805Y-109316930D01*
X98265510Y-109244336D01*
X98253250Y-109210446D01*
X98249757Y-109207918D01*
X98232758Y-109229778D01*
X98208489Y-109287586D01*
X98180982Y-109372309D01*
X98179528Y-109377285D01*
X98142700Y-109502322D01*
X98100562Y-109643896D01*
X98061950Y-109772316D01*
X97999339Y-109979044D01*
X97768411Y-109964020D01*
X97661470Y-109627843D01*
X97614519Y-109480128D01*
X97561926Y-109314458D01*
X97511565Y-109155638D01*
X97469878Y-109023971D01*
X97385227Y-108756275D01*
X97668429Y-108756275D01*
X97737072Y-109011520D01*
X97755321Y-109078963D01*
X97789833Y-109204697D01*
X97821793Y-109319083D01*
X97846089Y-109403726D01*
X97886463Y-109540686D01*
X98015224Y-109154706D01*
X98143986Y-108768726D01*
X98242472Y-108761332D01*
X98340959Y-108753939D01*
X98469270Y-109147297D01*
G36*
X98469270Y-109147297D02*
G01*
X98502936Y-109247741D01*
X98542761Y-109358935D01*
X98576017Y-109443172D01*
X98599954Y-109493587D01*
X98611824Y-109503318D01*
X98614688Y-109494856D01*
X98630191Y-109442953D01*
X98654883Y-109356265D01*
X98686023Y-109244497D01*
X98720870Y-109117353D01*
X98815674Y-108768726D01*
X98960426Y-108761163D01*
X98972645Y-108760557D01*
X99050703Y-108759755D01*
X99088212Y-108767768D01*
X99092989Y-108786065D01*
X99086955Y-108803934D01*
X99067103Y-108865095D01*
X99036023Y-108961960D01*
X98995930Y-109087602D01*
X98949037Y-109235091D01*
X98897561Y-109397500D01*
X98714321Y-109976471D01*
X98485105Y-109976471D01*
X98377101Y-109609167D01*
X98357158Y-109541720D01*
X98320300Y-109419101D01*
X98288805Y-109316930D01*
X98265510Y-109244336D01*
X98253250Y-109210446D01*
X98249757Y-109207918D01*
X98232758Y-109229778D01*
X98208489Y-109287586D01*
X98180982Y-109372309D01*
X98179528Y-109377285D01*
X98142700Y-109502322D01*
X98100562Y-109643896D01*
X98061950Y-109772316D01*
X97999339Y-109979044D01*
X97768411Y-109964020D01*
X97661470Y-109627843D01*
X97614519Y-109480128D01*
X97561926Y-109314458D01*
X97511565Y-109155638D01*
X97469878Y-109023971D01*
X97385227Y-108756275D01*
X97668429Y-108756275D01*
X97737072Y-109011520D01*
X97755321Y-109078963D01*
X97789833Y-109204697D01*
X97821793Y-109319083D01*
X97846089Y-109403726D01*
X97886463Y-109540686D01*
X98015224Y-109154706D01*
X98143986Y-108768726D01*
X98242472Y-108761332D01*
X98340959Y-108753939D01*
X98469270Y-109147297D01*
G37*
X103307255Y-109979073D02*
X103176520Y-109971547D01*
X103045785Y-109964020D01*
X103039569Y-109565588D01*
X103037730Y-109468704D01*
X103032510Y-109323146D01*
X103023550Y-109216334D01*
X103009203Y-109141087D01*
X102987821Y-109090227D01*
X102957759Y-109056574D01*
X102917367Y-109032947D01*
X102841578Y-109008818D01*
X102766207Y-109018194D01*
X102686617Y-109069763D01*
X102610000Y-109134231D01*
X102610000Y-109976471D01*
X102336079Y-109976471D01*
X102336079Y-109519701D01*
X102336342Y-109376531D01*
X102337799Y-109249309D01*
X102341301Y-109156184D01*
X102347697Y-109088713D01*
X102357835Y-109038454D01*
X102372563Y-108996966D01*
X102392729Y-108955805D01*
X102397510Y-108947066D01*
X102461101Y-108861954D01*
X102535527Y-108802476D01*
X102625255Y-108771245D01*
X102744072Y-108757342D01*
X102863059Y-108764872D01*
X102959865Y-108794267D01*
X103033334Y-108832259D01*
X103033334Y-108010015D01*
X102932667Y-108062486D01*
X102890616Y-108081549D01*
X102757886Y-108108506D01*
X102625979Y-108089874D01*
X102503705Y-108027929D01*
X102399872Y-107924943D01*
X102383606Y-107900738D01*
X102367973Y-107865256D01*
X102357776Y-107817015D01*
X102351888Y-107746757D01*
X102349182Y-107645221D01*
X102348696Y-107539428D01*
X102611759Y-107539428D01*
X102611981Y-107627779D01*
X102618735Y-107686700D01*
X102633916Y-107728752D01*
X102659417Y-107766499D01*
X102691811Y-107801594D01*
X102743614Y-107828154D01*
X102821667Y-107834902D01*
X102890618Y-107829029D01*
X102958865Y-107799641D01*
X103002818Y-107740107D01*
X103026350Y-107644423D01*
X103033334Y-107506582D01*
X103031528Y-107433254D01*
X103013501Y-107294833D01*
X102976308Y-107201233D01*
X102920159Y-107153116D01*
X102863449Y-107139579D01*
X102764686Y-107145925D01*
X102681240Y-107185223D01*
X102661268Y-107203244D01*
X102640105Y-107234422D01*
X102627021Y-107280833D01*
X102619251Y-107354000D01*
X102614032Y-107465448D01*
X102611759Y-107539428D01*
X102348696Y-107539428D01*
X102348530Y-107503149D01*
X102348753Y-107438324D01*
X102352570Y-107287538D01*
X102363203Y-107174896D01*
X102383335Y-107091885D01*
X102415653Y-107029991D01*
X102462842Y-106980700D01*
X102527588Y-106935499D01*
X102580091Y-106909560D01*
X102704571Y-106880953D01*
X102835781Y-106884851D01*
X102952402Y-106921935D01*
X103002453Y-106946176D01*
X103027626Y-106948681D01*
X103033334Y-106926620D01*
X103033339Y-106925952D01*
X103045640Y-106903426D01*
X103088065Y-106891879D01*
X103170295Y-106888628D01*
X103307255Y-106888628D01*
X103307255Y-107506582D01*
X103307255Y-109979073D01*
G36*
X103307255Y-109979073D02*
G01*
X103176520Y-109971547D01*
X103045785Y-109964020D01*
X103039569Y-109565588D01*
X103037730Y-109468704D01*
X103032510Y-109323146D01*
X103023550Y-109216334D01*
X103009203Y-109141087D01*
X102987821Y-109090227D01*
X102957759Y-109056574D01*
X102917367Y-109032947D01*
X102841578Y-109008818D01*
X102766207Y-109018194D01*
X102686617Y-109069763D01*
X102610000Y-109134231D01*
X102610000Y-109976471D01*
X102336079Y-109976471D01*
X102336079Y-109519701D01*
X102336342Y-109376531D01*
X102337799Y-109249309D01*
X102341301Y-109156184D01*
X102347697Y-109088713D01*
X102357835Y-109038454D01*
X102372563Y-108996966D01*
X102392729Y-108955805D01*
X102397510Y-108947066D01*
X102461101Y-108861954D01*
X102535527Y-108802476D01*
X102625255Y-108771245D01*
X102744072Y-108757342D01*
X102863059Y-108764872D01*
X102959865Y-108794267D01*
X103033334Y-108832259D01*
X103033334Y-108010015D01*
X102932667Y-108062486D01*
X102890616Y-108081549D01*
X102757886Y-108108506D01*
X102625979Y-108089874D01*
X102503705Y-108027929D01*
X102399872Y-107924943D01*
X102383606Y-107900738D01*
X102367973Y-107865256D01*
X102357776Y-107817015D01*
X102351888Y-107746757D01*
X102349182Y-107645221D01*
X102348696Y-107539428D01*
X102611759Y-107539428D01*
X102611981Y-107627779D01*
X102618735Y-107686700D01*
X102633916Y-107728752D01*
X102659417Y-107766499D01*
X102691811Y-107801594D01*
X102743614Y-107828154D01*
X102821667Y-107834902D01*
X102890618Y-107829029D01*
X102958865Y-107799641D01*
X103002818Y-107740107D01*
X103026350Y-107644423D01*
X103033334Y-107506582D01*
X103031528Y-107433254D01*
X103013501Y-107294833D01*
X102976308Y-107201233D01*
X102920159Y-107153116D01*
X102863449Y-107139579D01*
X102764686Y-107145925D01*
X102681240Y-107185223D01*
X102661268Y-107203244D01*
X102640105Y-107234422D01*
X102627021Y-107280833D01*
X102619251Y-107354000D01*
X102614032Y-107465448D01*
X102611759Y-107539428D01*
X102348696Y-107539428D01*
X102348530Y-107503149D01*
X102348753Y-107438324D01*
X102352570Y-107287538D01*
X102363203Y-107174896D01*
X102383335Y-107091885D01*
X102415653Y-107029991D01*
X102462842Y-106980700D01*
X102527588Y-106935499D01*
X102580091Y-106909560D01*
X102704571Y-106880953D01*
X102835781Y-106884851D01*
X102952402Y-106921935D01*
X103002453Y-106946176D01*
X103027626Y-106948681D01*
X103033334Y-106926620D01*
X103033339Y-106925952D01*
X103045640Y-106903426D01*
X103088065Y-106891879D01*
X103170295Y-106888628D01*
X103307255Y-106888628D01*
X103307255Y-107506582D01*
X103307255Y-109979073D01*
G37*
X104473818Y-107554666D02*
X104470603Y-107632653D01*
X104463305Y-107727754D01*
X104450873Y-107795160D01*
X104430343Y-107848570D01*
X104398751Y-107901685D01*
X104397406Y-107903699D01*
X104319616Y-107989755D01*
X104224438Y-108055391D01*
X104113760Y-108094339D01*
X103968163Y-108106985D01*
X103825463Y-108082119D01*
X103697909Y-108022198D01*
X103597753Y-107929681D01*
X103568999Y-107885967D01*
X103515301Y-107750073D01*
X103488670Y-107582408D01*
X103489125Y-107539997D01*
X103756763Y-107539997D01*
X103757267Y-107619314D01*
X103765677Y-107672267D01*
X103784838Y-107712956D01*
X103817598Y-107755479D01*
X103863058Y-107797676D01*
X103953980Y-107835333D01*
X104051608Y-107828338D01*
X104144914Y-107776002D01*
X104171234Y-107751006D01*
X104199336Y-107708214D01*
X104214920Y-107648068D01*
X104223753Y-107554348D01*
X104226186Y-107483944D01*
X104212856Y-107340168D01*
X104171947Y-107237231D01*
X104103281Y-107174567D01*
X104022789Y-107144560D01*
X103926794Y-107147086D01*
X103837811Y-107197746D01*
X103816538Y-107217031D01*
X103789693Y-107250774D01*
X103773766Y-107294920D01*
X103764929Y-107362601D01*
X103759355Y-107466950D01*
X103756763Y-107539997D01*
X103489125Y-107539997D01*
X103490724Y-107391126D01*
X103493345Y-107363996D01*
X103529918Y-107190229D01*
X103597581Y-107055334D01*
X103696478Y-106959163D01*
X103826753Y-106901568D01*
X103988550Y-106882402D01*
X104049679Y-106884201D01*
X104175039Y-106906211D01*
X104277546Y-106958746D01*
X104373115Y-107048686D01*
X104388400Y-107066737D01*
X104429624Y-107127530D01*
X104456717Y-107196367D01*
X104471740Y-107283600D01*
X104476754Y-107399582D01*
X104475156Y-107483944D01*
X104473818Y-107554666D01*
G36*
X104473818Y-107554666D02*
G01*
X104470603Y-107632653D01*
X104463305Y-107727754D01*
X104450873Y-107795160D01*
X104430343Y-107848570D01*
X104398751Y-107901685D01*
X104397406Y-107903699D01*
X104319616Y-107989755D01*
X104224438Y-108055391D01*
X104113760Y-108094339D01*
X103968163Y-108106985D01*
X103825463Y-108082119D01*
X103697909Y-108022198D01*
X103597753Y-107929681D01*
X103568999Y-107885967D01*
X103515301Y-107750073D01*
X103488670Y-107582408D01*
X103489125Y-107539997D01*
X103756763Y-107539997D01*
X103757267Y-107619314D01*
X103765677Y-107672267D01*
X103784838Y-107712956D01*
X103817598Y-107755479D01*
X103863058Y-107797676D01*
X103953980Y-107835333D01*
X104051608Y-107828338D01*
X104144914Y-107776002D01*
X104171234Y-107751006D01*
X104199336Y-107708214D01*
X104214920Y-107648068D01*
X104223753Y-107554348D01*
X104226186Y-107483944D01*
X104212856Y-107340168D01*
X104171947Y-107237231D01*
X104103281Y-107174567D01*
X104022789Y-107144560D01*
X103926794Y-107147086D01*
X103837811Y-107197746D01*
X103816538Y-107217031D01*
X103789693Y-107250774D01*
X103773766Y-107294920D01*
X103764929Y-107362601D01*
X103759355Y-107466950D01*
X103756763Y-107539997D01*
X103489125Y-107539997D01*
X103490724Y-107391126D01*
X103493345Y-107363996D01*
X103529918Y-107190229D01*
X103597581Y-107055334D01*
X103696478Y-106959163D01*
X103826753Y-106901568D01*
X103988550Y-106882402D01*
X104049679Y-106884201D01*
X104175039Y-106906211D01*
X104277546Y-106958746D01*
X104373115Y-107048686D01*
X104388400Y-107066737D01*
X104429624Y-107127530D01*
X104456717Y-107196367D01*
X104471740Y-107283600D01*
X104476754Y-107399582D01*
X104475156Y-107483944D01*
X104473818Y-107554666D01*
G37*
X94707341Y-106894329D02*
X94843218Y-106947267D01*
X94958135Y-107034655D01*
X95043013Y-107154680D01*
X95048745Y-107166918D01*
X95085135Y-107286281D01*
X95103316Y-107428864D01*
X95103173Y-107577318D01*
X95084590Y-107714297D01*
X95047452Y-107822451D01*
X95001599Y-107897831D01*
X94900669Y-108004620D01*
X94774469Y-108072500D01*
X94666497Y-108099950D01*
X94502088Y-108102947D01*
X94344764Y-108061549D01*
X94205251Y-107977546D01*
X94114954Y-107903116D01*
X94196284Y-107819205D01*
X94247665Y-107769496D01*
X94294141Y-107741820D01*
X94337235Y-107747914D01*
X94392353Y-107785098D01*
X94414331Y-107799655D01*
X94507178Y-107829449D01*
X94613895Y-107829431D01*
X94713808Y-107798723D01*
X94751429Y-107774064D01*
X94806613Y-107701245D01*
X94834278Y-107594290D01*
X94836058Y-107448517D01*
X94836053Y-107448435D01*
X94815470Y-107318014D01*
X94770128Y-107227587D01*
X94695518Y-107171652D01*
X94587128Y-107144704D01*
X94518871Y-107141079D01*
X94459231Y-107155921D01*
X94398065Y-107198918D01*
X94318912Y-107265520D01*
X94218672Y-107184965D01*
X94182050Y-107154105D01*
X94136307Y-107109889D01*
X94118432Y-107083832D01*
X94124762Y-107072089D01*
X94161221Y-107036036D01*
X94219301Y-106990185D01*
X94264744Y-106960348D01*
X94409024Y-106899056D01*
X94559583Y-106877654D01*
X94707341Y-106894329D01*
G36*
X94707341Y-106894329D02*
G01*
X94843218Y-106947267D01*
X94958135Y-107034655D01*
X95043013Y-107154680D01*
X95048745Y-107166918D01*
X95085135Y-107286281D01*
X95103316Y-107428864D01*
X95103173Y-107577318D01*
X95084590Y-107714297D01*
X95047452Y-107822451D01*
X95001599Y-107897831D01*
X94900669Y-108004620D01*
X94774469Y-108072500D01*
X94666497Y-108099950D01*
X94502088Y-108102947D01*
X94344764Y-108061549D01*
X94205251Y-107977546D01*
X94114954Y-107903116D01*
X94196284Y-107819205D01*
X94247665Y-107769496D01*
X94294141Y-107741820D01*
X94337235Y-107747914D01*
X94392353Y-107785098D01*
X94414331Y-107799655D01*
X94507178Y-107829449D01*
X94613895Y-107829431D01*
X94713808Y-107798723D01*
X94751429Y-107774064D01*
X94806613Y-107701245D01*
X94834278Y-107594290D01*
X94836058Y-107448517D01*
X94836053Y-107448435D01*
X94815470Y-107318014D01*
X94770128Y-107227587D01*
X94695518Y-107171652D01*
X94587128Y-107144704D01*
X94518871Y-107141079D01*
X94459231Y-107155921D01*
X94398065Y-107198918D01*
X94318912Y-107265520D01*
X94218672Y-107184965D01*
X94182050Y-107154105D01*
X94136307Y-107109889D01*
X94118432Y-107083832D01*
X94124762Y-107072089D01*
X94161221Y-107036036D01*
X94219301Y-106990185D01*
X94264744Y-106960348D01*
X94409024Y-106899056D01*
X94559583Y-106877654D01*
X94707341Y-106894329D01*
G37*
X95362740Y-109366373D02*
X95359502Y-109459330D01*
X95330010Y-109637105D01*
X95269329Y-109776892D01*
X95176922Y-109879689D01*
X95052255Y-109946496D01*
X95011976Y-109958300D01*
X94868153Y-109974786D01*
X94716289Y-109960873D01*
X94579118Y-109917935D01*
X94530794Y-109893565D01*
X94461507Y-109851819D01*
X94419517Y-109817468D01*
X94413317Y-109809620D01*
X94401719Y-109780917D01*
X94418430Y-109749714D01*
X94469321Y-109702459D01*
X94493880Y-109681887D01*
X94542260Y-109644242D01*
X94567627Y-109628855D01*
X94574894Y-109630440D01*
X94616544Y-109647574D01*
X94678726Y-109677647D01*
X94699000Y-109687540D01*
X94818600Y-109724275D01*
X94922506Y-109714805D01*
X95013621Y-109658971D01*
X95024222Y-109648654D01*
X95074909Y-109584031D01*
X95103870Y-109522010D01*
X95119909Y-109453530D01*
X94367451Y-109453530D01*
X94367590Y-109322794D01*
X94367670Y-109309792D01*
X94377829Y-109204903D01*
X94641373Y-109204903D01*
X94644485Y-109226657D01*
X94660462Y-109241649D01*
X94698543Y-109249970D01*
X94767960Y-109253549D01*
X94877942Y-109254314D01*
X94939086Y-109253521D01*
X95029338Y-109248888D01*
X95091416Y-109241038D01*
X95114510Y-109231033D01*
X95094814Y-109148677D01*
X95037151Y-109071811D01*
X94953984Y-109018484D01*
X94857911Y-109000038D01*
X94787178Y-109020832D01*
X94716471Y-109071664D01*
X94662722Y-109137892D01*
X94641373Y-109204903D01*
X94377829Y-109204903D01*
X94383248Y-109148950D01*
X94428592Y-109018106D01*
X94507712Y-108905313D01*
X94555979Y-108857600D01*
X94655663Y-108793731D01*
X94774693Y-108762784D01*
X94925043Y-108760607D01*
X94997668Y-108769139D01*
X95131727Y-108813440D01*
X95234365Y-108894069D01*
X95306480Y-109012271D01*
X95348972Y-109169291D01*
X95353286Y-109231033D01*
X95362740Y-109366373D01*
G36*
X95362740Y-109366373D02*
G01*
X95359502Y-109459330D01*
X95330010Y-109637105D01*
X95269329Y-109776892D01*
X95176922Y-109879689D01*
X95052255Y-109946496D01*
X95011976Y-109958300D01*
X94868153Y-109974786D01*
X94716289Y-109960873D01*
X94579118Y-109917935D01*
X94530794Y-109893565D01*
X94461507Y-109851819D01*
X94419517Y-109817468D01*
X94413317Y-109809620D01*
X94401719Y-109780917D01*
X94418430Y-109749714D01*
X94469321Y-109702459D01*
X94493880Y-109681887D01*
X94542260Y-109644242D01*
X94567627Y-109628855D01*
X94574894Y-109630440D01*
X94616544Y-109647574D01*
X94678726Y-109677647D01*
X94699000Y-109687540D01*
X94818600Y-109724275D01*
X94922506Y-109714805D01*
X95013621Y-109658971D01*
X95024222Y-109648654D01*
X95074909Y-109584031D01*
X95103870Y-109522010D01*
X95119909Y-109453530D01*
X94367451Y-109453530D01*
X94367590Y-109322794D01*
X94367670Y-109309792D01*
X94377829Y-109204903D01*
X94641373Y-109204903D01*
X94644485Y-109226657D01*
X94660462Y-109241649D01*
X94698543Y-109249970D01*
X94767960Y-109253549D01*
X94877942Y-109254314D01*
X94939086Y-109253521D01*
X95029338Y-109248888D01*
X95091416Y-109241038D01*
X95114510Y-109231033D01*
X95094814Y-109148677D01*
X95037151Y-109071811D01*
X94953984Y-109018484D01*
X94857911Y-109000038D01*
X94787178Y-109020832D01*
X94716471Y-109071664D01*
X94662722Y-109137892D01*
X94641373Y-109204903D01*
X94377829Y-109204903D01*
X94383248Y-109148950D01*
X94428592Y-109018106D01*
X94507712Y-108905313D01*
X94555979Y-108857600D01*
X94655663Y-108793731D01*
X94774693Y-108762784D01*
X94925043Y-108760607D01*
X94997668Y-108769139D01*
X95131727Y-108813440D01*
X95234365Y-108894069D01*
X95306480Y-109012271D01*
X95348972Y-109169291D01*
X95353286Y-109231033D01*
X95362740Y-109366373D01*
G37*
X94085566Y-107406032D02*
X94082360Y-107596632D01*
X94081943Y-107600380D01*
X94046139Y-107775271D01*
X93981449Y-107911247D01*
X93885859Y-108011296D01*
X93757353Y-108078405D01*
X93733764Y-108086079D01*
X93587551Y-108108696D01*
X93436334Y-108096084D01*
X93295750Y-108051017D01*
X93181437Y-107976269D01*
X93095812Y-107897157D01*
X93186827Y-107825191D01*
X93277842Y-107753224D01*
X93387528Y-107806514D01*
X93514445Y-107849695D01*
X93626488Y-107850987D01*
X93718157Y-107811314D01*
X93784123Y-107731683D01*
X93807771Y-107683968D01*
X93820972Y-107643189D01*
X93813334Y-107615641D01*
X93779063Y-107598731D01*
X93712368Y-107589864D01*
X93607454Y-107586445D01*
X93458530Y-107585882D01*
X93097451Y-107585882D01*
X93097451Y-107413190D01*
X93100149Y-107337376D01*
X93354385Y-107337376D01*
X93366595Y-107351321D01*
X93402748Y-107358578D01*
X93471463Y-107361332D01*
X93581362Y-107361765D01*
X93640294Y-107361073D01*
X93733290Y-107356500D01*
X93796373Y-107348491D01*
X93819608Y-107338035D01*
X93813663Y-107299456D01*
X93771762Y-107225634D01*
X93701938Y-107164990D01*
X93618699Y-107128362D01*
X93536554Y-107126589D01*
X93474721Y-107155960D01*
X93404656Y-107222800D01*
X93360106Y-107305735D01*
X93357496Y-107314562D01*
X93354385Y-107337376D01*
X93100149Y-107337376D01*
X93100702Y-107321853D01*
X93110246Y-107231484D01*
X93123881Y-107170396D01*
X93133820Y-107147074D01*
X93206166Y-107043202D01*
X93310700Y-106956569D01*
X93432949Y-106899845D01*
X93496713Y-106884355D01*
X93648645Y-106877304D01*
X93784022Y-106913174D01*
X93899122Y-106987974D01*
X93990227Y-107097711D01*
X94053615Y-107238395D01*
X94072607Y-107338035D01*
X94085566Y-107406032D01*
G36*
X94085566Y-107406032D02*
G01*
X94082360Y-107596632D01*
X94081943Y-107600380D01*
X94046139Y-107775271D01*
X93981449Y-107911247D01*
X93885859Y-108011296D01*
X93757353Y-108078405D01*
X93733764Y-108086079D01*
X93587551Y-108108696D01*
X93436334Y-108096084D01*
X93295750Y-108051017D01*
X93181437Y-107976269D01*
X93095812Y-107897157D01*
X93186827Y-107825191D01*
X93277842Y-107753224D01*
X93387528Y-107806514D01*
X93514445Y-107849695D01*
X93626488Y-107850987D01*
X93718157Y-107811314D01*
X93784123Y-107731683D01*
X93807771Y-107683968D01*
X93820972Y-107643189D01*
X93813334Y-107615641D01*
X93779063Y-107598731D01*
X93712368Y-107589864D01*
X93607454Y-107586445D01*
X93458530Y-107585882D01*
X93097451Y-107585882D01*
X93097451Y-107413190D01*
X93100149Y-107337376D01*
X93354385Y-107337376D01*
X93366595Y-107351321D01*
X93402748Y-107358578D01*
X93471463Y-107361332D01*
X93581362Y-107361765D01*
X93640294Y-107361073D01*
X93733290Y-107356500D01*
X93796373Y-107348491D01*
X93819608Y-107338035D01*
X93813663Y-107299456D01*
X93771762Y-107225634D01*
X93701938Y-107164990D01*
X93618699Y-107128362D01*
X93536554Y-107126589D01*
X93474721Y-107155960D01*
X93404656Y-107222800D01*
X93360106Y-107305735D01*
X93357496Y-107314562D01*
X93354385Y-107337376D01*
X93100149Y-107337376D01*
X93100702Y-107321853D01*
X93110246Y-107231484D01*
X93123881Y-107170396D01*
X93133820Y-107147074D01*
X93206166Y-107043202D01*
X93310700Y-106956569D01*
X93432949Y-106899845D01*
X93496713Y-106884355D01*
X93648645Y-106877304D01*
X93784022Y-106913174D01*
X93899122Y-106987974D01*
X93990227Y-107097711D01*
X94053615Y-107238395D01*
X94072607Y-107338035D01*
X94085566Y-107406032D01*
G37*
X91907002Y-121214242D02*
X91941247Y-121235142D01*
X91976729Y-121263873D01*
X91976729Y-122125871D01*
X91941247Y-122154602D01*
X91899495Y-122177867D01*
X91851832Y-122178980D01*
X91809976Y-122151696D01*
X91804815Y-122145486D01*
X91797538Y-122132881D01*
X91791937Y-122114666D01*
X91787794Y-122087347D01*
X91784892Y-122047433D01*
X91783014Y-121991430D01*
X91781941Y-121915847D01*
X91781457Y-121817190D01*
X91781344Y-121691966D01*
X91781344Y-121263873D01*
X91816826Y-121235142D01*
X91848396Y-121215477D01*
X91879037Y-121206410D01*
X91907002Y-121214242D01*
G36*
X91907002Y-121214242D02*
G01*
X91941247Y-121235142D01*
X91976729Y-121263873D01*
X91976729Y-122125871D01*
X91941247Y-122154602D01*
X91899495Y-122177867D01*
X91851832Y-122178980D01*
X91809976Y-122151696D01*
X91804815Y-122145486D01*
X91797538Y-122132881D01*
X91791937Y-122114666D01*
X91787794Y-122087347D01*
X91784892Y-122047433D01*
X91783014Y-121991430D01*
X91781941Y-121915847D01*
X91781457Y-121817190D01*
X91781344Y-121691966D01*
X91781344Y-121263873D01*
X91816826Y-121235142D01*
X91848396Y-121215477D01*
X91879037Y-121206410D01*
X91907002Y-121214242D01*
G37*
X99198184Y-121204846D02*
X99213372Y-121213017D01*
X99227416Y-121227212D01*
X99242443Y-121246011D01*
X99248371Y-121253948D01*
X99256357Y-121267920D01*
X99262454Y-121286327D01*
X99266916Y-121312827D01*
X99269997Y-121351083D01*
X99271951Y-121404755D01*
X99273033Y-121477503D01*
X99273495Y-121572988D01*
X99273593Y-121694872D01*
X99273562Y-121772797D01*
X99273272Y-121878091D01*
X99272461Y-121959227D01*
X99270875Y-122019866D01*
X99268262Y-122063669D01*
X99264366Y-122094296D01*
X99258933Y-122115409D01*
X99251710Y-122130667D01*
X99242443Y-122143733D01*
X99201931Y-122176209D01*
X99155410Y-122180042D01*
X99106175Y-122154626D01*
X99100605Y-122150000D01*
X99089720Y-122138646D01*
X99081651Y-122123268D01*
X99075816Y-122099526D01*
X99071633Y-122063084D01*
X99068521Y-122009604D01*
X99065897Y-121934747D01*
X99063179Y-121834177D01*
X99055664Y-121542435D01*
X98702469Y-121862814D01*
X98604169Y-121951718D01*
X98517391Y-122029091D01*
X98447902Y-122088946D01*
X98393217Y-122132777D01*
X98350854Y-122162077D01*
X98318332Y-122178340D01*
X98293166Y-122183060D01*
X98272875Y-122177731D01*
X98254976Y-122163846D01*
X98236987Y-122142899D01*
X98228672Y-122131605D01*
X98221174Y-122117523D01*
X98215568Y-122098673D01*
X98211638Y-122071443D01*
X98209168Y-122032221D01*
X98207944Y-121977394D01*
X98207751Y-121903348D01*
X98208373Y-121806471D01*
X98209594Y-121683150D01*
X98214007Y-121263835D01*
X98249489Y-121235123D01*
X98284191Y-121213566D01*
X98327937Y-121209877D01*
X98373910Y-121235110D01*
X98379651Y-121239882D01*
X98390478Y-121251238D01*
X98398505Y-121266671D01*
X98404310Y-121290510D01*
X98408474Y-121327084D01*
X98411576Y-121380722D01*
X98414193Y-121455754D01*
X98416906Y-121556508D01*
X98424421Y-121849207D01*
X98664895Y-121631138D01*
X98780374Y-121526448D01*
X98881253Y-121435392D01*
X98963979Y-121361702D01*
X99030678Y-121303960D01*
X99083476Y-121260749D01*
X99124499Y-121230649D01*
X99155874Y-121212244D01*
X99179727Y-121204116D01*
X99198184Y-121204846D01*
G36*
X99198184Y-121204846D02*
G01*
X99213372Y-121213017D01*
X99227416Y-121227212D01*
X99242443Y-121246011D01*
X99248371Y-121253948D01*
X99256357Y-121267920D01*
X99262454Y-121286327D01*
X99266916Y-121312827D01*
X99269997Y-121351083D01*
X99271951Y-121404755D01*
X99273033Y-121477503D01*
X99273495Y-121572988D01*
X99273593Y-121694872D01*
X99273562Y-121772797D01*
X99273272Y-121878091D01*
X99272461Y-121959227D01*
X99270875Y-122019866D01*
X99268262Y-122063669D01*
X99264366Y-122094296D01*
X99258933Y-122115409D01*
X99251710Y-122130667D01*
X99242443Y-122143733D01*
X99201931Y-122176209D01*
X99155410Y-122180042D01*
X99106175Y-122154626D01*
X99100605Y-122150000D01*
X99089720Y-122138646D01*
X99081651Y-122123268D01*
X99075816Y-122099526D01*
X99071633Y-122063084D01*
X99068521Y-122009604D01*
X99065897Y-121934747D01*
X99063179Y-121834177D01*
X99055664Y-121542435D01*
X98702469Y-121862814D01*
X98604169Y-121951718D01*
X98517391Y-122029091D01*
X98447902Y-122088946D01*
X98393217Y-122132777D01*
X98350854Y-122162077D01*
X98318332Y-122178340D01*
X98293166Y-122183060D01*
X98272875Y-122177731D01*
X98254976Y-122163846D01*
X98236987Y-122142899D01*
X98228672Y-122131605D01*
X98221174Y-122117523D01*
X98215568Y-122098673D01*
X98211638Y-122071443D01*
X98209168Y-122032221D01*
X98207944Y-121977394D01*
X98207751Y-121903348D01*
X98208373Y-121806471D01*
X98209594Y-121683150D01*
X98214007Y-121263835D01*
X98249489Y-121235123D01*
X98284191Y-121213566D01*
X98327937Y-121209877D01*
X98373910Y-121235110D01*
X98379651Y-121239882D01*
X98390478Y-121251238D01*
X98398505Y-121266671D01*
X98404310Y-121290510D01*
X98408474Y-121327084D01*
X98411576Y-121380722D01*
X98414193Y-121455754D01*
X98416906Y-121556508D01*
X98424421Y-121849207D01*
X98664895Y-121631138D01*
X98780374Y-121526448D01*
X98881253Y-121435392D01*
X98963979Y-121361702D01*
X99030678Y-121303960D01*
X99083476Y-121260749D01*
X99124499Y-121230649D01*
X99155874Y-121212244D01*
X99179727Y-121204116D01*
X99198184Y-121204846D01*
G37*
X92485208Y-121218940D02*
X92509119Y-121243585D01*
X92536546Y-121284966D01*
X92569607Y-121345790D01*
X92610420Y-121428763D01*
X92661104Y-121536594D01*
X92680587Y-121578376D01*
X92720193Y-121662496D01*
X92754935Y-121735196D01*
X92782886Y-121792507D01*
X92802120Y-121830455D01*
X92810711Y-121845069D01*
X92812520Y-121844296D01*
X92825823Y-121825727D01*
X92848844Y-121786401D01*
X92878928Y-121730994D01*
X92913422Y-121664180D01*
X92934687Y-121622258D01*
X92973230Y-121548562D01*
X93003170Y-121496617D01*
X93027422Y-121462697D01*
X93048898Y-121443079D01*
X93070512Y-121434040D01*
X93095177Y-121431854D01*
X93109160Y-121432487D01*
X93130616Y-121438088D01*
X93151005Y-121452552D01*
X93173103Y-121479542D01*
X93199689Y-121522725D01*
X93233540Y-121585765D01*
X93277434Y-121672328D01*
X93290392Y-121697963D01*
X93322954Y-121760096D01*
X93349895Y-121808241D01*
X93368710Y-121838049D01*
X93376897Y-121845168D01*
X93378717Y-121840813D01*
X93391198Y-121812975D01*
X93413646Y-121763796D01*
X93444156Y-121697426D01*
X93480823Y-121618014D01*
X93521742Y-121529707D01*
X93557309Y-121453525D01*
X93596749Y-121370995D01*
X93627465Y-121310100D01*
X93651401Y-121267442D01*
X93670502Y-121239625D01*
X93686713Y-121223253D01*
X93701978Y-121214931D01*
X93714506Y-121211080D01*
X93747930Y-121210882D01*
X93784067Y-121231308D01*
X93785798Y-121232620D01*
X93815200Y-121262756D01*
X93829909Y-121292345D01*
X93829971Y-121293197D01*
X93823926Y-121316711D01*
X93806799Y-121362731D01*
X93780493Y-121427096D01*
X93746910Y-121505645D01*
X93707952Y-121594221D01*
X93665522Y-121688661D01*
X93621522Y-121784807D01*
X93577854Y-121878499D01*
X93536420Y-121965576D01*
X93499123Y-122041880D01*
X93467864Y-122103249D01*
X93444546Y-122145525D01*
X93431071Y-122164547D01*
X93385262Y-122182345D01*
X93329748Y-122173876D01*
X93322606Y-122167622D01*
X93301532Y-122138131D01*
X93271973Y-122089190D01*
X93236803Y-122025661D01*
X93198894Y-121952407D01*
X93092686Y-121740397D01*
X92995248Y-121935563D01*
X92982340Y-121961246D01*
X92946421Y-122030940D01*
X92914431Y-122090571D01*
X92889449Y-122134486D01*
X92874556Y-122157032D01*
X92873030Y-122158687D01*
X92835591Y-122179039D01*
X92788911Y-122181280D01*
X92747584Y-122164547D01*
X92744354Y-122160754D01*
X92728031Y-122133294D01*
X92701754Y-122083300D01*
X92667266Y-122014298D01*
X92626310Y-121929814D01*
X92580630Y-121833373D01*
X92531969Y-121728503D01*
X92505022Y-121669759D01*
X92456064Y-121562281D01*
X92418178Y-121477502D01*
X92390187Y-121412353D01*
X92370912Y-121363764D01*
X92359178Y-121328667D01*
X92353805Y-121303992D01*
X92353616Y-121286672D01*
X92357434Y-121273636D01*
X92376948Y-121245834D01*
X92412366Y-121218806D01*
X92413372Y-121218350D01*
X92439453Y-121209030D01*
X92462692Y-121208324D01*
X92485208Y-121218940D01*
G36*
X92485208Y-121218940D02*
G01*
X92509119Y-121243585D01*
X92536546Y-121284966D01*
X92569607Y-121345790D01*
X92610420Y-121428763D01*
X92661104Y-121536594D01*
X92680587Y-121578376D01*
X92720193Y-121662496D01*
X92754935Y-121735196D01*
X92782886Y-121792507D01*
X92802120Y-121830455D01*
X92810711Y-121845069D01*
X92812520Y-121844296D01*
X92825823Y-121825727D01*
X92848844Y-121786401D01*
X92878928Y-121730994D01*
X92913422Y-121664180D01*
X92934687Y-121622258D01*
X92973230Y-121548562D01*
X93003170Y-121496617D01*
X93027422Y-121462697D01*
X93048898Y-121443079D01*
X93070512Y-121434040D01*
X93095177Y-121431854D01*
X93109160Y-121432487D01*
X93130616Y-121438088D01*
X93151005Y-121452552D01*
X93173103Y-121479542D01*
X93199689Y-121522725D01*
X93233540Y-121585765D01*
X93277434Y-121672328D01*
X93290392Y-121697963D01*
X93322954Y-121760096D01*
X93349895Y-121808241D01*
X93368710Y-121838049D01*
X93376897Y-121845168D01*
X93378717Y-121840813D01*
X93391198Y-121812975D01*
X93413646Y-121763796D01*
X93444156Y-121697426D01*
X93480823Y-121618014D01*
X93521742Y-121529707D01*
X93557309Y-121453525D01*
X93596749Y-121370995D01*
X93627465Y-121310100D01*
X93651401Y-121267442D01*
X93670502Y-121239625D01*
X93686713Y-121223253D01*
X93701978Y-121214931D01*
X93714506Y-121211080D01*
X93747930Y-121210882D01*
X93784067Y-121231308D01*
X93785798Y-121232620D01*
X93815200Y-121262756D01*
X93829909Y-121292345D01*
X93829971Y-121293197D01*
X93823926Y-121316711D01*
X93806799Y-121362731D01*
X93780493Y-121427096D01*
X93746910Y-121505645D01*
X93707952Y-121594221D01*
X93665522Y-121688661D01*
X93621522Y-121784807D01*
X93577854Y-121878499D01*
X93536420Y-121965576D01*
X93499123Y-122041880D01*
X93467864Y-122103249D01*
X93444546Y-122145525D01*
X93431071Y-122164547D01*
X93385262Y-122182345D01*
X93329748Y-122173876D01*
X93322606Y-122167622D01*
X93301532Y-122138131D01*
X93271973Y-122089190D01*
X93236803Y-122025661D01*
X93198894Y-121952407D01*
X93092686Y-121740397D01*
X92995248Y-121935563D01*
X92982340Y-121961246D01*
X92946421Y-122030940D01*
X92914431Y-122090571D01*
X92889449Y-122134486D01*
X92874556Y-122157032D01*
X92873030Y-122158687D01*
X92835591Y-122179039D01*
X92788911Y-122181280D01*
X92747584Y-122164547D01*
X92744354Y-122160754D01*
X92728031Y-122133294D01*
X92701754Y-122083300D01*
X92667266Y-122014298D01*
X92626310Y-121929814D01*
X92580630Y-121833373D01*
X92531969Y-121728503D01*
X92505022Y-121669759D01*
X92456064Y-121562281D01*
X92418178Y-121477502D01*
X92390187Y-121412353D01*
X92370912Y-121363764D01*
X92359178Y-121328667D01*
X92353805Y-121303992D01*
X92353616Y-121286672D01*
X92357434Y-121273636D01*
X92376948Y-121245834D01*
X92412366Y-121218806D01*
X92413372Y-121218350D01*
X92439453Y-121209030D01*
X92462692Y-121208324D01*
X92485208Y-121218940D01*
G37*
X90975531Y-121206412D02*
X91100843Y-121206532D01*
X91200048Y-121206984D01*
X91276478Y-121207972D01*
X91333459Y-121209697D01*
X91374323Y-121212361D01*
X91402397Y-121216169D01*
X91421012Y-121221321D01*
X91433496Y-121228020D01*
X91443179Y-121236470D01*
X91468216Y-121280029D01*
X91470142Y-121330057D01*
X91448364Y-121374310D01*
X91446553Y-121376245D01*
X91431638Y-121387376D01*
X91408868Y-121394771D01*
X91372696Y-121399157D01*
X91317573Y-121401256D01*
X91237950Y-121401795D01*
X91052409Y-121401795D01*
X91052409Y-121752963D01*
X91052309Y-121853918D01*
X91051766Y-121942674D01*
X91050458Y-122008955D01*
X91048067Y-122056773D01*
X91044271Y-122090146D01*
X91038752Y-122113086D01*
X91031188Y-122129610D01*
X91021259Y-122143733D01*
X91018210Y-122147469D01*
X90976700Y-122177614D01*
X90930929Y-122179696D01*
X90887084Y-122153274D01*
X90877793Y-122142523D01*
X90870508Y-122128412D01*
X90865156Y-122107319D01*
X90861440Y-122075398D01*
X90859064Y-122028802D01*
X90857734Y-121963685D01*
X90857153Y-121876201D01*
X90857025Y-121762505D01*
X90857025Y-121401795D01*
X90662731Y-121401795D01*
X90647953Y-121401794D01*
X90572708Y-121401494D01*
X90520992Y-121399977D01*
X90487185Y-121396250D01*
X90465668Y-121389318D01*
X90450821Y-121378186D01*
X90437024Y-121361860D01*
X90415926Y-121321003D01*
X90420056Y-121276029D01*
X90454197Y-121232712D01*
X90460775Y-121227763D01*
X90474369Y-121221325D01*
X90494906Y-121216314D01*
X90525689Y-121212557D01*
X90570020Y-121209876D01*
X90631201Y-121208096D01*
X90712535Y-121207043D01*
X90817323Y-121206539D01*
X90948867Y-121206410D01*
X90975531Y-121206412D01*
G36*
X90975531Y-121206412D02*
G01*
X91100843Y-121206532D01*
X91200048Y-121206984D01*
X91276478Y-121207972D01*
X91333459Y-121209697D01*
X91374323Y-121212361D01*
X91402397Y-121216169D01*
X91421012Y-121221321D01*
X91433496Y-121228020D01*
X91443179Y-121236470D01*
X91468216Y-121280029D01*
X91470142Y-121330057D01*
X91448364Y-121374310D01*
X91446553Y-121376245D01*
X91431638Y-121387376D01*
X91408868Y-121394771D01*
X91372696Y-121399157D01*
X91317573Y-121401256D01*
X91237950Y-121401795D01*
X91052409Y-121401795D01*
X91052409Y-121752963D01*
X91052309Y-121853918D01*
X91051766Y-121942674D01*
X91050458Y-122008955D01*
X91048067Y-122056773D01*
X91044271Y-122090146D01*
X91038752Y-122113086D01*
X91031188Y-122129610D01*
X91021259Y-122143733D01*
X91018210Y-122147469D01*
X90976700Y-122177614D01*
X90930929Y-122179696D01*
X90887084Y-122153274D01*
X90877793Y-122142523D01*
X90870508Y-122128412D01*
X90865156Y-122107319D01*
X90861440Y-122075398D01*
X90859064Y-122028802D01*
X90857734Y-121963685D01*
X90857153Y-121876201D01*
X90857025Y-121762505D01*
X90857025Y-121401795D01*
X90662731Y-121401795D01*
X90647953Y-121401794D01*
X90572708Y-121401494D01*
X90520992Y-121399977D01*
X90487185Y-121396250D01*
X90465668Y-121389318D01*
X90450821Y-121378186D01*
X90437024Y-121361860D01*
X90415926Y-121321003D01*
X90420056Y-121276029D01*
X90454197Y-121232712D01*
X90460775Y-121227763D01*
X90474369Y-121221325D01*
X90494906Y-121216314D01*
X90525689Y-121212557D01*
X90570020Y-121209876D01*
X90631201Y-121208096D01*
X90712535Y-121207043D01*
X90817323Y-121206539D01*
X90948867Y-121206410D01*
X90975531Y-121206412D01*
G37*
X100259621Y-121213217D02*
X100400754Y-121234938D01*
X100525652Y-121272285D01*
X100630557Y-121324083D01*
X100711709Y-121389162D01*
X100746418Y-121432913D01*
X100785703Y-121498414D01*
X100819349Y-121570119D01*
X100842847Y-121638241D01*
X100851688Y-121692993D01*
X100849611Y-121719241D01*
X100832381Y-121787583D01*
X100801543Y-121862840D01*
X100761746Y-121934622D01*
X100717640Y-121992542D01*
X100704065Y-122006319D01*
X100614750Y-122075250D01*
X100508074Y-122128362D01*
X100393297Y-122160849D01*
X100320120Y-122171649D01*
X100195700Y-122180442D01*
X100076170Y-122177663D01*
X99966346Y-122164023D01*
X99871044Y-122140232D01*
X99795079Y-122106998D01*
X99743267Y-122065033D01*
X99741436Y-122062403D01*
X99732000Y-122028818D01*
X99726356Y-121965910D01*
X99724480Y-121873428D01*
X99725625Y-121790574D01*
X99731909Y-121727491D01*
X99747472Y-121684750D01*
X99776455Y-121658719D01*
X99822998Y-121645764D01*
X99891241Y-121642253D01*
X99985324Y-121644554D01*
X100050055Y-121648564D01*
X100116884Y-121659471D01*
X100160145Y-121678181D01*
X100183389Y-121706453D01*
X100190167Y-121746048D01*
X100190026Y-121752094D01*
X100178440Y-121798417D01*
X100146475Y-121829594D01*
X100091536Y-121847168D01*
X100011031Y-121852683D01*
X99919865Y-121852683D01*
X99919865Y-121903743D01*
X99919932Y-121915906D01*
X99922888Y-121938873D01*
X99935226Y-121952578D01*
X99963692Y-121961814D01*
X100015031Y-121971376D01*
X100022319Y-121972620D01*
X100151395Y-121985805D01*
X100271206Y-121981918D01*
X100378924Y-121962307D01*
X100471718Y-121928317D01*
X100546760Y-121881293D01*
X100601220Y-121822581D01*
X100632270Y-121753527D01*
X100637079Y-121675478D01*
X100629732Y-121637008D01*
X100594207Y-121562599D01*
X100532713Y-121501810D01*
X100446199Y-121455431D01*
X100335614Y-121424252D01*
X100302763Y-121418329D01*
X100183834Y-121404351D01*
X100077582Y-121405987D01*
X99973613Y-121423209D01*
X99926824Y-121432248D01*
X99866330Y-121433603D01*
X99824639Y-121416919D01*
X99797807Y-121381256D01*
X99789308Y-121343649D01*
X99801938Y-121302078D01*
X99814358Y-121284204D01*
X99859936Y-121252875D01*
X99929995Y-121229082D01*
X100021216Y-121213776D01*
X100130279Y-121207909D01*
X100259621Y-121213217D01*
G36*
X100259621Y-121213217D02*
G01*
X100400754Y-121234938D01*
X100525652Y-121272285D01*
X100630557Y-121324083D01*
X100711709Y-121389162D01*
X100746418Y-121432913D01*
X100785703Y-121498414D01*
X100819349Y-121570119D01*
X100842847Y-121638241D01*
X100851688Y-121692993D01*
X100849611Y-121719241D01*
X100832381Y-121787583D01*
X100801543Y-121862840D01*
X100761746Y-121934622D01*
X100717640Y-121992542D01*
X100704065Y-122006319D01*
X100614750Y-122075250D01*
X100508074Y-122128362D01*
X100393297Y-122160849D01*
X100320120Y-122171649D01*
X100195700Y-122180442D01*
X100076170Y-122177663D01*
X99966346Y-122164023D01*
X99871044Y-122140232D01*
X99795079Y-122106998D01*
X99743267Y-122065033D01*
X99741436Y-122062403D01*
X99732000Y-122028818D01*
X99726356Y-121965910D01*
X99724480Y-121873428D01*
X99725625Y-121790574D01*
X99731909Y-121727491D01*
X99747472Y-121684750D01*
X99776455Y-121658719D01*
X99822998Y-121645764D01*
X99891241Y-121642253D01*
X99985324Y-121644554D01*
X100050055Y-121648564D01*
X100116884Y-121659471D01*
X100160145Y-121678181D01*
X100183389Y-121706453D01*
X100190167Y-121746048D01*
X100190026Y-121752094D01*
X100178440Y-121798417D01*
X100146475Y-121829594D01*
X100091536Y-121847168D01*
X100011031Y-121852683D01*
X99919865Y-121852683D01*
X99919865Y-121903743D01*
X99919932Y-121915906D01*
X99922888Y-121938873D01*
X99935226Y-121952578D01*
X99963692Y-121961814D01*
X100015031Y-121971376D01*
X100022319Y-121972620D01*
X100151395Y-121985805D01*
X100271206Y-121981918D01*
X100378924Y-121962307D01*
X100471718Y-121928317D01*
X100546760Y-121881293D01*
X100601220Y-121822581D01*
X100632270Y-121753527D01*
X100637079Y-121675478D01*
X100629732Y-121637008D01*
X100594207Y-121562599D01*
X100532713Y-121501810D01*
X100446199Y-121455431D01*
X100335614Y-121424252D01*
X100302763Y-121418329D01*
X100183834Y-121404351D01*
X100077582Y-121405987D01*
X99973613Y-121423209D01*
X99926824Y-121432248D01*
X99866330Y-121433603D01*
X99824639Y-121416919D01*
X99797807Y-121381256D01*
X99789308Y-121343649D01*
X99801938Y-121302078D01*
X99814358Y-121284204D01*
X99859936Y-121252875D01*
X99929995Y-121229082D01*
X100021216Y-121213776D01*
X100130279Y-121207909D01*
X100259621Y-121213217D01*
G37*
X102538515Y-121207568D02*
X102626713Y-121214797D01*
X102700338Y-121227576D01*
X102768081Y-121247361D01*
X102863024Y-121291472D01*
X102931132Y-121348298D01*
X102972169Y-121417615D01*
X102985901Y-121499199D01*
X102984653Y-121540802D01*
X102976941Y-121573816D01*
X102957227Y-121602666D01*
X102919986Y-121639080D01*
X102909364Y-121648837D01*
X102877798Y-121676666D01*
X102847984Y-121699260D01*
X102815986Y-121717837D01*
X102777872Y-121733615D01*
X102729708Y-121747812D01*
X102667560Y-121761647D01*
X102587494Y-121776338D01*
X102485576Y-121793103D01*
X102357874Y-121813161D01*
X102333425Y-121817200D01*
X102250442Y-121835334D01*
X102190241Y-121856281D01*
X102155247Y-121879009D01*
X102147886Y-121902487D01*
X102151375Y-121908172D01*
X102175250Y-121928229D01*
X102212695Y-121950375D01*
X102229736Y-121958351D01*
X102258092Y-121967927D01*
X102293221Y-121974287D01*
X102340943Y-121978040D01*
X102407076Y-121979794D01*
X102497439Y-121980158D01*
X102521117Y-121980061D01*
X102611145Y-121978582D01*
X102697602Y-121975619D01*
X102771659Y-121971537D01*
X102824489Y-121966698D01*
X102871767Y-121961282D01*
X102910712Y-121960240D01*
X102935876Y-121966363D01*
X102955998Y-121980576D01*
X102960866Y-121985359D01*
X102982623Y-122027662D01*
X102980865Y-122075130D01*
X102955627Y-122115895D01*
X102928506Y-122131346D01*
X102880599Y-122148248D01*
X102824118Y-122161628D01*
X102819524Y-122162425D01*
X102762716Y-122169370D01*
X102686313Y-122175193D01*
X102599752Y-122179304D01*
X102512469Y-122181113D01*
X102490857Y-122181169D01*
X102359968Y-122177870D01*
X102253390Y-122167211D01*
X102166612Y-122147864D01*
X102095124Y-122118502D01*
X102034413Y-122077798D01*
X101979969Y-122024424D01*
X101953181Y-121989507D01*
X101937702Y-121950169D01*
X101933830Y-121897292D01*
X101934017Y-121881357D01*
X101939173Y-121837846D01*
X101955662Y-121802531D01*
X101989165Y-121761460D01*
X102017406Y-121731984D01*
X102052549Y-121701967D01*
X102092113Y-121677513D01*
X102140347Y-121657202D01*
X102201500Y-121639612D01*
X102279819Y-121623323D01*
X102379554Y-121606913D01*
X102504954Y-121588962D01*
X102565280Y-121579630D01*
X102655752Y-121560246D01*
X102721169Y-121538280D01*
X102760534Y-121514451D01*
X102772850Y-121489482D01*
X102757118Y-121464093D01*
X102712342Y-121439005D01*
X102708287Y-121437389D01*
X102646566Y-121421309D01*
X102563156Y-121410391D01*
X102465389Y-121404852D01*
X102360598Y-121404909D01*
X102256115Y-121410778D01*
X102159273Y-121422675D01*
X102154045Y-121423539D01*
X102089053Y-121433800D01*
X102046114Y-121438608D01*
X102018159Y-121437813D01*
X101998117Y-121431261D01*
X101978918Y-121418801D01*
X101977361Y-121417642D01*
X101944720Y-121377204D01*
X101938338Y-121329939D01*
X101959383Y-121283899D01*
X101965435Y-121277966D01*
X102004862Y-121257810D01*
X102067412Y-121240338D01*
X102147698Y-121225959D01*
X102240337Y-121215084D01*
X102339942Y-121208121D01*
X102441130Y-121205479D01*
X102538515Y-121207568D01*
G36*
X102538515Y-121207568D02*
G01*
X102626713Y-121214797D01*
X102700338Y-121227576D01*
X102768081Y-121247361D01*
X102863024Y-121291472D01*
X102931132Y-121348298D01*
X102972169Y-121417615D01*
X102985901Y-121499199D01*
X102984653Y-121540802D01*
X102976941Y-121573816D01*
X102957227Y-121602666D01*
X102919986Y-121639080D01*
X102909364Y-121648837D01*
X102877798Y-121676666D01*
X102847984Y-121699260D01*
X102815986Y-121717837D01*
X102777872Y-121733615D01*
X102729708Y-121747812D01*
X102667560Y-121761647D01*
X102587494Y-121776338D01*
X102485576Y-121793103D01*
X102357874Y-121813161D01*
X102333425Y-121817200D01*
X102250442Y-121835334D01*
X102190241Y-121856281D01*
X102155247Y-121879009D01*
X102147886Y-121902487D01*
X102151375Y-121908172D01*
X102175250Y-121928229D01*
X102212695Y-121950375D01*
X102229736Y-121958351D01*
X102258092Y-121967927D01*
X102293221Y-121974287D01*
X102340943Y-121978040D01*
X102407076Y-121979794D01*
X102497439Y-121980158D01*
X102521117Y-121980061D01*
X102611145Y-121978582D01*
X102697602Y-121975619D01*
X102771659Y-121971537D01*
X102824489Y-121966698D01*
X102871767Y-121961282D01*
X102910712Y-121960240D01*
X102935876Y-121966363D01*
X102955998Y-121980576D01*
X102960866Y-121985359D01*
X102982623Y-122027662D01*
X102980865Y-122075130D01*
X102955627Y-122115895D01*
X102928506Y-122131346D01*
X102880599Y-122148248D01*
X102824118Y-122161628D01*
X102819524Y-122162425D01*
X102762716Y-122169370D01*
X102686313Y-122175193D01*
X102599752Y-122179304D01*
X102512469Y-122181113D01*
X102490857Y-122181169D01*
X102359968Y-122177870D01*
X102253390Y-122167211D01*
X102166612Y-122147864D01*
X102095124Y-122118502D01*
X102034413Y-122077798D01*
X101979969Y-122024424D01*
X101953181Y-121989507D01*
X101937702Y-121950169D01*
X101933830Y-121897292D01*
X101934017Y-121881357D01*
X101939173Y-121837846D01*
X101955662Y-121802531D01*
X101989165Y-121761460D01*
X102017406Y-121731984D01*
X102052549Y-121701967D01*
X102092113Y-121677513D01*
X102140347Y-121657202D01*
X102201500Y-121639612D01*
X102279819Y-121623323D01*
X102379554Y-121606913D01*
X102504954Y-121588962D01*
X102565280Y-121579630D01*
X102655752Y-121560246D01*
X102721169Y-121538280D01*
X102760534Y-121514451D01*
X102772850Y-121489482D01*
X102757118Y-121464093D01*
X102712342Y-121439005D01*
X102708287Y-121437389D01*
X102646566Y-121421309D01*
X102563156Y-121410391D01*
X102465389Y-121404852D01*
X102360598Y-121404909D01*
X102256115Y-121410778D01*
X102159273Y-121422675D01*
X102154045Y-121423539D01*
X102089053Y-121433800D01*
X102046114Y-121438608D01*
X102018159Y-121437813D01*
X101998117Y-121431261D01*
X101978918Y-121418801D01*
X101977361Y-121417642D01*
X101944720Y-121377204D01*
X101938338Y-121329939D01*
X101959383Y-121283899D01*
X101965435Y-121277966D01*
X102004862Y-121257810D01*
X102067412Y-121240338D01*
X102147698Y-121225959D01*
X102240337Y-121215084D01*
X102339942Y-121208121D01*
X102441130Y-121205479D01*
X102538515Y-121207568D01*
G37*
X101486337Y-112670839D02*
X101625779Y-112705005D01*
X101757955Y-112766325D01*
X101878699Y-112854810D01*
X101983846Y-112970470D01*
X102069230Y-113113313D01*
X102092121Y-113163633D01*
X102110666Y-113214636D01*
X102121072Y-113265624D01*
X102125633Y-113328691D01*
X102126643Y-113415929D01*
X102126032Y-113488539D01*
X102122350Y-113555270D01*
X102113322Y-113607334D01*
X102096694Y-113656686D01*
X102070212Y-113715286D01*
X102062552Y-113730902D01*
X101972006Y-113873893D01*
X101858125Y-113991543D01*
X101724141Y-114081089D01*
X101573286Y-114139772D01*
X101495881Y-114156147D01*
X101338849Y-114163810D01*
X101186753Y-114139016D01*
X101044054Y-114084306D01*
X100915212Y-114002223D01*
X100804686Y-113895309D01*
X100716936Y-113766107D01*
X100656423Y-113617158D01*
X100634283Y-113495265D01*
X100632288Y-113360751D01*
X100650295Y-113229908D01*
X100687446Y-113116572D01*
X100730372Y-113035543D01*
X100825933Y-112906987D01*
X100939221Y-112805527D01*
X101066071Y-112731172D01*
X101202318Y-112683933D01*
X101343795Y-112663818D01*
X101486337Y-112670839D01*
G36*
X101486337Y-112670839D02*
G01*
X101625779Y-112705005D01*
X101757955Y-112766325D01*
X101878699Y-112854810D01*
X101983846Y-112970470D01*
X102069230Y-113113313D01*
X102092121Y-113163633D01*
X102110666Y-113214636D01*
X102121072Y-113265624D01*
X102125633Y-113328691D01*
X102126643Y-113415929D01*
X102126032Y-113488539D01*
X102122350Y-113555270D01*
X102113322Y-113607334D01*
X102096694Y-113656686D01*
X102070212Y-113715286D01*
X102062552Y-113730902D01*
X101972006Y-113873893D01*
X101858125Y-113991543D01*
X101724141Y-114081089D01*
X101573286Y-114139772D01*
X101495881Y-114156147D01*
X101338849Y-114163810D01*
X101186753Y-114139016D01*
X101044054Y-114084306D01*
X100915212Y-114002223D01*
X100804686Y-113895309D01*
X100716936Y-113766107D01*
X100656423Y-113617158D01*
X100634283Y-113495265D01*
X100632288Y-113360751D01*
X100650295Y-113229908D01*
X100687446Y-113116572D01*
X100730372Y-113035543D01*
X100825933Y-112906987D01*
X100939221Y-112805527D01*
X101066071Y-112731172D01*
X101202318Y-112683933D01*
X101343795Y-112663818D01*
X101486337Y-112670839D01*
G37*
X90075486Y-121236470D02*
X90082985Y-121244711D01*
X90089762Y-121255636D01*
X90095202Y-121271315D01*
X90099434Y-121294559D01*
X90102584Y-121328181D01*
X90104782Y-121374992D01*
X90106155Y-121437803D01*
X90106832Y-121519427D01*
X90106940Y-121622674D01*
X90106608Y-121750357D01*
X90105964Y-121905286D01*
X90105872Y-121924158D01*
X90105092Y-122006386D01*
X90103331Y-122064544D01*
X90099942Y-122103660D01*
X90094277Y-122128761D01*
X90085688Y-122144876D01*
X90073527Y-122157032D01*
X90028983Y-122180220D01*
X89982454Y-122176357D01*
X89941311Y-122143733D01*
X89929316Y-122126155D01*
X89919396Y-122101477D01*
X89913581Y-122066824D01*
X89910845Y-122015505D01*
X89910161Y-121940833D01*
X89910161Y-121777535D01*
X89248859Y-121777535D01*
X89248859Y-121957038D01*
X89248762Y-122004688D01*
X89247747Y-122066370D01*
X89244849Y-122107022D01*
X89239128Y-122132358D01*
X89229644Y-122148092D01*
X89215456Y-122159937D01*
X89172518Y-122180000D01*
X89125539Y-122176449D01*
X89084625Y-122143733D01*
X89078426Y-122135405D01*
X89070524Y-122121394D01*
X89064491Y-122102848D01*
X89060077Y-122076123D01*
X89057029Y-122037570D01*
X89055097Y-121983544D01*
X89054028Y-121910398D01*
X89053571Y-121814486D01*
X89053475Y-121692162D01*
X89053475Y-121280192D01*
X89090365Y-121243301D01*
X89132141Y-121213688D01*
X89176381Y-121210107D01*
X89218800Y-121236470D01*
X89229831Y-121249478D01*
X89239699Y-121270636D01*
X89245474Y-121302545D01*
X89248184Y-121351636D01*
X89248859Y-121424339D01*
X89248859Y-121582150D01*
X89910161Y-121582150D01*
X89910161Y-121428360D01*
X89910744Y-121359533D01*
X89913359Y-121313568D01*
X89919371Y-121283511D01*
X89930147Y-121262407D01*
X89947052Y-121243301D01*
X89988828Y-121213688D01*
X90033067Y-121210107D01*
X90075486Y-121236470D01*
G36*
X90075486Y-121236470D02*
G01*
X90082985Y-121244711D01*
X90089762Y-121255636D01*
X90095202Y-121271315D01*
X90099434Y-121294559D01*
X90102584Y-121328181D01*
X90104782Y-121374992D01*
X90106155Y-121437803D01*
X90106832Y-121519427D01*
X90106940Y-121622674D01*
X90106608Y-121750357D01*
X90105964Y-121905286D01*
X90105872Y-121924158D01*
X90105092Y-122006386D01*
X90103331Y-122064544D01*
X90099942Y-122103660D01*
X90094277Y-122128761D01*
X90085688Y-122144876D01*
X90073527Y-122157032D01*
X90028983Y-122180220D01*
X89982454Y-122176357D01*
X89941311Y-122143733D01*
X89929316Y-122126155D01*
X89919396Y-122101477D01*
X89913581Y-122066824D01*
X89910845Y-122015505D01*
X89910161Y-121940833D01*
X89910161Y-121777535D01*
X89248859Y-121777535D01*
X89248859Y-121957038D01*
X89248762Y-122004688D01*
X89247747Y-122066370D01*
X89244849Y-122107022D01*
X89239128Y-122132358D01*
X89229644Y-122148092D01*
X89215456Y-122159937D01*
X89172518Y-122180000D01*
X89125539Y-122176449D01*
X89084625Y-122143733D01*
X89078426Y-122135405D01*
X89070524Y-122121394D01*
X89064491Y-122102848D01*
X89060077Y-122076123D01*
X89057029Y-122037570D01*
X89055097Y-121983544D01*
X89054028Y-121910398D01*
X89053571Y-121814486D01*
X89053475Y-121692162D01*
X89053475Y-121280192D01*
X89090365Y-121243301D01*
X89132141Y-121213688D01*
X89176381Y-121210107D01*
X89218800Y-121236470D01*
X89229831Y-121249478D01*
X89239699Y-121270636D01*
X89245474Y-121302545D01*
X89248184Y-121351636D01*
X89248859Y-121424339D01*
X89248859Y-121582150D01*
X89910161Y-121582150D01*
X89910161Y-121428360D01*
X89910744Y-121359533D01*
X89913359Y-121313568D01*
X89919371Y-121283511D01*
X89930147Y-121262407D01*
X89947052Y-121243301D01*
X89988828Y-121213688D01*
X90033067Y-121210107D01*
X90075486Y-121236470D01*
G37*
X103891020Y-121206432D02*
X103993663Y-121206688D01*
X104072142Y-121207466D01*
X104130172Y-121209052D01*
X104171469Y-121211732D01*
X104199750Y-121215790D01*
X104218732Y-121221512D01*
X104232129Y-121229183D01*
X104243660Y-121239090D01*
X104246036Y-121241327D01*
X104255680Y-121251364D01*
X104263191Y-121263370D01*
X104268837Y-121280857D01*
X104272883Y-121307334D01*
X104275596Y-121346315D01*
X104277242Y-121401310D01*
X104278088Y-121475830D01*
X104278400Y-121573387D01*
X104278445Y-121697492D01*
X104278396Y-121794401D01*
X104278065Y-121898481D01*
X104277218Y-121978648D01*
X104275624Y-122038398D01*
X104273053Y-122081228D01*
X104269275Y-122110634D01*
X104264058Y-122130112D01*
X104257171Y-122143160D01*
X104248386Y-122153274D01*
X104243947Y-122157504D01*
X104232601Y-122165640D01*
X104216622Y-122171863D01*
X104192377Y-122176430D01*
X104156235Y-122179595D01*
X104104563Y-122181613D01*
X104033728Y-122182739D01*
X103940098Y-122183227D01*
X103820043Y-122183334D01*
X103763981Y-122183318D01*
X103655945Y-122183075D01*
X103572745Y-122182339D01*
X103510749Y-122180854D01*
X103466325Y-122178365D01*
X103435840Y-122174618D01*
X103415662Y-122169357D01*
X103402159Y-122162327D01*
X103391699Y-122153274D01*
X103372093Y-122124518D01*
X103361640Y-122085641D01*
X103368961Y-122053813D01*
X103391699Y-122018008D01*
X103398328Y-122011873D01*
X103411342Y-122003503D01*
X103430135Y-121997345D01*
X103458753Y-121993063D01*
X103501243Y-121990320D01*
X103561651Y-121988778D01*
X103644024Y-121988100D01*
X103752409Y-121987949D01*
X104083060Y-121987949D01*
X104083060Y-121777535D01*
X103868475Y-121777535D01*
X103820789Y-121777341D01*
X103733420Y-121775048D01*
X103670525Y-121769143D01*
X103628274Y-121758353D01*
X103602837Y-121741404D01*
X103590384Y-121717021D01*
X103587084Y-121683931D01*
X103588146Y-121656963D01*
X103595138Y-121627905D01*
X103612171Y-121607467D01*
X103643245Y-121594159D01*
X103692357Y-121586496D01*
X103763508Y-121582989D01*
X103860696Y-121582150D01*
X104084560Y-121582150D01*
X104075546Y-121409310D01*
X103745745Y-121405251D01*
X103662414Y-121404081D01*
X103571268Y-121402158D01*
X103503496Y-121399588D01*
X103455230Y-121396059D01*
X103422602Y-121391261D01*
X103401746Y-121384885D01*
X103388793Y-121376620D01*
X103380784Y-121368095D01*
X103363465Y-121325916D01*
X103368205Y-121278404D01*
X103394533Y-121237055D01*
X103398863Y-121233163D01*
X103410818Y-121224707D01*
X103426932Y-121218247D01*
X103450905Y-121213515D01*
X103486437Y-121210244D01*
X103537227Y-121208165D01*
X103606976Y-121207012D01*
X103699384Y-121206516D01*
X103818150Y-121206410D01*
X103891020Y-121206432D01*
G36*
X103891020Y-121206432D02*
G01*
X103993663Y-121206688D01*
X104072142Y-121207466D01*
X104130172Y-121209052D01*
X104171469Y-121211732D01*
X104199750Y-121215790D01*
X104218732Y-121221512D01*
X104232129Y-121229183D01*
X104243660Y-121239090D01*
X104246036Y-121241327D01*
X104255680Y-121251364D01*
X104263191Y-121263370D01*
X104268837Y-121280857D01*
X104272883Y-121307334D01*
X104275596Y-121346315D01*
X104277242Y-121401310D01*
X104278088Y-121475830D01*
X104278400Y-121573387D01*
X104278445Y-121697492D01*
X104278396Y-121794401D01*
X104278065Y-121898481D01*
X104277218Y-121978648D01*
X104275624Y-122038398D01*
X104273053Y-122081228D01*
X104269275Y-122110634D01*
X104264058Y-122130112D01*
X104257171Y-122143160D01*
X104248386Y-122153274D01*
X104243947Y-122157504D01*
X104232601Y-122165640D01*
X104216622Y-122171863D01*
X104192377Y-122176430D01*
X104156235Y-122179595D01*
X104104563Y-122181613D01*
X104033728Y-122182739D01*
X103940098Y-122183227D01*
X103820043Y-122183334D01*
X103763981Y-122183318D01*
X103655945Y-122183075D01*
X103572745Y-122182339D01*
X103510749Y-122180854D01*
X103466325Y-122178365D01*
X103435840Y-122174618D01*
X103415662Y-122169357D01*
X103402159Y-122162327D01*
X103391699Y-122153274D01*
X103372093Y-122124518D01*
X103361640Y-122085641D01*
X103368961Y-122053813D01*
X103391699Y-122018008D01*
X103398328Y-122011873D01*
X103411342Y-122003503D01*
X103430135Y-121997345D01*
X103458753Y-121993063D01*
X103501243Y-121990320D01*
X103561651Y-121988778D01*
X103644024Y-121988100D01*
X103752409Y-121987949D01*
X104083060Y-121987949D01*
X104083060Y-121777535D01*
X103868475Y-121777535D01*
X103820789Y-121777341D01*
X103733420Y-121775048D01*
X103670525Y-121769143D01*
X103628274Y-121758353D01*
X103602837Y-121741404D01*
X103590384Y-121717021D01*
X103587084Y-121683931D01*
X103588146Y-121656963D01*
X103595138Y-121627905D01*
X103612171Y-121607467D01*
X103643245Y-121594159D01*
X103692357Y-121586496D01*
X103763508Y-121582989D01*
X103860696Y-121582150D01*
X104084560Y-121582150D01*
X104075546Y-121409310D01*
X103745745Y-121405251D01*
X103662414Y-121404081D01*
X103571268Y-121402158D01*
X103503496Y-121399588D01*
X103455230Y-121396059D01*
X103422602Y-121391261D01*
X103401746Y-121384885D01*
X103388793Y-121376620D01*
X103380784Y-121368095D01*
X103363465Y-121325916D01*
X103368205Y-121278404D01*
X103394533Y-121237055D01*
X103398863Y-121233163D01*
X103410818Y-121224707D01*
X103426932Y-121218247D01*
X103450905Y-121213515D01*
X103486437Y-121210244D01*
X103537227Y-121208165D01*
X103606976Y-121207012D01*
X103699384Y-121206516D01*
X103818150Y-121206410D01*
X103891020Y-121206432D01*
G37*
X107719428Y-119810860D02*
X107717560Y-119951553D01*
X107715241Y-120072746D01*
X107712425Y-120175940D01*
X107709064Y-120262635D01*
X107705110Y-120334332D01*
X107700517Y-120392530D01*
X107695238Y-120438730D01*
X107689225Y-120474433D01*
X107682430Y-120501137D01*
X107674808Y-120520345D01*
X107666309Y-120533555D01*
X107656889Y-120542268D01*
X107646498Y-120547985D01*
X107635090Y-120552206D01*
X107622618Y-120556430D01*
X107609034Y-120562159D01*
X107601391Y-120565030D01*
X107587371Y-120568165D01*
X107566538Y-120571037D01*
X107537421Y-120573659D01*
X107498544Y-120576040D01*
X107448434Y-120578194D01*
X107385617Y-120580130D01*
X107308620Y-120581862D01*
X107215969Y-120583400D01*
X107106190Y-120584756D01*
X106977810Y-120585941D01*
X106829354Y-120586968D01*
X106659350Y-120587846D01*
X106466323Y-120588589D01*
X106248800Y-120589207D01*
X106005308Y-120589713D01*
X105734371Y-120590116D01*
X105434517Y-120590430D01*
X105104273Y-120590665D01*
X104742164Y-120590834D01*
X104346716Y-120590947D01*
X103916456Y-120591016D01*
X103780108Y-120591029D01*
X103359186Y-120591038D01*
X102972647Y-120590985D01*
X102619034Y-120590860D01*
X102296890Y-120590652D01*
X102004761Y-120590351D01*
X101741188Y-120589946D01*
X101504716Y-120589426D01*
X101293890Y-120588782D01*
X101107251Y-120588002D01*
X100943345Y-120587076D01*
X100800715Y-120585993D01*
X100677905Y-120584743D01*
X100573458Y-120583315D01*
X100485919Y-120581698D01*
X100413830Y-120579883D01*
X100355736Y-120577858D01*
X100310180Y-120575613D01*
X100275707Y-120573137D01*
X100250859Y-120570420D01*
X100234181Y-120567451D01*
X100224217Y-120564220D01*
X100221046Y-120562782D01*
X100208067Y-120558058D01*
X100196165Y-120554608D01*
X100185292Y-120550930D01*
X100175398Y-120545521D01*
X100166437Y-120536879D01*
X100158359Y-120523502D01*
X100151116Y-120503886D01*
X100144661Y-120476531D01*
X100138945Y-120439933D01*
X100133919Y-120392590D01*
X100129536Y-120333000D01*
X100125747Y-120259659D01*
X100122504Y-120171067D01*
X100119759Y-120065720D01*
X100117463Y-119942117D01*
X100115568Y-119798754D01*
X100114946Y-119732367D01*
X100593373Y-119732367D01*
X100593898Y-119738725D01*
X100603521Y-119743877D01*
X100625264Y-119747950D01*
X100662148Y-119751070D01*
X100717193Y-119753365D01*
X100793419Y-119754959D01*
X100893848Y-119755979D01*
X101021501Y-119756551D01*
X101179398Y-119756802D01*
X101370559Y-119756857D01*
X102171314Y-119756857D01*
X102103621Y-119634393D01*
X102035929Y-119511929D01*
X102035929Y-115955929D01*
X102103621Y-115833465D01*
X102171314Y-115711000D01*
X100739993Y-115711000D01*
X100734818Y-117593322D01*
X100729643Y-119475643D01*
X100678903Y-119584008D01*
X100652151Y-119637719D01*
X100621860Y-119691524D01*
X100598984Y-119724615D01*
X100598926Y-119724679D01*
X100593373Y-119732367D01*
X100114946Y-119732367D01*
X100114026Y-119634129D01*
X100112789Y-119446740D01*
X100111808Y-119235085D01*
X100111035Y-118997661D01*
X100110422Y-118732966D01*
X100109921Y-118439498D01*
X100109484Y-118115753D01*
X100109061Y-117760230D01*
X100108605Y-117371426D01*
X100108068Y-116947840D01*
X100107999Y-116896560D01*
X100107400Y-116475657D01*
X100106827Y-116089362D01*
X100106323Y-115736172D01*
X100105930Y-115414584D01*
X100105690Y-115123094D01*
X100105646Y-114860200D01*
X100105840Y-114624398D01*
X100106314Y-114414186D01*
X100107112Y-114228060D01*
X100108274Y-114064517D01*
X100109844Y-113922055D01*
X100111864Y-113799170D01*
X100114377Y-113694359D01*
X100117424Y-113606119D01*
X100121049Y-113532947D01*
X100125293Y-113473340D01*
X100130198Y-113425795D01*
X100135808Y-113388808D01*
X100142165Y-113360878D01*
X100149311Y-113340500D01*
X100157288Y-113326171D01*
X100166139Y-113316390D01*
X100175906Y-113309651D01*
X100186632Y-113304454D01*
X100198358Y-113299293D01*
X100211128Y-113292667D01*
X100214865Y-113290556D01*
X100271405Y-113270118D01*
X100333300Y-113261717D01*
X100403072Y-113261720D01*
X100404234Y-113420467D01*
X100404529Y-113438735D01*
X100426706Y-113624427D01*
X100483188Y-113799147D01*
X100573192Y-113961043D01*
X100695932Y-114108265D01*
X100761798Y-114168311D01*
X100908454Y-114267838D01*
X101068470Y-114337242D01*
X101237185Y-114376487D01*
X101409939Y-114385537D01*
X101582072Y-114364353D01*
X101748922Y-114312899D01*
X101886080Y-114241429D01*
X102493127Y-114241429D01*
X102572957Y-114298862D01*
X102640470Y-114352841D01*
X102735603Y-114440886D01*
X102843507Y-114551230D01*
X102960097Y-114679670D01*
X103081285Y-114822000D01*
X103112494Y-114860062D01*
X103165629Y-114925343D01*
X103235083Y-115010988D01*
X103318556Y-115114140D01*
X103413746Y-115231939D01*
X103518354Y-115361528D01*
X103630077Y-115500047D01*
X103746615Y-115644639D01*
X103800067Y-115711000D01*
X103865667Y-115792444D01*
X103984932Y-115940603D01*
X104102109Y-116086260D01*
X104214896Y-116226554D01*
X104320994Y-116358627D01*
X104418101Y-116479621D01*
X104503916Y-116586678D01*
X104576138Y-116676938D01*
X104632466Y-116747543D01*
X104670599Y-116795635D01*
X104688237Y-116818355D01*
X104689692Y-116826893D01*
X104684850Y-116843132D01*
X104672302Y-116868679D01*
X104650797Y-116905347D01*
X104619080Y-116954949D01*
X104575900Y-117019295D01*
X104520005Y-117100198D01*
X104450141Y-117199471D01*
X104365057Y-117318926D01*
X104263499Y-117460374D01*
X104144216Y-117625629D01*
X104005954Y-117816501D01*
X103847462Y-118034804D01*
X103721177Y-118208571D01*
X103567105Y-118420407D01*
X103431580Y-118606440D01*
X103313024Y-118768734D01*
X103209861Y-118909354D01*
X103120515Y-119030365D01*
X103043411Y-119133832D01*
X102976972Y-119221818D01*
X102919623Y-119296390D01*
X102869786Y-119359610D01*
X102825886Y-119413545D01*
X102786347Y-119460258D01*
X102749593Y-119501814D01*
X102714047Y-119540279D01*
X102678135Y-119577715D01*
X102640278Y-119616189D01*
X102500771Y-119756857D01*
X104376357Y-119756933D01*
X104370464Y-119643275D01*
X104370179Y-119637564D01*
X104369060Y-119592127D01*
X104371181Y-119548593D01*
X104377958Y-119504576D01*
X104390812Y-119457693D01*
X104411160Y-119405558D01*
X104440420Y-119345786D01*
X104480012Y-119275994D01*
X104531353Y-119193797D01*
X104595862Y-119096809D01*
X104674957Y-118982647D01*
X104770057Y-118848925D01*
X104882581Y-118693260D01*
X105013946Y-118513265D01*
X105165572Y-118306557D01*
X105700786Y-117577911D01*
X105705501Y-118422755D01*
X105705919Y-118501562D01*
X105706656Y-118713832D01*
X105706321Y-118894381D01*
X105704519Y-119046628D01*
X105700856Y-119173988D01*
X105694936Y-119279878D01*
X105686367Y-119367715D01*
X105674751Y-119440916D01*
X105659697Y-119502898D01*
X105640807Y-119557076D01*
X105617689Y-119606869D01*
X105589947Y-119655693D01*
X105557187Y-119706964D01*
X105524256Y-119756857D01*
X107235704Y-119756857D01*
X107191496Y-119697893D01*
X107184572Y-119688565D01*
X107129221Y-119603070D01*
X107091064Y-119516644D01*
X107066008Y-119417613D01*
X107049959Y-119294304D01*
X107049518Y-119288929D01*
X107047189Y-119238067D01*
X107045087Y-119153206D01*
X107043219Y-119036286D01*
X107041596Y-118889246D01*
X107040227Y-118714026D01*
X107039120Y-118512563D01*
X107038285Y-118286798D01*
X107037732Y-118038669D01*
X107037468Y-117770115D01*
X107037503Y-117483077D01*
X107037847Y-117179492D01*
X107038508Y-116861300D01*
X107039209Y-116575881D01*
X107039958Y-116265196D01*
X107040696Y-115987226D01*
X107041515Y-115740022D01*
X107042507Y-115521637D01*
X107043766Y-115330125D01*
X107045383Y-115163537D01*
X107047452Y-115019925D01*
X107050065Y-114897344D01*
X107053315Y-114793844D01*
X107057293Y-114707479D01*
X107062094Y-114636301D01*
X107067809Y-114578363D01*
X107074532Y-114531717D01*
X107082354Y-114494416D01*
X107091368Y-114464512D01*
X107101667Y-114440058D01*
X107113344Y-114419106D01*
X107126492Y-114399709D01*
X107141202Y-114379920D01*
X107157567Y-114357791D01*
X107173396Y-114335615D01*
X107203991Y-114291769D01*
X107222317Y-114264107D01*
X107222759Y-114262949D01*
X107216360Y-114257718D01*
X107193779Y-114253353D01*
X107152502Y-114249788D01*
X107090017Y-114246954D01*
X107003812Y-114244787D01*
X106891373Y-114243217D01*
X106750188Y-114242179D01*
X106577745Y-114241605D01*
X106371530Y-114241429D01*
X105507060Y-114241429D01*
X105552621Y-114295574D01*
X105579026Y-114332763D01*
X105622978Y-114420446D01*
X105661495Y-114529499D01*
X105690893Y-114650468D01*
X105692766Y-114661952D01*
X105698341Y-114722492D01*
X105702563Y-114816056D01*
X105705443Y-114943292D01*
X105706992Y-115104846D01*
X105707221Y-115301368D01*
X105706143Y-115533504D01*
X105700786Y-116308508D01*
X105147429Y-115608742D01*
X105131579Y-115588698D01*
X104991253Y-115411052D01*
X104871453Y-115258914D01*
X104770270Y-115129698D01*
X104685800Y-115020817D01*
X104616135Y-114929685D01*
X104559368Y-114853714D01*
X104513594Y-114790317D01*
X104476906Y-114736908D01*
X104447396Y-114690901D01*
X104423159Y-114649707D01*
X104402288Y-114610741D01*
X104382877Y-114571415D01*
X104353015Y-114501805D01*
X104333724Y-114428372D01*
X104328592Y-114349165D01*
X104329108Y-114241429D01*
X102493127Y-114241429D01*
X101886080Y-114241429D01*
X101905830Y-114231138D01*
X102048136Y-114119032D01*
X102087695Y-114079510D01*
X102204620Y-113933175D01*
X102287588Y-113774367D01*
X102337043Y-113602063D01*
X102353429Y-113415238D01*
X102353429Y-113261715D01*
X104957830Y-113261714D01*
X105120540Y-113261707D01*
X105470089Y-113261660D01*
X105785856Y-113261626D01*
X106069588Y-113261673D01*
X106323031Y-113261872D01*
X106547931Y-113262291D01*
X106746034Y-113262998D01*
X106919087Y-113264065D01*
X107068835Y-113265558D01*
X107197025Y-113267547D01*
X107305403Y-113270102D01*
X107395715Y-113273291D01*
X107469707Y-113277183D01*
X107529125Y-113281848D01*
X107575716Y-113287354D01*
X107611226Y-113293771D01*
X107637400Y-113301167D01*
X107655986Y-113309611D01*
X107668728Y-113319173D01*
X107677374Y-113329922D01*
X107683670Y-113341926D01*
X107689360Y-113355255D01*
X107696193Y-113369978D01*
X107696316Y-113370218D01*
X107699633Y-113379856D01*
X107702676Y-113395993D01*
X107705456Y-113420121D01*
X107707985Y-113453727D01*
X107710274Y-113498301D01*
X107712334Y-113555333D01*
X107714179Y-113626311D01*
X107715817Y-113712725D01*
X107717263Y-113816064D01*
X107718526Y-113937818D01*
X107719619Y-114079475D01*
X107720553Y-114242526D01*
X107721340Y-114428458D01*
X107721991Y-114638762D01*
X107722517Y-114874927D01*
X107722931Y-115138442D01*
X107723244Y-115430797D01*
X107723467Y-115753480D01*
X107723612Y-116107981D01*
X107723691Y-116495789D01*
X107723714Y-116918393D01*
X107723715Y-117001414D01*
X107723755Y-117419614D01*
X107723817Y-117803313D01*
X107723854Y-118154009D01*
X107723817Y-118473204D01*
X107723662Y-118762398D01*
X107723339Y-119023091D01*
X107722801Y-119256784D01*
X107722001Y-119464976D01*
X107720892Y-119649168D01*
X107719916Y-119756857D01*
X107719428Y-119810860D01*
G36*
X107719428Y-119810860D02*
G01*
X107717560Y-119951553D01*
X107715241Y-120072746D01*
X107712425Y-120175940D01*
X107709064Y-120262635D01*
X107705110Y-120334332D01*
X107700517Y-120392530D01*
X107695238Y-120438730D01*
X107689225Y-120474433D01*
X107682430Y-120501137D01*
X107674808Y-120520345D01*
X107666309Y-120533555D01*
X107656889Y-120542268D01*
X107646498Y-120547985D01*
X107635090Y-120552206D01*
X107622618Y-120556430D01*
X107609034Y-120562159D01*
X107601391Y-120565030D01*
X107587371Y-120568165D01*
X107566538Y-120571037D01*
X107537421Y-120573659D01*
X107498544Y-120576040D01*
X107448434Y-120578194D01*
X107385617Y-120580130D01*
X107308620Y-120581862D01*
X107215969Y-120583400D01*
X107106190Y-120584756D01*
X106977810Y-120585941D01*
X106829354Y-120586968D01*
X106659350Y-120587846D01*
X106466323Y-120588589D01*
X106248800Y-120589207D01*
X106005308Y-120589713D01*
X105734371Y-120590116D01*
X105434517Y-120590430D01*
X105104273Y-120590665D01*
X104742164Y-120590834D01*
X104346716Y-120590947D01*
X103916456Y-120591016D01*
X103780108Y-120591029D01*
X103359186Y-120591038D01*
X102972647Y-120590985D01*
X102619034Y-120590860D01*
X102296890Y-120590652D01*
X102004761Y-120590351D01*
X101741188Y-120589946D01*
X101504716Y-120589426D01*
X101293890Y-120588782D01*
X101107251Y-120588002D01*
X100943345Y-120587076D01*
X100800715Y-120585993D01*
X100677905Y-120584743D01*
X100573458Y-120583315D01*
X100485919Y-120581698D01*
X100413830Y-120579883D01*
X100355736Y-120577858D01*
X100310180Y-120575613D01*
X100275707Y-120573137D01*
X100250859Y-120570420D01*
X100234181Y-120567451D01*
X100224217Y-120564220D01*
X100221046Y-120562782D01*
X100208067Y-120558058D01*
X100196165Y-120554608D01*
X100185292Y-120550930D01*
X100175398Y-120545521D01*
X100166437Y-120536879D01*
X100158359Y-120523502D01*
X100151116Y-120503886D01*
X100144661Y-120476531D01*
X100138945Y-120439933D01*
X100133919Y-120392590D01*
X100129536Y-120333000D01*
X100125747Y-120259659D01*
X100122504Y-120171067D01*
X100119759Y-120065720D01*
X100117463Y-119942117D01*
X100115568Y-119798754D01*
X100114946Y-119732367D01*
X100593373Y-119732367D01*
X100593898Y-119738725D01*
X100603521Y-119743877D01*
X100625264Y-119747950D01*
X100662148Y-119751070D01*
X100717193Y-119753365D01*
X100793419Y-119754959D01*
X100893848Y-119755979D01*
X101021501Y-119756551D01*
X101179398Y-119756802D01*
X101370559Y-119756857D01*
X102171314Y-119756857D01*
X102103621Y-119634393D01*
X102035929Y-119511929D01*
X102035929Y-115955929D01*
X102103621Y-115833465D01*
X102171314Y-115711000D01*
X100739993Y-115711000D01*
X100734818Y-117593322D01*
X100729643Y-119475643D01*
X100678903Y-119584008D01*
X100652151Y-119637719D01*
X100621860Y-119691524D01*
X100598984Y-119724615D01*
X100598926Y-119724679D01*
X100593373Y-119732367D01*
X100114946Y-119732367D01*
X100114026Y-119634129D01*
X100112789Y-119446740D01*
X100111808Y-119235085D01*
X100111035Y-118997661D01*
X100110422Y-118732966D01*
X100109921Y-118439498D01*
X100109484Y-118115753D01*
X100109061Y-117760230D01*
X100108605Y-117371426D01*
X100108068Y-116947840D01*
X100107999Y-116896560D01*
X100107400Y-116475657D01*
X100106827Y-116089362D01*
X100106323Y-115736172D01*
X100105930Y-115414584D01*
X100105690Y-115123094D01*
X100105646Y-114860200D01*
X100105840Y-114624398D01*
X100106314Y-114414186D01*
X100107112Y-114228060D01*
X100108274Y-114064517D01*
X100109844Y-113922055D01*
X100111864Y-113799170D01*
X100114377Y-113694359D01*
X100117424Y-113606119D01*
X100121049Y-113532947D01*
X100125293Y-113473340D01*
X100130198Y-113425795D01*
X100135808Y-113388808D01*
X100142165Y-113360878D01*
X100149311Y-113340500D01*
X100157288Y-113326171D01*
X100166139Y-113316390D01*
X100175906Y-113309651D01*
X100186632Y-113304454D01*
X100198358Y-113299293D01*
X100211128Y-113292667D01*
X100214865Y-113290556D01*
X100271405Y-113270118D01*
X100333300Y-113261717D01*
X100403072Y-113261720D01*
X100404234Y-113420467D01*
X100404529Y-113438735D01*
X100426706Y-113624427D01*
X100483188Y-113799147D01*
X100573192Y-113961043D01*
X100695932Y-114108265D01*
X100761798Y-114168311D01*
X100908454Y-114267838D01*
X101068470Y-114337242D01*
X101237185Y-114376487D01*
X101409939Y-114385537D01*
X101582072Y-114364353D01*
X101748922Y-114312899D01*
X101886080Y-114241429D01*
X102493127Y-114241429D01*
X102572957Y-114298862D01*
X102640470Y-114352841D01*
X102735603Y-114440886D01*
X102843507Y-114551230D01*
X102960097Y-114679670D01*
X103081285Y-114822000D01*
X103112494Y-114860062D01*
X103165629Y-114925343D01*
X103235083Y-115010988D01*
X103318556Y-115114140D01*
X103413746Y-115231939D01*
X103518354Y-115361528D01*
X103630077Y-115500047D01*
X103746615Y-115644639D01*
X103800067Y-115711000D01*
X103865667Y-115792444D01*
X103984932Y-115940603D01*
X104102109Y-116086260D01*
X104214896Y-116226554D01*
X104320994Y-116358627D01*
X104418101Y-116479621D01*
X104503916Y-116586678D01*
X104576138Y-116676938D01*
X104632466Y-116747543D01*
X104670599Y-116795635D01*
X104688237Y-116818355D01*
X104689692Y-116826893D01*
X104684850Y-116843132D01*
X104672302Y-116868679D01*
X104650797Y-116905347D01*
X104619080Y-116954949D01*
X104575900Y-117019295D01*
X104520005Y-117100198D01*
X104450141Y-117199471D01*
X104365057Y-117318926D01*
X104263499Y-117460374D01*
X104144216Y-117625629D01*
X104005954Y-117816501D01*
X103847462Y-118034804D01*
X103721177Y-118208571D01*
X103567105Y-118420407D01*
X103431580Y-118606440D01*
X103313024Y-118768734D01*
X103209861Y-118909354D01*
X103120515Y-119030365D01*
X103043411Y-119133832D01*
X102976972Y-119221818D01*
X102919623Y-119296390D01*
X102869786Y-119359610D01*
X102825886Y-119413545D01*
X102786347Y-119460258D01*
X102749593Y-119501814D01*
X102714047Y-119540279D01*
X102678135Y-119577715D01*
X102640278Y-119616189D01*
X102500771Y-119756857D01*
X104376357Y-119756933D01*
X104370464Y-119643275D01*
X104370179Y-119637564D01*
X104369060Y-119592127D01*
X104371181Y-119548593D01*
X104377958Y-119504576D01*
X104390812Y-119457693D01*
X104411160Y-119405558D01*
X104440420Y-119345786D01*
X104480012Y-119275994D01*
X104531353Y-119193797D01*
X104595862Y-119096809D01*
X104674957Y-118982647D01*
X104770057Y-118848925D01*
X104882581Y-118693260D01*
X105013946Y-118513265D01*
X105165572Y-118306557D01*
X105700786Y-117577911D01*
X105705501Y-118422755D01*
X105705919Y-118501562D01*
X105706656Y-118713832D01*
X105706321Y-118894381D01*
X105704519Y-119046628D01*
X105700856Y-119173988D01*
X105694936Y-119279878D01*
X105686367Y-119367715D01*
X105674751Y-119440916D01*
X105659697Y-119502898D01*
X105640807Y-119557076D01*
X105617689Y-119606869D01*
X105589947Y-119655693D01*
X105557187Y-119706964D01*
X105524256Y-119756857D01*
X107235704Y-119756857D01*
X107191496Y-119697893D01*
X107184572Y-119688565D01*
X107129221Y-119603070D01*
X107091064Y-119516644D01*
X107066008Y-119417613D01*
X107049959Y-119294304D01*
X107049518Y-119288929D01*
X107047189Y-119238067D01*
X107045087Y-119153206D01*
X107043219Y-119036286D01*
X107041596Y-118889246D01*
X107040227Y-118714026D01*
X107039120Y-118512563D01*
X107038285Y-118286798D01*
X107037732Y-118038669D01*
X107037468Y-117770115D01*
X107037503Y-117483077D01*
X107037847Y-117179492D01*
X107038508Y-116861300D01*
X107039209Y-116575881D01*
X107039958Y-116265196D01*
X107040696Y-115987226D01*
X107041515Y-115740022D01*
X107042507Y-115521637D01*
X107043766Y-115330125D01*
X107045383Y-115163537D01*
X107047452Y-115019925D01*
X107050065Y-114897344D01*
X107053315Y-114793844D01*
X107057293Y-114707479D01*
X107062094Y-114636301D01*
X107067809Y-114578363D01*
X107074532Y-114531717D01*
X107082354Y-114494416D01*
X107091368Y-114464512D01*
X107101667Y-114440058D01*
X107113344Y-114419106D01*
X107126492Y-114399709D01*
X107141202Y-114379920D01*
X107157567Y-114357791D01*
X107173396Y-114335615D01*
X107203991Y-114291769D01*
X107222317Y-114264107D01*
X107222759Y-114262949D01*
X107216360Y-114257718D01*
X107193779Y-114253353D01*
X107152502Y-114249788D01*
X107090017Y-114246954D01*
X107003812Y-114244787D01*
X106891373Y-114243217D01*
X106750188Y-114242179D01*
X106577745Y-114241605D01*
X106371530Y-114241429D01*
X105507060Y-114241429D01*
X105552621Y-114295574D01*
X105579026Y-114332763D01*
X105622978Y-114420446D01*
X105661495Y-114529499D01*
X105690893Y-114650468D01*
X105692766Y-114661952D01*
X105698341Y-114722492D01*
X105702563Y-114816056D01*
X105705443Y-114943292D01*
X105706992Y-115104846D01*
X105707221Y-115301368D01*
X105706143Y-115533504D01*
X105700786Y-116308508D01*
X105147429Y-115608742D01*
X105131579Y-115588698D01*
X104991253Y-115411052D01*
X104871453Y-115258914D01*
X104770270Y-115129698D01*
X104685800Y-115020817D01*
X104616135Y-114929685D01*
X104559368Y-114853714D01*
X104513594Y-114790317D01*
X104476906Y-114736908D01*
X104447396Y-114690901D01*
X104423159Y-114649707D01*
X104402288Y-114610741D01*
X104382877Y-114571415D01*
X104353015Y-114501805D01*
X104333724Y-114428372D01*
X104328592Y-114349165D01*
X104329108Y-114241429D01*
X102493127Y-114241429D01*
X101886080Y-114241429D01*
X101905830Y-114231138D01*
X102048136Y-114119032D01*
X102087695Y-114079510D01*
X102204620Y-113933175D01*
X102287588Y-113774367D01*
X102337043Y-113602063D01*
X102353429Y-113415238D01*
X102353429Y-113261715D01*
X104957830Y-113261714D01*
X105120540Y-113261707D01*
X105470089Y-113261660D01*
X105785856Y-113261626D01*
X106069588Y-113261673D01*
X106323031Y-113261872D01*
X106547931Y-113262291D01*
X106746034Y-113262998D01*
X106919087Y-113264065D01*
X107068835Y-113265558D01*
X107197025Y-113267547D01*
X107305403Y-113270102D01*
X107395715Y-113273291D01*
X107469707Y-113277183D01*
X107529125Y-113281848D01*
X107575716Y-113287354D01*
X107611226Y-113293771D01*
X107637400Y-113301167D01*
X107655986Y-113309611D01*
X107668728Y-113319173D01*
X107677374Y-113329922D01*
X107683670Y-113341926D01*
X107689360Y-113355255D01*
X107696193Y-113369978D01*
X107696316Y-113370218D01*
X107699633Y-113379856D01*
X107702676Y-113395993D01*
X107705456Y-113420121D01*
X107707985Y-113453727D01*
X107710274Y-113498301D01*
X107712334Y-113555333D01*
X107714179Y-113626311D01*
X107715817Y-113712725D01*
X107717263Y-113816064D01*
X107718526Y-113937818D01*
X107719619Y-114079475D01*
X107720553Y-114242526D01*
X107721340Y-114428458D01*
X107721991Y-114638762D01*
X107722517Y-114874927D01*
X107722931Y-115138442D01*
X107723244Y-115430797D01*
X107723467Y-115753480D01*
X107723612Y-116107981D01*
X107723691Y-116495789D01*
X107723714Y-116918393D01*
X107723715Y-117001414D01*
X107723755Y-117419614D01*
X107723817Y-117803313D01*
X107723854Y-118154009D01*
X107723817Y-118473204D01*
X107723662Y-118762398D01*
X107723339Y-119023091D01*
X107722801Y-119256784D01*
X107722001Y-119464976D01*
X107720892Y-119649168D01*
X107719916Y-119756857D01*
X107719428Y-119810860D01*
G37*
X101400579Y-121212264D02*
X101446051Y-121243301D01*
X101482942Y-121280192D01*
X101482942Y-121696978D01*
X101482887Y-121808852D01*
X101482543Y-121907668D01*
X101481650Y-121983226D01*
X101479949Y-122039104D01*
X101477181Y-122078882D01*
X101473088Y-122106136D01*
X101467409Y-122124447D01*
X101459888Y-122137391D01*
X101450263Y-122148548D01*
X101408374Y-122177125D01*
X101361556Y-122179476D01*
X101317617Y-122153274D01*
X101310551Y-122145461D01*
X101303296Y-122133367D01*
X101297750Y-122115605D01*
X101293683Y-122088690D01*
X101290869Y-122049138D01*
X101289077Y-121993465D01*
X101288081Y-121918185D01*
X101287650Y-121819816D01*
X101287557Y-121694872D01*
X101287610Y-121594140D01*
X101287949Y-121490414D01*
X101288807Y-121410519D01*
X101290410Y-121350971D01*
X101292988Y-121308284D01*
X101296769Y-121278975D01*
X101301982Y-121259559D01*
X101308855Y-121246552D01*
X101317617Y-121236470D01*
X101356470Y-121211145D01*
X101400579Y-121212264D01*
G36*
X101400579Y-121212264D02*
G01*
X101446051Y-121243301D01*
X101482942Y-121280192D01*
X101482942Y-121696978D01*
X101482887Y-121808852D01*
X101482543Y-121907668D01*
X101481650Y-121983226D01*
X101479949Y-122039104D01*
X101477181Y-122078882D01*
X101473088Y-122106136D01*
X101467409Y-122124447D01*
X101459888Y-122137391D01*
X101450263Y-122148548D01*
X101408374Y-122177125D01*
X101361556Y-122179476D01*
X101317617Y-122153274D01*
X101310551Y-122145461D01*
X101303296Y-122133367D01*
X101297750Y-122115605D01*
X101293683Y-122088690D01*
X101290869Y-122049138D01*
X101289077Y-121993465D01*
X101288081Y-121918185D01*
X101287650Y-121819816D01*
X101287557Y-121694872D01*
X101287610Y-121594140D01*
X101287949Y-121490414D01*
X101288807Y-121410519D01*
X101290410Y-121350971D01*
X101292988Y-121308284D01*
X101296769Y-121278975D01*
X101301982Y-121259559D01*
X101308855Y-121246552D01*
X101317617Y-121236470D01*
X101356470Y-121211145D01*
X101400579Y-121212264D01*
G37*
X96340071Y-122020311D02*
X96337449Y-122063950D01*
X96333550Y-122094466D01*
X96328122Y-122115504D01*
X96320914Y-122130711D01*
X96311674Y-122143733D01*
X96280524Y-122183334D01*
X96059928Y-122182543D01*
X96013602Y-122182146D01*
X95882485Y-122177579D01*
X95774696Y-122167351D01*
X95685369Y-122150632D01*
X95609637Y-122126595D01*
X95542634Y-122094409D01*
X95538162Y-122091857D01*
X95461194Y-122042972D01*
X95404805Y-121993757D01*
X95361115Y-121935862D01*
X95322239Y-121860937D01*
X95316539Y-121848135D01*
X95286480Y-121764012D01*
X95278845Y-121703362D01*
X95477544Y-121703362D01*
X95485017Y-121736284D01*
X95492640Y-121757424D01*
X95536482Y-121837183D01*
X95599506Y-121898097D01*
X95684401Y-121942212D01*
X95793851Y-121971575D01*
X95797570Y-121972243D01*
X95859193Y-121980181D01*
X95934277Y-121985810D01*
X96007418Y-121987949D01*
X96132409Y-121987949D01*
X96132409Y-121401795D01*
X96015930Y-121402392D01*
X95926836Y-121405688D01*
X95803821Y-121420668D01*
X95698224Y-121446682D01*
X95615713Y-121482594D01*
X95574521Y-121510191D01*
X95537083Y-121549820D01*
X95506010Y-121606307D01*
X95496521Y-121627564D01*
X95480779Y-121670836D01*
X95477544Y-121703362D01*
X95278845Y-121703362D01*
X95277199Y-121690284D01*
X95288651Y-121617024D01*
X95320792Y-121534304D01*
X95321851Y-121532050D01*
X95375707Y-121439624D01*
X95443186Y-121364271D01*
X95526697Y-121304935D01*
X95628647Y-121260563D01*
X95751445Y-121230101D01*
X95897499Y-121212493D01*
X96069217Y-121206687D01*
X96073972Y-121206681D01*
X96153881Y-121206867D01*
X96209706Y-121208247D01*
X96247135Y-121211701D01*
X96271857Y-121218108D01*
X96289560Y-121228348D01*
X96305933Y-121243301D01*
X96342824Y-121280192D01*
X96342824Y-121692162D01*
X96342790Y-121774181D01*
X96342490Y-121879072D01*
X96341668Y-121959900D01*
X96340926Y-121987949D01*
X96340071Y-122020311D01*
G36*
X96340071Y-122020311D02*
G01*
X96337449Y-122063950D01*
X96333550Y-122094466D01*
X96328122Y-122115504D01*
X96320914Y-122130711D01*
X96311674Y-122143733D01*
X96280524Y-122183334D01*
X96059928Y-122182543D01*
X96013602Y-122182146D01*
X95882485Y-122177579D01*
X95774696Y-122167351D01*
X95685369Y-122150632D01*
X95609637Y-122126595D01*
X95542634Y-122094409D01*
X95538162Y-122091857D01*
X95461194Y-122042972D01*
X95404805Y-121993757D01*
X95361115Y-121935862D01*
X95322239Y-121860937D01*
X95316539Y-121848135D01*
X95286480Y-121764012D01*
X95278845Y-121703362D01*
X95477544Y-121703362D01*
X95485017Y-121736284D01*
X95492640Y-121757424D01*
X95536482Y-121837183D01*
X95599506Y-121898097D01*
X95684401Y-121942212D01*
X95793851Y-121971575D01*
X95797570Y-121972243D01*
X95859193Y-121980181D01*
X95934277Y-121985810D01*
X96007418Y-121987949D01*
X96132409Y-121987949D01*
X96132409Y-121401795D01*
X96015930Y-121402392D01*
X95926836Y-121405688D01*
X95803821Y-121420668D01*
X95698224Y-121446682D01*
X95615713Y-121482594D01*
X95574521Y-121510191D01*
X95537083Y-121549820D01*
X95506010Y-121606307D01*
X95496521Y-121627564D01*
X95480779Y-121670836D01*
X95477544Y-121703362D01*
X95278845Y-121703362D01*
X95277199Y-121690284D01*
X95288651Y-121617024D01*
X95320792Y-121534304D01*
X95321851Y-121532050D01*
X95375707Y-121439624D01*
X95443186Y-121364271D01*
X95526697Y-121304935D01*
X95628647Y-121260563D01*
X95751445Y-121230101D01*
X95897499Y-121212493D01*
X96069217Y-121206687D01*
X96073972Y-121206681D01*
X96153881Y-121206867D01*
X96209706Y-121208247D01*
X96247135Y-121211701D01*
X96271857Y-121218108D01*
X96289560Y-121228348D01*
X96305933Y-121243301D01*
X96342824Y-121280192D01*
X96342824Y-121692162D01*
X96342790Y-121774181D01*
X96342490Y-121879072D01*
X96341668Y-121959900D01*
X96340926Y-121987949D01*
X96340071Y-122020311D01*
G37*
X97664336Y-121246011D02*
X97670925Y-121254910D01*
X97678706Y-121268984D01*
X97684645Y-121287739D01*
X97688991Y-121314799D01*
X97691990Y-121353790D01*
X97693892Y-121408339D01*
X97694943Y-121482069D01*
X97695392Y-121578608D01*
X97695486Y-121701580D01*
X97695448Y-121789339D01*
X97695139Y-121893607D01*
X97694313Y-121973845D01*
X97692725Y-122033621D01*
X97690132Y-122076502D01*
X97686291Y-122106056D01*
X97680958Y-122125852D01*
X97673890Y-122139457D01*
X97664842Y-122150440D01*
X97658831Y-122156641D01*
X97647874Y-122165277D01*
X97632750Y-122171816D01*
X97609760Y-122176550D01*
X97575204Y-122179769D01*
X97525386Y-122181766D01*
X97456604Y-122182831D01*
X97365161Y-122183256D01*
X97247357Y-122183334D01*
X97221163Y-122183325D01*
X97105302Y-122182970D01*
X97015232Y-122181951D01*
X96947393Y-122180068D01*
X96898224Y-122177123D01*
X96864162Y-122172919D01*
X96841646Y-122167256D01*
X96827115Y-122159937D01*
X96813145Y-122146642D01*
X96795490Y-122105214D01*
X96797064Y-122057434D01*
X96818585Y-122015434D01*
X96821500Y-122012404D01*
X96833066Y-122004059D01*
X96850829Y-121997847D01*
X96878765Y-121993458D01*
X96920851Y-121990584D01*
X96981065Y-121988914D01*
X97063382Y-121988139D01*
X97171780Y-121987949D01*
X97500102Y-121987949D01*
X97500102Y-121777535D01*
X97283838Y-121777535D01*
X97236350Y-121777428D01*
X97162100Y-121776366D01*
X97109993Y-121773697D01*
X97074774Y-121768849D01*
X97051185Y-121761249D01*
X97033971Y-121750325D01*
X97029121Y-121746086D01*
X97004614Y-121704847D01*
X97003770Y-121656471D01*
X97027120Y-121611711D01*
X97027203Y-121611620D01*
X97040078Y-121600135D01*
X97057777Y-121592073D01*
X97085346Y-121586839D01*
X97127831Y-121583837D01*
X97190279Y-121582473D01*
X97277737Y-121582150D01*
X97501602Y-121582150D01*
X97497094Y-121495730D01*
X97492587Y-121409310D01*
X97170295Y-121405245D01*
X97136989Y-121404809D01*
X97028324Y-121402839D01*
X96945354Y-121399665D01*
X96884626Y-121394345D01*
X96842685Y-121385940D01*
X96816078Y-121373506D01*
X96801349Y-121356103D01*
X96795045Y-121332790D01*
X96793711Y-121302626D01*
X96793719Y-121299476D01*
X96795255Y-121272808D01*
X96801643Y-121251782D01*
X96816032Y-121235731D01*
X96841573Y-121223984D01*
X96881419Y-121215874D01*
X96938718Y-121210730D01*
X97016623Y-121207884D01*
X97118284Y-121206667D01*
X97246852Y-121206410D01*
X97633186Y-121206410D01*
X97664336Y-121246011D01*
G36*
X97664336Y-121246011D02*
G01*
X97670925Y-121254910D01*
X97678706Y-121268984D01*
X97684645Y-121287739D01*
X97688991Y-121314799D01*
X97691990Y-121353790D01*
X97693892Y-121408339D01*
X97694943Y-121482069D01*
X97695392Y-121578608D01*
X97695486Y-121701580D01*
X97695448Y-121789339D01*
X97695139Y-121893607D01*
X97694313Y-121973845D01*
X97692725Y-122033621D01*
X97690132Y-122076502D01*
X97686291Y-122106056D01*
X97680958Y-122125852D01*
X97673890Y-122139457D01*
X97664842Y-122150440D01*
X97658831Y-122156641D01*
X97647874Y-122165277D01*
X97632750Y-122171816D01*
X97609760Y-122176550D01*
X97575204Y-122179769D01*
X97525386Y-122181766D01*
X97456604Y-122182831D01*
X97365161Y-122183256D01*
X97247357Y-122183334D01*
X97221163Y-122183325D01*
X97105302Y-122182970D01*
X97015232Y-122181951D01*
X96947393Y-122180068D01*
X96898224Y-122177123D01*
X96864162Y-122172919D01*
X96841646Y-122167256D01*
X96827115Y-122159937D01*
X96813145Y-122146642D01*
X96795490Y-122105214D01*
X96797064Y-122057434D01*
X96818585Y-122015434D01*
X96821500Y-122012404D01*
X96833066Y-122004059D01*
X96850829Y-121997847D01*
X96878765Y-121993458D01*
X96920851Y-121990584D01*
X96981065Y-121988914D01*
X97063382Y-121988139D01*
X97171780Y-121987949D01*
X97500102Y-121987949D01*
X97500102Y-121777535D01*
X97283838Y-121777535D01*
X97236350Y-121777428D01*
X97162100Y-121776366D01*
X97109993Y-121773697D01*
X97074774Y-121768849D01*
X97051185Y-121761249D01*
X97033971Y-121750325D01*
X97029121Y-121746086D01*
X97004614Y-121704847D01*
X97003770Y-121656471D01*
X97027120Y-121611711D01*
X97027203Y-121611620D01*
X97040078Y-121600135D01*
X97057777Y-121592073D01*
X97085346Y-121586839D01*
X97127831Y-121583837D01*
X97190279Y-121582473D01*
X97277737Y-121582150D01*
X97501602Y-121582150D01*
X97497094Y-121495730D01*
X97492587Y-121409310D01*
X97170295Y-121405245D01*
X97136989Y-121404809D01*
X97028324Y-121402839D01*
X96945354Y-121399665D01*
X96884626Y-121394345D01*
X96842685Y-121385940D01*
X96816078Y-121373506D01*
X96801349Y-121356103D01*
X96795045Y-121332790D01*
X96793711Y-121302626D01*
X96793719Y-121299476D01*
X96795255Y-121272808D01*
X96801643Y-121251782D01*
X96816032Y-121235731D01*
X96841573Y-121223984D01*
X96881419Y-121215874D01*
X96938718Y-121210730D01*
X97016623Y-121207884D01*
X97118284Y-121206667D01*
X97246852Y-121206410D01*
X97633186Y-121206410D01*
X97664336Y-121246011D01*
G37*
X91447105Y-117946537D02*
X91443255Y-118114433D01*
X91432247Y-118262502D01*
X91413229Y-118398798D01*
X91385349Y-118531375D01*
X91347754Y-118668286D01*
X91290743Y-118831936D01*
X91186036Y-119052857D01*
X91057598Y-119250734D01*
X90907393Y-119423697D01*
X90737387Y-119569876D01*
X90549545Y-119687401D01*
X90345832Y-119774402D01*
X90128212Y-119829009D01*
X90125593Y-119829447D01*
X89966553Y-119844750D01*
X89791809Y-119842707D01*
X89613820Y-119824579D01*
X89445046Y-119791624D01*
X89297948Y-119745101D01*
X89235161Y-119716791D01*
X89153387Y-119673761D01*
X89069359Y-119624546D01*
X88991845Y-119574563D01*
X88929612Y-119529229D01*
X88891429Y-119493960D01*
X88882663Y-119484277D01*
X88872214Y-119480892D01*
X88865229Y-119497696D01*
X88860082Y-119540045D01*
X88855143Y-119613295D01*
X88846072Y-119765929D01*
X87456360Y-119775433D01*
X87504439Y-119693393D01*
X87507305Y-119688543D01*
X87521285Y-119665772D01*
X87533969Y-119645487D01*
X87545423Y-119625925D01*
X87555715Y-119605324D01*
X87564915Y-119581920D01*
X87573090Y-119553953D01*
X87580309Y-119519660D01*
X87586640Y-119477278D01*
X87592151Y-119425046D01*
X87596910Y-119361200D01*
X87600985Y-119283979D01*
X87604446Y-119191620D01*
X87607359Y-119082361D01*
X87609794Y-118954440D01*
X87611818Y-118806094D01*
X87613452Y-118640556D01*
X88936786Y-118640556D01*
X89027500Y-118700057D01*
X89062386Y-118721491D01*
X89142265Y-118764311D01*
X89218000Y-118798410D01*
X89251168Y-118809955D01*
X89356705Y-118833004D01*
X89490143Y-118844773D01*
X89557996Y-118847222D01*
X89620980Y-118846666D01*
X89667866Y-118840375D01*
X89709920Y-118826626D01*
X89758409Y-118803692D01*
X89851595Y-118742259D01*
X89932324Y-118655358D01*
X89996945Y-118543369D01*
X90046073Y-118404539D01*
X90080321Y-118237111D01*
X90100306Y-118039329D01*
X90106641Y-117809440D01*
X90106333Y-117757175D01*
X90097225Y-117515015D01*
X90075109Y-117304302D01*
X90039447Y-117122814D01*
X89989701Y-116968327D01*
X89925333Y-116838619D01*
X89845805Y-116731466D01*
X89812812Y-116698763D01*
X89710560Y-116630632D01*
X89590526Y-116589173D01*
X89457910Y-116574622D01*
X89317913Y-116587214D01*
X89175733Y-116627185D01*
X89036572Y-116694771D01*
X88936786Y-116754584D01*
X88936786Y-118640556D01*
X87613452Y-118640556D01*
X87613501Y-118635562D01*
X87614909Y-118441081D01*
X87616112Y-118220888D01*
X87617177Y-117973221D01*
X87618173Y-117696318D01*
X87619168Y-117388417D01*
X87620231Y-117047756D01*
X87621429Y-116672572D01*
X87630500Y-113905786D01*
X88351679Y-113901042D01*
X88404124Y-113900723D01*
X88558429Y-113900089D01*
X88699564Y-113899961D01*
X88823677Y-113900311D01*
X88926915Y-113901112D01*
X89005426Y-113902340D01*
X89055357Y-113903967D01*
X89072857Y-113905967D01*
X89070618Y-113912305D01*
X89053917Y-113942356D01*
X89026255Y-113986057D01*
X89023495Y-113990235D01*
X89002048Y-114023977D01*
X88984065Y-114056806D01*
X88969242Y-114092105D01*
X88957274Y-114133255D01*
X88947856Y-114183638D01*
X88940683Y-114246634D01*
X88935450Y-114325627D01*
X88931852Y-114423997D01*
X88929584Y-114545126D01*
X88928342Y-114692396D01*
X88927821Y-114869188D01*
X88927714Y-115078884D01*
X88927905Y-115242603D01*
X88928487Y-115403339D01*
X88929419Y-115549083D01*
X88930659Y-115676286D01*
X88932164Y-115781400D01*
X88933893Y-115860875D01*
X88935802Y-115911163D01*
X88937850Y-115928714D01*
X88944455Y-115925990D01*
X88973490Y-115906807D01*
X89014957Y-115875303D01*
X89075072Y-115832936D01*
X89188021Y-115770511D01*
X89317116Y-115714828D01*
X89450309Y-115671525D01*
X89562215Y-115649444D01*
X89701587Y-115635368D01*
X89852426Y-115630492D01*
X90003093Y-115634820D01*
X90141946Y-115648359D01*
X90257345Y-115671115D01*
X90374847Y-115709447D01*
X90570869Y-115802371D01*
X90752371Y-115925908D01*
X90916004Y-116077212D01*
X91058419Y-116253440D01*
X91176270Y-116451746D01*
X91205528Y-116512556D01*
X91287518Y-116717670D01*
X91351619Y-116940285D01*
X91398642Y-117184325D01*
X91429395Y-117453713D01*
X91444690Y-117752374D01*
X91445400Y-117809440D01*
X91447105Y-117946537D01*
G36*
X91447105Y-117946537D02*
G01*
X91443255Y-118114433D01*
X91432247Y-118262502D01*
X91413229Y-118398798D01*
X91385349Y-118531375D01*
X91347754Y-118668286D01*
X91290743Y-118831936D01*
X91186036Y-119052857D01*
X91057598Y-119250734D01*
X90907393Y-119423697D01*
X90737387Y-119569876D01*
X90549545Y-119687401D01*
X90345832Y-119774402D01*
X90128212Y-119829009D01*
X90125593Y-119829447D01*
X89966553Y-119844750D01*
X89791809Y-119842707D01*
X89613820Y-119824579D01*
X89445046Y-119791624D01*
X89297948Y-119745101D01*
X89235161Y-119716791D01*
X89153387Y-119673761D01*
X89069359Y-119624546D01*
X88991845Y-119574563D01*
X88929612Y-119529229D01*
X88891429Y-119493960D01*
X88882663Y-119484277D01*
X88872214Y-119480892D01*
X88865229Y-119497696D01*
X88860082Y-119540045D01*
X88855143Y-119613295D01*
X88846072Y-119765929D01*
X87456360Y-119775433D01*
X87504439Y-119693393D01*
X87507305Y-119688543D01*
X87521285Y-119665772D01*
X87533969Y-119645487D01*
X87545423Y-119625925D01*
X87555715Y-119605324D01*
X87564915Y-119581920D01*
X87573090Y-119553953D01*
X87580309Y-119519660D01*
X87586640Y-119477278D01*
X87592151Y-119425046D01*
X87596910Y-119361200D01*
X87600985Y-119283979D01*
X87604446Y-119191620D01*
X87607359Y-119082361D01*
X87609794Y-118954440D01*
X87611818Y-118806094D01*
X87613452Y-118640556D01*
X88936786Y-118640556D01*
X89027500Y-118700057D01*
X89062386Y-118721491D01*
X89142265Y-118764311D01*
X89218000Y-118798410D01*
X89251168Y-118809955D01*
X89356705Y-118833004D01*
X89490143Y-118844773D01*
X89557996Y-118847222D01*
X89620980Y-118846666D01*
X89667866Y-118840375D01*
X89709920Y-118826626D01*
X89758409Y-118803692D01*
X89851595Y-118742259D01*
X89932324Y-118655358D01*
X89996945Y-118543369D01*
X90046073Y-118404539D01*
X90080321Y-118237111D01*
X90100306Y-118039329D01*
X90106641Y-117809440D01*
X90106333Y-117757175D01*
X90097225Y-117515015D01*
X90075109Y-117304302D01*
X90039447Y-117122814D01*
X89989701Y-116968327D01*
X89925333Y-116838619D01*
X89845805Y-116731466D01*
X89812812Y-116698763D01*
X89710560Y-116630632D01*
X89590526Y-116589173D01*
X89457910Y-116574622D01*
X89317913Y-116587214D01*
X89175733Y-116627185D01*
X89036572Y-116694771D01*
X88936786Y-116754584D01*
X88936786Y-118640556D01*
X87613452Y-118640556D01*
X87613501Y-118635562D01*
X87614909Y-118441081D01*
X87616112Y-118220888D01*
X87617177Y-117973221D01*
X87618173Y-117696318D01*
X87619168Y-117388417D01*
X87620231Y-117047756D01*
X87621429Y-116672572D01*
X87630500Y-113905786D01*
X88351679Y-113901042D01*
X88404124Y-113900723D01*
X88558429Y-113900089D01*
X88699564Y-113899961D01*
X88823677Y-113900311D01*
X88926915Y-113901112D01*
X89005426Y-113902340D01*
X89055357Y-113903967D01*
X89072857Y-113905967D01*
X89070618Y-113912305D01*
X89053917Y-113942356D01*
X89026255Y-113986057D01*
X89023495Y-113990235D01*
X89002048Y-114023977D01*
X88984065Y-114056806D01*
X88969242Y-114092105D01*
X88957274Y-114133255D01*
X88947856Y-114183638D01*
X88940683Y-114246634D01*
X88935450Y-114325627D01*
X88931852Y-114423997D01*
X88929584Y-114545126D01*
X88928342Y-114692396D01*
X88927821Y-114869188D01*
X88927714Y-115078884D01*
X88927905Y-115242603D01*
X88928487Y-115403339D01*
X88929419Y-115549083D01*
X88930659Y-115676286D01*
X88932164Y-115781400D01*
X88933893Y-115860875D01*
X88935802Y-115911163D01*
X88937850Y-115928714D01*
X88944455Y-115925990D01*
X88973490Y-115906807D01*
X89014957Y-115875303D01*
X89075072Y-115832936D01*
X89188021Y-115770511D01*
X89317116Y-115714828D01*
X89450309Y-115671525D01*
X89562215Y-115649444D01*
X89701587Y-115635368D01*
X89852426Y-115630492D01*
X90003093Y-115634820D01*
X90141946Y-115648359D01*
X90257345Y-115671115D01*
X90374847Y-115709447D01*
X90570869Y-115802371D01*
X90752371Y-115925908D01*
X90916004Y-116077212D01*
X91058419Y-116253440D01*
X91176270Y-116451746D01*
X91205528Y-116512556D01*
X91287518Y-116717670D01*
X91351619Y-116940285D01*
X91398642Y-117184325D01*
X91429395Y-117453713D01*
X91444690Y-117752374D01*
X91445400Y-117809440D01*
X91447105Y-117946537D01*
G37*
X95547990Y-118517437D02*
X95539842Y-118663722D01*
X95522232Y-118799833D01*
X95495659Y-118913214D01*
X95453259Y-119029867D01*
X95354976Y-119222110D01*
X95229350Y-119391247D01*
X95077681Y-119536126D01*
X94901271Y-119655594D01*
X94701420Y-119748499D01*
X94479429Y-119813689D01*
X94388907Y-119828392D01*
X94259552Y-119838611D01*
X94118675Y-119840909D01*
X93978050Y-119835472D01*
X93849449Y-119822485D01*
X93744643Y-119802133D01*
X93691979Y-119786109D01*
X93572369Y-119739219D01*
X93450783Y-119679688D01*
X93339765Y-119613971D01*
X93251859Y-119548524D01*
X93250778Y-119547579D01*
X93202607Y-119506736D01*
X93165545Y-119477653D01*
X93147537Y-119466572D01*
X93145568Y-119469217D01*
X93141113Y-119497794D01*
X93138018Y-119551094D01*
X93136857Y-119620786D01*
X93136857Y-119775000D01*
X92456500Y-119775000D01*
X92438389Y-119774997D01*
X92286490Y-119774731D01*
X92147078Y-119774070D01*
X92024118Y-119773062D01*
X91921579Y-119771758D01*
X91843426Y-119770205D01*
X91793625Y-119768454D01*
X91776143Y-119766553D01*
X91776550Y-119764893D01*
X91787988Y-119740377D01*
X91811962Y-119694317D01*
X91844179Y-119635018D01*
X91912215Y-119511929D01*
X91922190Y-118296689D01*
X93209429Y-118296689D01*
X93209935Y-118392703D01*
X93212387Y-118493587D01*
X93217190Y-118566507D01*
X93224695Y-118616212D01*
X93235250Y-118647449D01*
X93248828Y-118669755D01*
X93299962Y-118730561D01*
X93368475Y-118793863D01*
X93443568Y-118850265D01*
X93514440Y-118890370D01*
X93553761Y-118905085D01*
X93644302Y-118924677D01*
X93762555Y-118934694D01*
X93887232Y-118933177D01*
X94005627Y-118912574D01*
X94104449Y-118870011D01*
X94189948Y-118803571D01*
X94214000Y-118778995D01*
X94276622Y-118695185D01*
X94310504Y-118604850D01*
X94320679Y-118496151D01*
X94317922Y-118438725D01*
X94290661Y-118320507D01*
X94233390Y-118219039D01*
X94145068Y-118133179D01*
X94024651Y-118061784D01*
X93871097Y-118003714D01*
X93809193Y-117988475D01*
X93734251Y-117978041D01*
X93639937Y-117972246D01*
X93517857Y-117970298D01*
X93498026Y-117970299D01*
X93406696Y-117971414D01*
X93328244Y-117974108D01*
X93270471Y-117978029D01*
X93241179Y-117982824D01*
X93237808Y-117984380D01*
X93226910Y-117994154D01*
X93219192Y-118013794D01*
X93214119Y-118048585D01*
X93211157Y-118103809D01*
X93209772Y-118184750D01*
X93209429Y-118296689D01*
X91922190Y-118296689D01*
X91922714Y-118232857D01*
X91924275Y-118046561D01*
X91926458Y-117808965D01*
X91928750Y-117602698D01*
X91931335Y-117424842D01*
X91934400Y-117272481D01*
X91938128Y-117142696D01*
X91942705Y-117032572D01*
X91948316Y-116939190D01*
X91955147Y-116859635D01*
X91963383Y-116790988D01*
X91973208Y-116730333D01*
X91984808Y-116674752D01*
X91998368Y-116621329D01*
X92014073Y-116567146D01*
X92032109Y-116509286D01*
X92103161Y-116327898D01*
X92200464Y-116160258D01*
X92321641Y-116016732D01*
X92467803Y-115896570D01*
X92640057Y-115799020D01*
X92839515Y-115723331D01*
X93067285Y-115668753D01*
X93324477Y-115634535D01*
X93414368Y-115627730D01*
X93565760Y-115622755D01*
X93715814Y-115627235D01*
X93871554Y-115641927D01*
X94040005Y-115667584D01*
X94228193Y-115704962D01*
X94443143Y-115754818D01*
X94492828Y-115766881D01*
X94617601Y-115796565D01*
X94735861Y-115823898D01*
X94840436Y-115847263D01*
X94924154Y-115865047D01*
X94979845Y-115875636D01*
X95108333Y-115896740D01*
X94927695Y-116334549D01*
X94882512Y-116443859D01*
X94838061Y-116550969D01*
X94799923Y-116642418D01*
X94769969Y-116713733D01*
X94750071Y-116760437D01*
X94742103Y-116778058D01*
X94740850Y-116778310D01*
X94717758Y-116770443D01*
X94672353Y-116750283D01*
X94612824Y-116721417D01*
X94489096Y-116665203D01*
X94318837Y-116603740D01*
X94144578Y-116556670D01*
X93973133Y-116525177D01*
X93811317Y-116510443D01*
X93665944Y-116513650D01*
X93543829Y-116535979D01*
X93458601Y-116571409D01*
X93361809Y-116644017D01*
X93287297Y-116742518D01*
X93237199Y-116863883D01*
X93213649Y-117005080D01*
X93205355Y-117135215D01*
X93638285Y-117136400D01*
X93784285Y-117137624D01*
X93945771Y-117141972D01*
X94083725Y-117150178D01*
X94205281Y-117163039D01*
X94317577Y-117181354D01*
X94427747Y-117205919D01*
X94542929Y-117237533D01*
X94715268Y-117297709D01*
X94917975Y-117396806D01*
X95095876Y-117518190D01*
X95247217Y-117660155D01*
X95370243Y-117820993D01*
X95463199Y-117998997D01*
X95524330Y-118192460D01*
X95533904Y-118244565D01*
X95546177Y-118373533D01*
X95547722Y-118496151D01*
X95547990Y-118517437D01*
G36*
X95547990Y-118517437D02*
G01*
X95539842Y-118663722D01*
X95522232Y-118799833D01*
X95495659Y-118913214D01*
X95453259Y-119029867D01*
X95354976Y-119222110D01*
X95229350Y-119391247D01*
X95077681Y-119536126D01*
X94901271Y-119655594D01*
X94701420Y-119748499D01*
X94479429Y-119813689D01*
X94388907Y-119828392D01*
X94259552Y-119838611D01*
X94118675Y-119840909D01*
X93978050Y-119835472D01*
X93849449Y-119822485D01*
X93744643Y-119802133D01*
X93691979Y-119786109D01*
X93572369Y-119739219D01*
X93450783Y-119679688D01*
X93339765Y-119613971D01*
X93251859Y-119548524D01*
X93250778Y-119547579D01*
X93202607Y-119506736D01*
X93165545Y-119477653D01*
X93147537Y-119466572D01*
X93145568Y-119469217D01*
X93141113Y-119497794D01*
X93138018Y-119551094D01*
X93136857Y-119620786D01*
X93136857Y-119775000D01*
X92456500Y-119775000D01*
X92438389Y-119774997D01*
X92286490Y-119774731D01*
X92147078Y-119774070D01*
X92024118Y-119773062D01*
X91921579Y-119771758D01*
X91843426Y-119770205D01*
X91793625Y-119768454D01*
X91776143Y-119766553D01*
X91776550Y-119764893D01*
X91787988Y-119740377D01*
X91811962Y-119694317D01*
X91844179Y-119635018D01*
X91912215Y-119511929D01*
X91922190Y-118296689D01*
X93209429Y-118296689D01*
X93209935Y-118392703D01*
X93212387Y-118493587D01*
X93217190Y-118566507D01*
X93224695Y-118616212D01*
X93235250Y-118647449D01*
X93248828Y-118669755D01*
X93299962Y-118730561D01*
X93368475Y-118793863D01*
X93443568Y-118850265D01*
X93514440Y-118890370D01*
X93553761Y-118905085D01*
X93644302Y-118924677D01*
X93762555Y-118934694D01*
X93887232Y-118933177D01*
X94005627Y-118912574D01*
X94104449Y-118870011D01*
X94189948Y-118803571D01*
X94214000Y-118778995D01*
X94276622Y-118695185D01*
X94310504Y-118604850D01*
X94320679Y-118496151D01*
X94317922Y-118438725D01*
X94290661Y-118320507D01*
X94233390Y-118219039D01*
X94145068Y-118133179D01*
X94024651Y-118061784D01*
X93871097Y-118003714D01*
X93809193Y-117988475D01*
X93734251Y-117978041D01*
X93639937Y-117972246D01*
X93517857Y-117970298D01*
X93498026Y-117970299D01*
X93406696Y-117971414D01*
X93328244Y-117974108D01*
X93270471Y-117978029D01*
X93241179Y-117982824D01*
X93237808Y-117984380D01*
X93226910Y-117994154D01*
X93219192Y-118013794D01*
X93214119Y-118048585D01*
X93211157Y-118103809D01*
X93209772Y-118184750D01*
X93209429Y-118296689D01*
X91922190Y-118296689D01*
X91922714Y-118232857D01*
X91924275Y-118046561D01*
X91926458Y-117808965D01*
X91928750Y-117602698D01*
X91931335Y-117424842D01*
X91934400Y-117272481D01*
X91938128Y-117142696D01*
X91942705Y-117032572D01*
X91948316Y-116939190D01*
X91955147Y-116859635D01*
X91963383Y-116790988D01*
X91973208Y-116730333D01*
X91984808Y-116674752D01*
X91998368Y-116621329D01*
X92014073Y-116567146D01*
X92032109Y-116509286D01*
X92103161Y-116327898D01*
X92200464Y-116160258D01*
X92321641Y-116016732D01*
X92467803Y-115896570D01*
X92640057Y-115799020D01*
X92839515Y-115723331D01*
X93067285Y-115668753D01*
X93324477Y-115634535D01*
X93414368Y-115627730D01*
X93565760Y-115622755D01*
X93715814Y-115627235D01*
X93871554Y-115641927D01*
X94040005Y-115667584D01*
X94228193Y-115704962D01*
X94443143Y-115754818D01*
X94492828Y-115766881D01*
X94617601Y-115796565D01*
X94735861Y-115823898D01*
X94840436Y-115847263D01*
X94924154Y-115865047D01*
X94979845Y-115875636D01*
X95108333Y-115896740D01*
X94927695Y-116334549D01*
X94882512Y-116443859D01*
X94838061Y-116550969D01*
X94799923Y-116642418D01*
X94769969Y-116713733D01*
X94750071Y-116760437D01*
X94742103Y-116778058D01*
X94740850Y-116778310D01*
X94717758Y-116770443D01*
X94672353Y-116750283D01*
X94612824Y-116721417D01*
X94489096Y-116665203D01*
X94318837Y-116603740D01*
X94144578Y-116556670D01*
X93973133Y-116525177D01*
X93811317Y-116510443D01*
X93665944Y-116513650D01*
X93543829Y-116535979D01*
X93458601Y-116571409D01*
X93361809Y-116644017D01*
X93287297Y-116742518D01*
X93237199Y-116863883D01*
X93213649Y-117005080D01*
X93205355Y-117135215D01*
X93638285Y-117136400D01*
X93784285Y-117137624D01*
X93945771Y-117141972D01*
X94083725Y-117150178D01*
X94205281Y-117163039D01*
X94317577Y-117181354D01*
X94427747Y-117205919D01*
X94542929Y-117237533D01*
X94715268Y-117297709D01*
X94917975Y-117396806D01*
X95095876Y-117518190D01*
X95247217Y-117660155D01*
X95370243Y-117820993D01*
X95463199Y-117998997D01*
X95524330Y-118192460D01*
X95533904Y-118244565D01*
X95546177Y-118373533D01*
X95547722Y-118496151D01*
X95547990Y-118517437D01*
G37*
X97373834Y-114166031D02*
X97617638Y-114188413D01*
X97844132Y-114233551D01*
X98061742Y-114303345D01*
X98278891Y-114399696D01*
X98493845Y-114522715D01*
X98724534Y-114690422D01*
X98938459Y-114884323D01*
X99130911Y-115099618D01*
X99297180Y-115331507D01*
X99432553Y-115575190D01*
X99444841Y-115601258D01*
X99547750Y-115852881D01*
X99625946Y-116114345D01*
X99680439Y-116390646D01*
X99712241Y-116686779D01*
X99722360Y-117007739D01*
X99710056Y-117339528D01*
X99671001Y-117666276D01*
X99604590Y-117972149D01*
X99510227Y-118259317D01*
X99387320Y-118529949D01*
X99235273Y-118786214D01*
X99092450Y-118982000D01*
X98895243Y-119202289D01*
X98680296Y-119390974D01*
X98447703Y-119547993D01*
X98197558Y-119673285D01*
X97929957Y-119766786D01*
X97644992Y-119828437D01*
X97641740Y-119828917D01*
X97586862Y-119833732D01*
X97504049Y-119837304D01*
X97400958Y-119839465D01*
X97285246Y-119840050D01*
X97164572Y-119838891D01*
X97079997Y-119837192D01*
X96954512Y-119833258D01*
X96853958Y-119827626D01*
X96771083Y-119819694D01*
X96698634Y-119808863D01*
X96629357Y-119794530D01*
X96551416Y-119776007D01*
X96470099Y-119754914D01*
X96396556Y-119732787D01*
X96324112Y-119707033D01*
X96246093Y-119675060D01*
X96155825Y-119634278D01*
X96046631Y-119582093D01*
X95911839Y-119515915D01*
X95539036Y-119331677D01*
X95837628Y-118841231D01*
X95876719Y-118777041D01*
X95946950Y-118661810D01*
X96009811Y-118558794D01*
X96063004Y-118471748D01*
X96104233Y-118404432D01*
X96131200Y-118360601D01*
X96141607Y-118344015D01*
X96144502Y-118344510D01*
X96167820Y-118360742D01*
X96208786Y-118394429D01*
X96260927Y-118440345D01*
X96353787Y-118519678D01*
X96519562Y-118636990D01*
X96680403Y-118718771D01*
X96796631Y-118759611D01*
X96993222Y-118801348D01*
X97186378Y-118808746D01*
X97373299Y-118782309D01*
X97551183Y-118722540D01*
X97717230Y-118629943D01*
X97868637Y-118505022D01*
X97952886Y-118413014D01*
X98071574Y-118242831D01*
X98168964Y-118045342D01*
X98245519Y-117819536D01*
X98301707Y-117564401D01*
X98304256Y-117548562D01*
X98316033Y-117445903D01*
X98324800Y-117318351D01*
X98330486Y-117174622D01*
X98333021Y-117023431D01*
X98332333Y-116873493D01*
X98328352Y-116733524D01*
X98321006Y-116612241D01*
X98310225Y-116518357D01*
X98268900Y-116305692D01*
X98199365Y-116057270D01*
X98111915Y-115839781D01*
X98006665Y-115653393D01*
X97883732Y-115498273D01*
X97743235Y-115374590D01*
X97585288Y-115282512D01*
X97410010Y-115222209D01*
X97371121Y-115214724D01*
X97273666Y-115204951D01*
X97159773Y-115201761D01*
X97042204Y-115204979D01*
X96933717Y-115214429D01*
X96847072Y-115229936D01*
X96702732Y-115279313D01*
X96535228Y-115369456D01*
X96386080Y-115488084D01*
X96359756Y-115513073D01*
X96312057Y-115557285D01*
X96278345Y-115587042D01*
X96264649Y-115596941D01*
X96261277Y-115592207D01*
X96240523Y-115562313D01*
X96203028Y-115508033D01*
X96151270Y-115432962D01*
X96087728Y-115340694D01*
X96014877Y-115234823D01*
X95935197Y-115118944D01*
X95609286Y-114644817D01*
X95682092Y-114623004D01*
X95689690Y-114620532D01*
X95739145Y-114600898D01*
X95810447Y-114569239D01*
X95895228Y-114529362D01*
X95985120Y-114485076D01*
X96024292Y-114465496D01*
X96241804Y-114364409D01*
X96442283Y-114286238D01*
X96633438Y-114228985D01*
X96822981Y-114190649D01*
X97018622Y-114169231D01*
X97228072Y-114162731D01*
X97373834Y-114166031D01*
G36*
X97373834Y-114166031D02*
G01*
X97617638Y-114188413D01*
X97844132Y-114233551D01*
X98061742Y-114303345D01*
X98278891Y-114399696D01*
X98493845Y-114522715D01*
X98724534Y-114690422D01*
X98938459Y-114884323D01*
X99130911Y-115099618D01*
X99297180Y-115331507D01*
X99432553Y-115575190D01*
X99444841Y-115601258D01*
X99547750Y-115852881D01*
X99625946Y-116114345D01*
X99680439Y-116390646D01*
X99712241Y-116686779D01*
X99722360Y-117007739D01*
X99710056Y-117339528D01*
X99671001Y-117666276D01*
X99604590Y-117972149D01*
X99510227Y-118259317D01*
X99387320Y-118529949D01*
X99235273Y-118786214D01*
X99092450Y-118982000D01*
X98895243Y-119202289D01*
X98680296Y-119390974D01*
X98447703Y-119547993D01*
X98197558Y-119673285D01*
X97929957Y-119766786D01*
X97644992Y-119828437D01*
X97641740Y-119828917D01*
X97586862Y-119833732D01*
X97504049Y-119837304D01*
X97400958Y-119839465D01*
X97285246Y-119840050D01*
X97164572Y-119838891D01*
X97079997Y-119837192D01*
X96954512Y-119833258D01*
X96853958Y-119827626D01*
X96771083Y-119819694D01*
X96698634Y-119808863D01*
X96629357Y-119794530D01*
X96551416Y-119776007D01*
X96470099Y-119754914D01*
X96396556Y-119732787D01*
X96324112Y-119707033D01*
X96246093Y-119675060D01*
X96155825Y-119634278D01*
X96046631Y-119582093D01*
X95911839Y-119515915D01*
X95539036Y-119331677D01*
X95837628Y-118841231D01*
X95876719Y-118777041D01*
X95946950Y-118661810D01*
X96009811Y-118558794D01*
X96063004Y-118471748D01*
X96104233Y-118404432D01*
X96131200Y-118360601D01*
X96141607Y-118344015D01*
X96144502Y-118344510D01*
X96167820Y-118360742D01*
X96208786Y-118394429D01*
X96260927Y-118440345D01*
X96353787Y-118519678D01*
X96519562Y-118636990D01*
X96680403Y-118718771D01*
X96796631Y-118759611D01*
X96993222Y-118801348D01*
X97186378Y-118808746D01*
X97373299Y-118782309D01*
X97551183Y-118722540D01*
X97717230Y-118629943D01*
X97868637Y-118505022D01*
X97952886Y-118413014D01*
X98071574Y-118242831D01*
X98168964Y-118045342D01*
X98245519Y-117819536D01*
X98301707Y-117564401D01*
X98304256Y-117548562D01*
X98316033Y-117445903D01*
X98324800Y-117318351D01*
X98330486Y-117174622D01*
X98333021Y-117023431D01*
X98332333Y-116873493D01*
X98328352Y-116733524D01*
X98321006Y-116612241D01*
X98310225Y-116518357D01*
X98268900Y-116305692D01*
X98199365Y-116057270D01*
X98111915Y-115839781D01*
X98006665Y-115653393D01*
X97883732Y-115498273D01*
X97743235Y-115374590D01*
X97585288Y-115282512D01*
X97410010Y-115222209D01*
X97371121Y-115214724D01*
X97273666Y-115204951D01*
X97159773Y-115201761D01*
X97042204Y-115204979D01*
X96933717Y-115214429D01*
X96847072Y-115229936D01*
X96702732Y-115279313D01*
X96535228Y-115369456D01*
X96386080Y-115488084D01*
X96359756Y-115513073D01*
X96312057Y-115557285D01*
X96278345Y-115587042D01*
X96264649Y-115596941D01*
X96261277Y-115592207D01*
X96240523Y-115562313D01*
X96203028Y-115508033D01*
X96151270Y-115432962D01*
X96087728Y-115340694D01*
X96014877Y-115234823D01*
X95935197Y-115118944D01*
X95609286Y-114644817D01*
X95682092Y-114623004D01*
X95689690Y-114620532D01*
X95739145Y-114600898D01*
X95810447Y-114569239D01*
X95895228Y-114529362D01*
X95985120Y-114485076D01*
X96024292Y-114465496D01*
X96241804Y-114364409D01*
X96442283Y-114286238D01*
X96633438Y-114228985D01*
X96822981Y-114190649D01*
X97018622Y-114169231D01*
X97228072Y-114162731D01*
X97373834Y-114166031D01*
G37*
X105781662Y-121453192D02*
X105781734Y-121560519D01*
X105781403Y-121694872D01*
X105781351Y-121795605D01*
X105781011Y-121899330D01*
X105780154Y-121979225D01*
X105778551Y-122038773D01*
X105775973Y-122081460D01*
X105772192Y-122110769D01*
X105766979Y-122130185D01*
X105760106Y-122143192D01*
X105751344Y-122153274D01*
X105742068Y-122161574D01*
X105724763Y-122171293D01*
X105699270Y-122177622D01*
X105660123Y-122181266D01*
X105601855Y-122182935D01*
X105519000Y-122183334D01*
X105453834Y-122182834D01*
X105311566Y-122176938D01*
X105192771Y-122163508D01*
X105093188Y-122141423D01*
X105008552Y-122109563D01*
X104934600Y-122066808D01*
X104867067Y-122012038D01*
X104859095Y-122004246D01*
X104810011Y-121939663D01*
X104768607Y-121858705D01*
X104740005Y-121773174D01*
X104732974Y-121721593D01*
X104928974Y-121721593D01*
X104953314Y-121789406D01*
X104992816Y-121850538D01*
X105054986Y-121907000D01*
X105136717Y-121946678D01*
X105242090Y-121972155D01*
X105244074Y-121972472D01*
X105309272Y-121980183D01*
X105387415Y-121985696D01*
X105462025Y-121987835D01*
X105586019Y-121987949D01*
X105586019Y-121401795D01*
X105484569Y-121401776D01*
X105480538Y-121401788D01*
X105412479Y-121404404D01*
X105332461Y-121410694D01*
X105256961Y-121419386D01*
X105190449Y-121431763D01*
X105090927Y-121466735D01*
X105014362Y-121519056D01*
X104959109Y-121589665D01*
X104930861Y-121657919D01*
X104928974Y-121721593D01*
X104732974Y-121721593D01*
X104729332Y-121694872D01*
X104731035Y-121666625D01*
X104747427Y-121590184D01*
X104777421Y-121510421D01*
X104816337Y-121438462D01*
X104859495Y-121385433D01*
X104885512Y-121362769D01*
X104958353Y-121310597D01*
X105038638Y-121270483D01*
X105130763Y-121241246D01*
X105239125Y-121221699D01*
X105368119Y-121210660D01*
X105522143Y-121206944D01*
X105574708Y-121206409D01*
X105635566Y-121205859D01*
X105683229Y-121208261D01*
X105719297Y-121216625D01*
X105745368Y-121233960D01*
X105763041Y-121263275D01*
X105773915Y-121307579D01*
X105779590Y-121369881D01*
X105780384Y-121401795D01*
X105781662Y-121453192D01*
G36*
X105781662Y-121453192D02*
G01*
X105781734Y-121560519D01*
X105781403Y-121694872D01*
X105781351Y-121795605D01*
X105781011Y-121899330D01*
X105780154Y-121979225D01*
X105778551Y-122038773D01*
X105775973Y-122081460D01*
X105772192Y-122110769D01*
X105766979Y-122130185D01*
X105760106Y-122143192D01*
X105751344Y-122153274D01*
X105742068Y-122161574D01*
X105724763Y-122171293D01*
X105699270Y-122177622D01*
X105660123Y-122181266D01*
X105601855Y-122182935D01*
X105519000Y-122183334D01*
X105453834Y-122182834D01*
X105311566Y-122176938D01*
X105192771Y-122163508D01*
X105093188Y-122141423D01*
X105008552Y-122109563D01*
X104934600Y-122066808D01*
X104867067Y-122012038D01*
X104859095Y-122004246D01*
X104810011Y-121939663D01*
X104768607Y-121858705D01*
X104740005Y-121773174D01*
X104732974Y-121721593D01*
X104928974Y-121721593D01*
X104953314Y-121789406D01*
X104992816Y-121850538D01*
X105054986Y-121907000D01*
X105136717Y-121946678D01*
X105242090Y-121972155D01*
X105244074Y-121972472D01*
X105309272Y-121980183D01*
X105387415Y-121985696D01*
X105462025Y-121987835D01*
X105586019Y-121987949D01*
X105586019Y-121401795D01*
X105484569Y-121401776D01*
X105480538Y-121401788D01*
X105412479Y-121404404D01*
X105332461Y-121410694D01*
X105256961Y-121419386D01*
X105190449Y-121431763D01*
X105090927Y-121466735D01*
X105014362Y-121519056D01*
X104959109Y-121589665D01*
X104930861Y-121657919D01*
X104928974Y-121721593D01*
X104732974Y-121721593D01*
X104729332Y-121694872D01*
X104731035Y-121666625D01*
X104747427Y-121590184D01*
X104777421Y-121510421D01*
X104816337Y-121438462D01*
X104859495Y-121385433D01*
X104885512Y-121362769D01*
X104958353Y-121310597D01*
X105038638Y-121270483D01*
X105130763Y-121241246D01*
X105239125Y-121221699D01*
X105368119Y-121210660D01*
X105522143Y-121206944D01*
X105574708Y-121206409D01*
X105635566Y-121205859D01*
X105683229Y-121208261D01*
X105719297Y-121216625D01*
X105745368Y-121233960D01*
X105763041Y-121263275D01*
X105773915Y-121307579D01*
X105779590Y-121369881D01*
X105780384Y-121401795D01*
X105781662Y-121453192D01*
G37*
D13*
%TO.C,C20*%
X153790000Y-81990580D02*
X153790000Y-81709420D01*
X154810000Y-81990580D02*
X154810000Y-81709420D01*
%TO.C,R2*%
X136672500Y-83837742D02*
X136672500Y-84312258D01*
X135627500Y-83837742D02*
X135627500Y-84312258D01*
%TO.C,U5*%
X153100000Y-64180000D02*
X140100000Y-64180000D01*
X140100000Y-64180000D02*
X140100000Y-83180000D01*
X140100000Y-83180000D02*
X153100000Y-83180000D01*
X153100000Y-83180000D02*
X153100000Y-64180000D01*
%TO.C,G\u002A\u002A\u002A*%
G36*
X154595088Y-95314492D02*
G01*
X154595088Y-96074598D01*
X154405702Y-96060896D01*
X154216316Y-96047193D01*
X154204098Y-95300790D01*
X154191881Y-94554386D01*
X154393484Y-94554386D01*
X154595088Y-94554386D01*
X154595088Y-95314492D01*
G37*
G36*
X154595088Y-94108772D02*
G01*
X154595088Y-94287018D01*
X154394562Y-94287018D01*
X154194035Y-94287018D01*
X154194035Y-94108772D01*
X154194035Y-93930526D01*
X154394562Y-93930526D01*
X154595088Y-93930526D01*
X154595088Y-94108772D01*
G37*
G36*
X147509825Y-95000000D02*
G01*
X147509825Y-95178246D01*
X146730000Y-95178246D01*
X145950176Y-95178246D01*
X145950176Y-95000000D01*
X145950176Y-94821754D01*
X146730000Y-94821754D01*
X147509825Y-94821754D01*
X147509825Y-95000000D01*
G37*
G36*
X147509825Y-94131053D02*
G01*
X147509825Y-94331579D01*
X146730000Y-94331579D01*
X145950176Y-94331579D01*
X145950176Y-94131053D01*
X145950176Y-93930526D01*
X146730000Y-93930526D01*
X147509825Y-93930526D01*
X147509825Y-94131053D01*
G37*
G36*
X142875439Y-94665790D02*
G01*
X142875439Y-95401053D01*
X142674913Y-95401053D01*
X142474386Y-95401053D01*
X142474386Y-94665790D01*
X142474386Y-93930526D01*
X142674913Y-93930526D01*
X142875439Y-93930526D01*
X142875439Y-94665790D01*
G37*
G36*
X142875439Y-95868947D02*
G01*
X142875439Y-96069474D01*
X142117895Y-96069474D01*
X141360351Y-96069474D01*
X141360351Y-95868947D01*
X141360351Y-95668421D01*
X142117895Y-95668421D01*
X142875439Y-95668421D01*
X142875439Y-95868947D01*
G37*
G36*
X141092983Y-95311930D02*
G01*
X141092983Y-96069474D01*
X140892456Y-96069474D01*
X140691930Y-96069474D01*
X140691930Y-95311930D01*
X140691930Y-94554386D01*
X140892456Y-94554386D01*
X141092983Y-94554386D01*
X141092983Y-95311930D01*
G37*
G36*
X141092983Y-94108772D02*
G01*
X141092983Y-94287018D01*
X140892456Y-94287018D01*
X140691930Y-94287018D01*
X140691930Y-94108772D01*
X140691930Y-93930526D01*
X140892456Y-93930526D01*
X141092983Y-93930526D01*
X141092983Y-94108772D01*
G37*
G36*
X135745614Y-94130069D02*
G01*
X135745614Y-94331579D01*
X134896386Y-94331579D01*
X134047157Y-94331579D01*
X134060859Y-94142193D01*
X134074562Y-93952807D01*
X134910088Y-93940683D01*
X135745614Y-93928560D01*
X135745614Y-94130069D01*
G37*
G36*
X153792238Y-95281071D02*
G01*
X153792983Y-96074598D01*
X153603597Y-96060896D01*
X153414211Y-96047193D01*
X153401497Y-95642428D01*
X153399206Y-95567575D01*
X153397342Y-95400598D01*
X153408124Y-95277116D01*
X153438932Y-95166625D01*
X153497143Y-95038622D01*
X153590138Y-94862603D01*
X153791494Y-94487544D01*
X153792238Y-95281071D01*
G37*
G36*
X147509825Y-95841046D02*
G01*
X147509825Y-96071578D01*
X146741141Y-96059386D01*
X145972456Y-96047193D01*
X145958754Y-95857807D01*
X145945051Y-95668421D01*
X146319540Y-95668421D01*
X146348434Y-95668342D01*
X146588964Y-95663742D01*
X146857776Y-95653464D01*
X147101927Y-95639468D01*
X147509825Y-95610514D01*
X147509825Y-95841046D01*
G37*
G36*
X149282351Y-94641638D02*
G01*
X149284251Y-94771278D01*
X149285403Y-95000314D01*
X149283519Y-95191206D01*
X149278844Y-95326970D01*
X149271619Y-95390623D01*
X149269514Y-95395336D01*
X149203245Y-95433472D01*
X149058741Y-95437056D01*
X148868948Y-95423333D01*
X148868948Y-94688070D01*
X148868948Y-93952807D01*
X149069474Y-93952807D01*
X149270000Y-93952807D01*
X149282351Y-94641638D01*
G37*
G36*
X135121755Y-95304503D02*
G01*
X135121092Y-95453223D01*
X135117334Y-95678079D01*
X135110814Y-95861351D01*
X135102172Y-95987196D01*
X135092047Y-96039766D01*
X135084659Y-96044741D01*
X135009279Y-96062355D01*
X134891521Y-96069474D01*
X134720702Y-96069474D01*
X134720702Y-95334211D01*
X134720702Y-94598947D01*
X134921228Y-94598947D01*
X135121755Y-94598947D01*
X135121755Y-95304503D01*
G37*
G36*
X149284280Y-95799049D02*
G01*
X149284326Y-95799513D01*
X149287177Y-95920541D01*
X149274123Y-96007956D01*
X149261388Y-96024852D01*
X149216521Y-96043656D01*
X149130038Y-96055723D01*
X148990078Y-96061845D01*
X148784785Y-96062812D01*
X148502299Y-96059415D01*
X147754913Y-96047193D01*
X147754913Y-95851461D01*
X147754913Y-95655729D01*
X148512456Y-95654776D01*
X149270000Y-95653824D01*
X149284280Y-95799049D01*
G37*
G36*
X137874301Y-94954430D02*
G01*
X137875760Y-95095278D01*
X137877226Y-95375954D01*
X137876602Y-95621891D01*
X137874026Y-95819497D01*
X137869636Y-95955180D01*
X137863568Y-96015346D01*
X137862501Y-96017892D01*
X137796971Y-96056968D01*
X137651022Y-96060916D01*
X137461228Y-96047193D01*
X137461228Y-95000000D01*
X137461228Y-93952807D01*
X137661755Y-93952807D01*
X137862281Y-93952807D01*
X137874301Y-94954430D01*
G37*
G36*
X136369474Y-94331579D02*
G01*
X136369474Y-94732632D01*
X136815088Y-94732632D01*
X137260702Y-94732632D01*
X137260702Y-94933158D01*
X137260702Y-95133684D01*
X136815088Y-95133684D01*
X136369474Y-95133684D01*
X136369474Y-95604141D01*
X136369474Y-96074598D01*
X136180088Y-96060896D01*
X135990702Y-96047193D01*
X135978755Y-94988860D01*
X135966808Y-93930526D01*
X136168141Y-93930526D01*
X136369474Y-93930526D01*
X136369474Y-94331579D01*
G37*
G36*
X144657895Y-95001510D02*
G01*
X144657895Y-96074598D01*
X144468509Y-96060896D01*
X144279123Y-96047193D01*
X144266369Y-95612719D01*
X144253615Y-95178246D01*
X143742773Y-95178246D01*
X143231930Y-95178246D01*
X143231930Y-95000000D01*
X143231930Y-94821754D01*
X143744386Y-94821754D01*
X144256842Y-94821754D01*
X144256842Y-94576667D01*
X144256842Y-94331579D01*
X143674982Y-94331579D01*
X143093122Y-94331579D01*
X143106824Y-94142193D01*
X143120527Y-93952807D01*
X143889211Y-93940614D01*
X144657895Y-93928422D01*
X144657895Y-95001510D01*
G37*
G36*
X139346615Y-95075886D02*
G01*
X139360422Y-95218613D01*
X139061450Y-95231851D01*
X138762478Y-95245088D01*
X139282147Y-95617876D01*
X139353570Y-95669319D01*
X139532886Y-95800416D01*
X139680557Y-95911160D01*
X139782885Y-95991171D01*
X139826170Y-96030069D01*
X139806057Y-96048510D01*
X139718008Y-96063659D01*
X139581247Y-96069474D01*
X139580022Y-96069474D01*
X139449872Y-96066238D01*
X139348362Y-96049852D01*
X139250515Y-96010227D01*
X139131353Y-95937271D01*
X138965898Y-95820894D01*
X138619825Y-95572315D01*
X138606388Y-95823344D01*
X138592950Y-96074374D01*
X138405861Y-96060783D01*
X138218772Y-96047193D01*
X138218772Y-95490176D01*
X138218772Y-94933158D01*
X138775790Y-94933158D01*
X139332807Y-94933158D01*
X139346615Y-95075886D01*
G37*
G36*
X139420368Y-93937959D02*
G01*
X139643503Y-93972758D01*
X139825217Y-94043128D01*
X139991018Y-94156428D01*
X140056825Y-94213926D01*
X140184625Y-94362020D01*
X140268756Y-94537109D01*
X140326025Y-94769972D01*
X140368637Y-95004419D01*
X140164266Y-94991069D01*
X140094816Y-94985744D01*
X140000902Y-94966411D01*
X139955023Y-94920046D01*
X139929329Y-94827227D01*
X139908560Y-94749207D01*
X139804626Y-94555523D01*
X139649091Y-94412094D01*
X139459349Y-94322512D01*
X139252798Y-94290371D01*
X139046832Y-94319267D01*
X138858849Y-94412791D01*
X138706244Y-94574539D01*
X138655862Y-94636213D01*
X138572370Y-94677578D01*
X138436454Y-94688070D01*
X138408983Y-94687818D01*
X138293994Y-94673626D01*
X138245119Y-94627717D01*
X138257288Y-94536281D01*
X138325434Y-94385506D01*
X138331553Y-94373686D01*
X138474115Y-94171909D01*
X138661121Y-94034295D01*
X138902663Y-93955649D01*
X139208832Y-93930775D01*
X139420368Y-93937959D01*
G37*
G36*
X153474922Y-94540627D02*
G01*
X153432201Y-94621123D01*
X153302728Y-94865556D01*
X153177843Y-95101945D01*
X153069973Y-95306746D01*
X152991545Y-95456415D01*
X152948419Y-95538277D01*
X152878419Y-95659069D01*
X152821811Y-95724563D01*
X152761139Y-95751528D01*
X152678948Y-95756735D01*
X152663836Y-95756668D01*
X152602834Y-95751854D01*
X152551536Y-95730528D01*
X152499438Y-95680359D01*
X152436040Y-95589016D01*
X152350839Y-95444166D01*
X152233334Y-95233478D01*
X151943685Y-94710351D01*
X151931384Y-95389912D01*
X151919083Y-96069474D01*
X151719717Y-96069474D01*
X151520351Y-96069474D01*
X151520351Y-94997559D01*
X151520351Y-93925643D01*
X151725822Y-93939225D01*
X151931293Y-93952807D01*
X152281575Y-94593969D01*
X152364113Y-94744615D01*
X152473209Y-94942272D01*
X152562344Y-95102012D01*
X152623988Y-95210372D01*
X152650611Y-95253886D01*
X152667556Y-95236337D01*
X152721085Y-95153178D01*
X152803561Y-95013268D01*
X152907728Y-94828989D01*
X153026329Y-94612724D01*
X153383291Y-93952807D01*
X153592479Y-93939048D01*
X153801666Y-93925289D01*
X153474922Y-94540627D01*
G37*
G36*
X151119299Y-94098449D02*
G01*
X151119299Y-94276909D01*
X150659313Y-94293937D01*
X150587547Y-94296977D01*
X150333198Y-94317762D01*
X150154096Y-94354907D01*
X150039484Y-94413336D01*
X149978605Y-94497971D01*
X149960702Y-94613738D01*
X149965141Y-94685947D01*
X150006614Y-94809255D01*
X150099147Y-94897905D01*
X150251823Y-94956200D01*
X150473729Y-94988443D01*
X150773948Y-94998937D01*
X151119299Y-95000000D01*
X151119299Y-95505029D01*
X151117337Y-95687017D01*
X151111040Y-95861823D01*
X151101437Y-95985784D01*
X151089591Y-96039766D01*
X151082203Y-96044741D01*
X151006823Y-96062355D01*
X150889065Y-96069474D01*
X150718246Y-96069474D01*
X150718246Y-95719350D01*
X150718246Y-95369226D01*
X150361972Y-95344807D01*
X150084914Y-95307958D01*
X149851462Y-95227937D01*
X149686183Y-95101201D01*
X149582114Y-94922215D01*
X149532295Y-94685449D01*
X149528493Y-94629820D01*
X149553800Y-94385160D01*
X149652730Y-94190408D01*
X149825642Y-94044781D01*
X149888189Y-94013545D01*
X149984733Y-93983146D01*
X150114831Y-93962203D01*
X150297001Y-93947978D01*
X150549765Y-93937733D01*
X151119299Y-93919988D01*
X151119299Y-94098449D01*
G37*
G36*
X156011707Y-93947647D02*
G01*
X156251997Y-94018238D01*
X156429527Y-94139348D01*
X156538160Y-94306402D01*
X156571757Y-94514822D01*
X156551286Y-94653576D01*
X156482459Y-94783834D01*
X156355328Y-94894249D01*
X156159683Y-94993373D01*
X155885315Y-95089757D01*
X155775125Y-95125797D01*
X155593066Y-95194786D01*
X155451797Y-95260475D01*
X155373965Y-95312977D01*
X155336687Y-95365610D01*
X155316489Y-95477196D01*
X155363234Y-95580951D01*
X155462110Y-95666285D01*
X155598306Y-95722607D01*
X155757010Y-95739327D01*
X155923411Y-95705853D01*
X156046432Y-95638154D01*
X156151639Y-95500278D01*
X156164861Y-95471366D01*
X156214428Y-95395378D01*
X156286284Y-95363171D01*
X156413697Y-95356491D01*
X156612012Y-95356491D01*
X156585938Y-95517170D01*
X156537549Y-95690019D01*
X156419566Y-95859900D01*
X156229246Y-95983106D01*
X156121642Y-96020712D01*
X155895491Y-96060254D01*
X155643900Y-96068191D01*
X155404039Y-96041878D01*
X155357893Y-96028025D01*
X155227157Y-95962024D01*
X155097680Y-95868728D01*
X155016464Y-95794559D01*
X154957990Y-95715585D01*
X154933959Y-95619094D01*
X154929299Y-95469335D01*
X154930980Y-95367767D01*
X154946605Y-95252983D01*
X154989592Y-95171013D01*
X155073013Y-95087087D01*
X155159359Y-95025310D01*
X155334159Y-94936896D01*
X155540908Y-94861650D01*
X155591075Y-94846472D01*
X155825810Y-94768598D01*
X155988761Y-94698892D01*
X156093414Y-94630645D01*
X156153256Y-94557153D01*
X156181065Y-94460457D01*
X156138300Y-94362515D01*
X156010831Y-94290131D01*
X155987547Y-94282438D01*
X155777884Y-94249986D01*
X155588301Y-94281753D01*
X155437694Y-94371424D01*
X155344958Y-94512683D01*
X155334229Y-94541900D01*
X155293948Y-94608958D01*
X155225029Y-94637523D01*
X155097354Y-94643509D01*
X154895357Y-94643509D01*
X154920735Y-94487121D01*
X154946420Y-94379621D01*
X155053671Y-94183890D01*
X155230224Y-94043463D01*
X155475272Y-93958859D01*
X155788007Y-93930596D01*
X156011707Y-93947647D01*
G37*
G36*
X161281461Y-90351117D02*
G01*
X161305251Y-90400369D01*
X161358350Y-90524129D01*
X161437406Y-90714175D01*
X161539067Y-90962283D01*
X161659981Y-91260230D01*
X161796795Y-91599794D01*
X161946158Y-91972750D01*
X162104718Y-92370877D01*
X162174894Y-92547563D01*
X162364112Y-93023988D01*
X162562115Y-93522560D01*
X162761955Y-94025782D01*
X162956683Y-94516159D01*
X163139354Y-94976195D01*
X163303018Y-95388395D01*
X163440729Y-95735263D01*
X163440842Y-95735548D01*
X163603927Y-96146342D01*
X163784801Y-96601922D01*
X163973331Y-97076766D01*
X164159382Y-97545348D01*
X164332820Y-97982144D01*
X164483511Y-98361630D01*
X164528189Y-98474295D01*
X164648718Y-98779854D01*
X164756417Y-99055232D01*
X164847237Y-99289915D01*
X164917124Y-99473389D01*
X164962027Y-99595138D01*
X164977895Y-99644648D01*
X164965248Y-99651078D01*
X164896693Y-99629550D01*
X164788509Y-99574748D01*
X164682856Y-99515427D01*
X164494585Y-99411856D01*
X164259279Y-99284020D01*
X163986594Y-99137032D01*
X163686188Y-98976003D01*
X163367716Y-98806047D01*
X163040835Y-98632275D01*
X162715201Y-98459801D01*
X162400472Y-98293737D01*
X162106304Y-98139194D01*
X161842354Y-98001286D01*
X161618277Y-97885124D01*
X161443732Y-97795822D01*
X161328373Y-97738492D01*
X161281859Y-97718246D01*
X161270464Y-97719831D01*
X161240813Y-97729799D01*
X161190521Y-97751854D01*
X161113161Y-97789349D01*
X161002308Y-97845636D01*
X160851538Y-97924066D01*
X160654424Y-98027991D01*
X160404543Y-98160763D01*
X160095467Y-98325734D01*
X159720773Y-98526256D01*
X159274035Y-98765681D01*
X159171559Y-98820618D01*
X158767934Y-99036781D01*
X158434959Y-99214639D01*
X158166311Y-99357492D01*
X157955665Y-99468638D01*
X157796696Y-99551375D01*
X157683080Y-99609002D01*
X157608492Y-99644817D01*
X157566608Y-99662117D01*
X157551103Y-99664202D01*
X157550351Y-99662423D01*
X157552104Y-99648699D01*
X157560923Y-99618303D01*
X157578660Y-99566511D01*
X157607166Y-99488602D01*
X157648291Y-99379852D01*
X157703888Y-99235538D01*
X157775807Y-99050937D01*
X157865899Y-98821325D01*
X157976016Y-98541980D01*
X158108009Y-98208179D01*
X158263729Y-97815198D01*
X158445027Y-97358314D01*
X158653755Y-96832805D01*
X158891764Y-96233947D01*
X159160904Y-95557018D01*
X159172066Y-95528948D01*
X159368279Y-95035498D01*
X159573772Y-94518700D01*
X159782515Y-93993721D01*
X159988477Y-93475726D01*
X160185628Y-92979881D01*
X160367938Y-92521354D01*
X160529377Y-92115309D01*
X160663914Y-91776914D01*
X160788344Y-91466836D01*
X160915527Y-91156238D01*
X161029927Y-90883418D01*
X161127623Y-90657429D01*
X161204698Y-90487320D01*
X161257232Y-90382143D01*
X161281308Y-90350949D01*
X161281461Y-90351117D01*
G37*
%TD*%
M02*
