M48
; DRILL file {KiCad 7.0.5} date Thu Nov  2 21:43:47 2023
; FORMAT={-:-/ absolute / metric / decimal}
; #@! TF.CreationDate,2023-11-02T21:43:47+08:00
; #@! TF.GenerationSoftware,Kicad,Pcbnew,7.0.5
; #@! TF.FileFunction,Plated,1,2,PTH
FMAT,2
METRIC
; #@! TA.AperFunction,Plated,PTH,ViaDrill
T1C0.300
; #@! TA.AperFunction,Plated,PTH,ComponentDrill
T2C0.600
; #@! TA.AperFunction,Plated,PTH,ComponentDrill
T3C0.900
; #@! TA.AperFunction,Plated,PTH,ComponentDrill
T4C0.990
; #@! TA.AperFunction,Plated,PTH,ComponentDrill
T5C1.100
; #@! TA.AperFunction,Plated,PTH,ComponentDrill
T6C1.200
; #@! TA.AperFunction,Plated,PTH,ComponentDrill
T7C1.300
; #@! TA.AperFunction,Plated,PTH,ComponentDrill
T8C1.600
%
G90
G05
T1
X107.925Y-107.975
X112.45Y-101.75
X112.525Y-117.025
X118.0Y-88.8
X118.0Y-90.8
X118.0Y-93.0
X118.0Y-95.0
X118.0Y-96.6
X119.0Y-97.8
X119.6Y-87.0
X119.6Y-88.8
X119.6Y-90.8
X119.6Y-93.0
X119.6Y-95.0
X120.4Y-96.8
X120.4Y-99.0
X122.4Y-97.6
X122.4Y-99.0
X122.5Y-81.25
X122.65Y-86.25
X123.262Y-115.05
X124.4Y-97.6
X124.4Y-99.0
X125.65Y-108.475
X126.4Y-99.0
X127.55Y-111.425
X128.6Y-99.0
X129.0Y-97.6
X130.45Y-83.2
X130.5Y-81.225
X130.8Y-97.6
X130.8Y-99.0
X130.9Y-95.6
X133.0Y-97.6
X133.0Y-99.0
X135.6Y-99.0
X136.55Y-94.2
X138.4Y-117.45
X138.6Y-98.8
X138.6Y-118.9
X139.025Y-107.1
X139.4Y-80.725
X139.55Y-84.9
X140.25Y-117.45
X140.4Y-98.8
X142.2Y-98.8
X142.675Y-101.75
X142.775Y-109.2
X142.95Y-96.75
X143.25Y-99.35
X143.4Y-118.9
X144.2Y-107.1
X144.6Y-107.95
X144.8Y-92.65
X145.55Y-105.95
X146.4Y-112.5
X147.2Y-96.4
X147.2Y-97.4
X147.5Y-98.25
X147.5Y-99.35
X147.6Y-100.4
X147.6Y-101.6
X147.6Y-102.6
X147.6Y-103.6
X148.4Y-96.4
X148.4Y-97.4
X148.4Y-100.4
X148.4Y-101.6
X148.4Y-102.6
X148.4Y-103.6
X148.575Y-116.95
X149.375Y-108.4
X149.8Y-90.55
X150.05Y-112.5
X150.15Y-101.2
X150.8Y-95.2
X150.8Y-96.0
X150.8Y-97.0
X151.0Y-100.2
X151.0Y-101.2
X151.0Y-102.0
X151.0Y-102.8
X151.0Y-103.6
X151.8Y-95.2
X151.8Y-96.0
X151.8Y-97.0
X151.8Y-100.2
X151.8Y-101.2
X151.8Y-102.0
X151.8Y-102.8
X151.8Y-103.6
X152.6Y-101.4
X153.2Y-95.2
X153.2Y-96.0
X153.2Y-97.0
X153.6Y-100.0
X153.6Y-100.8
X153.6Y-102.0
X153.6Y-103.0
X153.75Y-115.05
X153.8Y-117.4
X153.825Y-118.05
X153.85Y-118.675
X154.15Y-92.25
X154.2Y-95.2
X154.2Y-96.0
X154.2Y-97.0
X154.8Y-108.4
X154.9Y-98.95
X154.9Y-101.45
X155.15Y-87.55
X155.4Y-108.4
X155.7Y-81.05
X156.45Y-92.25
X156.8Y-106.7
X157.55Y-118.825
X158.95Y-86.75
X159.2Y-107.4
X159.75Y-104.1
X160.2Y-88.45
X160.225Y-116.075
X160.237Y-112.925
X160.45Y-84.15
X160.7Y-98.65
X161.0Y-107.4
X161.975Y-119.1
X161.975Y-119.775
X162.05Y-94.1
X162.8Y-100.0
X163.2Y-107.8
X163.2Y-108.8
X164.0Y-97.2
X164.4Y-98.6
X164.6Y-107.8
X164.6Y-108.8
X165.0Y-97.2
X166.0Y-97.2
X166.0Y-98.8
X166.2Y-107.8
X166.2Y-108.8
X166.525Y-122.125
X166.8Y-103.4
X167.0Y-97.2
X167.0Y-98.8
X167.8Y-107.8
X167.8Y-108.8
X168.2Y-97.2
X168.2Y-98.8
X168.2Y-121.4
X168.2Y-122.8
X169.5Y-78.4
X169.6Y-101.4
X169.6Y-107.8
X169.6Y-108.8
X169.6Y-121.4
X169.6Y-122.8
X169.8Y-97.2
X169.8Y-98.8
X171.3Y-108.325
X171.6Y-111.6
X171.6Y-113.0
X171.6Y-114.6
X171.6Y-116.2
X171.6Y-118.0
X171.6Y-119.4
X171.6Y-120.8
X171.8Y-97.2
X171.8Y-98.8
X172.8Y-111.8
X172.8Y-113.0
X172.8Y-114.6
X172.8Y-116.2
X172.8Y-118.0
X172.8Y-119.4
X172.8Y-120.8
X173.4Y-97.2
X173.4Y-98.8
X175.0Y-97.2
X175.2Y-98.8
X176.0Y-85.65
X176.0Y-86.6
X176.0Y-87.8
X176.0Y-89.4
X176.0Y-90.8
X176.0Y-92.0
X176.0Y-93.2
X176.0Y-94.8
X176.0Y-95.8
X176.15Y-84.7
X176.7Y-83.55
X176.8Y-97.0
X177.4Y-98.8
X177.55Y-82.75
X177.6Y-86.6
X177.6Y-87.6
X177.6Y-89.4
X177.6Y-90.8
X177.6Y-92.0
X177.6Y-93.2
X177.6Y-94.8
X177.6Y-95.8
X177.65Y-85.55
X177.7Y-97.2
X178.0Y-84.7
X178.8Y-82.4
X178.8Y-84.2
X179.0Y-97.2
X179.0Y-98.8
X179.8Y-82.4
X179.8Y-84.2
X180.8Y-97.2
X180.8Y-98.8
X181.0Y-82.4
X181.0Y-84.2
X182.4Y-82.4
X182.4Y-84.2
X182.4Y-97.2
X182.4Y-98.8
X183.6Y-98.8
X183.65Y-97.2
X184.0Y-82.4
X184.0Y-84.2
X184.8Y-98.8
X184.9Y-96.9
X185.8Y-82.4
X185.8Y-84.2
X188.0Y-82.4
X188.0Y-84.2
X190.2Y-82.4
X190.2Y-84.2
X192.2Y-82.4
X192.2Y-84.2
X194.0Y-82.4
X194.0Y-84.2
X195.6Y-84.2
X195.8Y-82.4
X197.4Y-82.4
X197.4Y-84.2
T4
X127.5Y-67.0
X132.0Y-67.0
X161.975Y-66.962
X166.475Y-66.962
T5
X117.25Y-81.25
X117.25Y-83.75
X117.25Y-86.25
X187.5Y-93.25
X190.0Y-93.25
X192.5Y-93.25
X200.0Y-80.75
X200.0Y-83.25
X200.0Y-85.75
T6
X161.7Y-124.2
X164.7Y-124.2
X167.7Y-124.2
T7
X126.25Y-69.49
X133.26Y-69.49
X160.725Y-69.453
X167.735Y-69.453
T8
X100.5Y-76.0
X100.5Y-91.5
X114.0Y-76.0
X114.0Y-91.5
X183.25Y-75.5
X183.25Y-91.0
X196.75Y-75.5
X196.75Y-91.0
T2
G00X136.68Y-120.725
M15
G01X136.68Y-121.825
M16
G05
G00X136.68Y-125.075
M15
G01X136.68Y-125.875
M16
G05
G00X145.32Y-120.725
M15
G01X145.32Y-121.825
M16
G05
G00X145.32Y-125.075
M15
G01X145.32Y-125.875
M16
G05
T3
G00X158.35Y-123.75
M15
G01X158.35Y-124.65
M16
G05
G00X171.05Y-123.75
M15
G01X171.05Y-124.65
M16
G05
T0
M30
